# Blender 4.5.3 LTS
# www.blender.org
mtllib base_aula(sinpasilloniseparacion.mtl
o Cube
v 11.455003 -2.010365 -10.094448
v 11.455003 -1.671087 -10.094448
v 11.455003 -2.010365 11.325521
v 11.455003 -1.671087 11.325521
v -22.660719 -2.010365 -10.094448
v -22.660719 -1.671087 -10.094448
v -22.660719 -2.010365 11.325521
v -22.660719 -1.671087 11.325521
vn -0.0000 -1.0000 -0.0000
vn -0.0000 -0.0000 1.0000
vn -1.0000 -0.0000 -0.0000
vn -0.0000 1.0000 -0.0000
vn 1.0000 -0.0000 -0.0000
vn -0.0000 -0.0000 -1.0000
vt 0.625000 0.500000
vt 0.875000 0.500000
vt 0.875000 0.750000
vt 0.625000 0.750000
vt 0.375000 0.750000
vt 0.625000 1.000000
vt 0.375000 1.000000
vt 0.375000 0.000000
vt 0.625000 0.000000
vt 0.625000 0.250000
vt 0.375000 0.250000
vt 0.125000 0.500000
vt 0.375000 0.500000
vt 0.125000 0.750000
s 0
usemtl Material
f 1/1/1 3/4/1 7/3/1 5/2/1
f 4/5/2 8/7/2 7/6/2 3/4/2
f 8/8/3 6/11/3 5/10/3 7/9/3
f 6/12/4 8/14/4 4/5/4 2/13/4
f 2/13/5 4/5/5 3/4/5 1/1/5
f 6/11/6 2/13/6 1/1/6 5/10/6
o Cube.001
v 11.028433 -2.034318 -10.094448
v 11.367711 -2.034301 -10.094448
v 11.028433 -2.034318 11.325521
v 11.367711 -2.034301 11.325521
v 11.027400 19.385651 -10.094448
v 11.366678 19.385670 -10.094448
v 11.027400 19.385651 11.325521
v 11.366678 19.385670 11.325521
vn -1.0000 -0.0000 -0.0000
vn -0.0000 -0.0000 1.0000
vn -0.0000 1.0000 -0.0000
vn 1.0000 -0.0000 -0.0000
vn -0.0000 -1.0000 -0.0000
vn -0.0000 -0.0000 -1.0000
vt 0.625000 0.500000
vt 0.875000 0.500000
vt 0.875000 0.750000
vt 0.625000 0.750000
vt 0.375000 0.750000
vt 0.625000 1.000000
vt 0.375000 1.000000
vt 0.375000 0.000000
vt 0.625000 0.000000
vt 0.625000 0.250000
vt 0.375000 0.250000
vt 0.125000 0.500000
vt 0.375000 0.500000
vt 0.125000 0.750000
s 0
usemtl Material.001
f 9/15/7 11/18/7 15/17/7 13/16/7
f 12/19/8 16/21/8 15/20/8 11/18/8
f 16/22/9 14/25/9 13/24/9 15/23/9
f 14/26/10 16/28/10 12/19/10 10/27/10
f 10/27/11 12/19/11 11/18/11 9/15/11
f 14/25/12 10/27/12 9/15/12 13/24/12
o Cube.002
v -22.700264 -2.034318 -10.094448
v -22.360985 -2.034301 -10.094448
v -22.700264 -2.034318 11.325521
v -22.360985 -2.034301 11.325521
v -22.701298 19.385651 -10.094448
v -22.362019 19.385670 -10.094448
v -22.701298 19.385651 11.325521
v -22.362019 19.385670 11.325521
vn -1.0000 -0.0000 -0.0000
vn -0.0000 -0.0000 1.0000
vn -0.0000 1.0000 -0.0000
vn 1.0000 -0.0000 -0.0000
vn -0.0000 -1.0000 -0.0000
vn -0.0000 -0.0000 -1.0000
vt 0.625000 0.500000
vt 0.875000 0.500000
vt 0.875000 0.750000
vt 0.625000 0.750000
vt 0.375000 0.750000
vt 0.625000 1.000000
vt 0.375000 1.000000
vt 0.375000 0.000000
vt 0.625000 0.000000
vt 0.625000 0.250000
vt 0.375000 0.250000
vt 0.125000 0.500000
vt 0.375000 0.500000
vt 0.125000 0.750000
s 0
usemtl Material.002
f 17/29/13 19/32/13 23/31/13 21/30/13
f 20/33/14 24/35/14 23/34/14 19/32/14
f 24/36/15 22/39/15 21/38/15 23/37/15
f 22/40/16 24/42/16 20/33/16 18/41/16
f 18/41/17 20/33/17 19/32/17 17/29/17
f 22/39/18 18/41/18 17/29/18 21/38/18
o Cube.003
v 11.455003 19.520321 -10.123881
v 11.455003 19.519524 -9.784603
v 11.455003 -1.899588 -10.174183
v 11.455003 -1.900385 -9.834905
v -22.660719 19.520321 -10.123881
v -22.660719 19.519524 -9.784603
v -22.660719 -1.899588 -10.174183
v -22.660719 -1.900385 -9.834905
v -21.841196 10.785608 -10.144393
v -16.502378 10.785608 -10.144393
v -21.841196 18.778006 -10.125625
v -14.963402 18.778008 -10.125625
v -16.502378 18.778006 -10.125625
v -8.037174 10.785608 -10.144393
v -9.624585 10.785608 -10.144393
v -14.963402 10.785608 -10.144393
v -9.624585 18.778008 -10.125625
v -8.037174 18.778008 -10.125625
v -2.698358 10.785608 -10.144393
v -2.698358 18.778008 -10.125625
v 3.937259 18.778008 -10.125625
v 5.282495 18.778008 -10.125625
v -1.401557 18.778008 -10.125625
v -1.401557 10.785608 -10.144393
v 3.937259 10.785608 -10.144393
v 5.282495 10.785608 -10.144393
v 10.621312 18.778008 -10.125625
v 10.621312 10.785608 -10.144393
v -14.963402 18.778006 -9.786345
v -16.502378 18.778004 -9.786345
v -8.037174 10.785608 -9.805114
v -2.698358 10.785608 -9.805114
v -8.037174 18.778006 -9.786345
v -9.624585 18.778006 -9.786345
v -1.401557 18.778006 -9.786345
v -2.698358 18.778006 -9.786345
v 3.937259 10.785608 -9.805114
v 5.282495 18.778006 -9.786345
v 10.621312 10.785608 -9.805114
v 10.621312 18.778006 -9.786345
v 5.282495 10.785608 -9.805114
v -1.401557 10.785608 -9.805114
v 3.937259 18.778006 -9.786345
v -21.841196 10.785608 -9.805114
v -16.502378 10.785608 -9.805114
v -21.841196 18.778004 -9.786345
v -14.963402 10.785608 -9.805114
v -9.624585 10.785608 -9.805114
vn -0.0000 0.0023 -1.0000
vn -0.0000 -1.0000 -0.0023
vn -1.0000 -0.0000 -0.0000
vn -0.0000 -0.0023 1.0000
vn 1.0000 -0.0000 -0.0000
vn -0.0000 1.0000 0.0023
vn -0.0000 1.0000 -0.0000
vn -0.0000 -1.0000 -0.0000
vt 0.670232 0.508664
vt 0.680090 0.508664
vt 0.680090 0.601946
vt 0.719213 0.601946
vt 0.719213 0.508664
vt 0.728716 0.508664
vt 0.728716 0.601946
vt 0.767839 0.601946
vt 0.779471 0.601946
vt 0.818594 0.601946
vt 0.818594 0.508664
vt 0.829872 0.508664
vt 0.829872 0.601946
vt 0.868995 0.601946
vt 0.868994 0.508664
vt 0.875000 0.500000
vt 0.875000 0.750000
vt 0.625000 0.750000
vt 0.625000 0.500000
vt 0.631109 0.508664
vt 0.631109 0.601946
vt 0.670232 0.601946
vt 0.779471 0.508664
vt 0.767839 0.508664
vt 0.375000 0.750000
vt 0.625000 1.000000
vt 0.375000 1.000000
vt 0.375000 0.000000
vt 0.625000 0.000000
vt 0.625000 0.250000
vt 0.375000 0.250000
vt 0.375000 0.500000
vt 0.125000 0.750000
vt 0.125000 0.500000
vt 0.131005 0.508655
vt 0.131005 0.601937
vt 0.170128 0.601937
vt 0.170128 0.508655
vt 0.181406 0.508655
vt 0.181406 0.601937
vt 0.220529 0.601937
vt 0.220529 0.508655
vt 0.232161 0.508655
vt 0.232161 0.601937
vt 0.271284 0.601937
vt 0.280787 0.601937
vt 0.319910 0.601937
vt 0.329768 0.601937
vt 0.368891 0.601937
vt 0.368891 0.508655
vt 0.329768 0.508655
vt 0.319910 0.508655
vt 0.280787 0.508655
vt 0.271284 0.508655
vt 0.625000 0.083317
vt 0.625000 0.093930
vt 0.375000 0.094517
vt 0.375000 0.083904
vt 0.375000 0.655483
vt 0.625000 0.656070
vt 0.625000 0.666683
vt 0.375000 0.666096
vt 0.125000 0.655483
vt 0.125000 0.666096
vt 0.625000 0.666681
vt 0.625000 0.656069
vt 0.875000 0.656069
vt 0.875000 0.666681
vt 0.375000 0.655483
vt 0.375000 0.666096
s 0
usemtl Material.003
f 46/43/19 50/64/19 52/63/19 51/62/19 25/61/19 27/60/19 31/59/19 29/58/19 35/57/19 33/56/19 34/55/19 37/54/19 36/53/19 40/52/19 39/51/19 38/50/19 43/49/19 44/48/19 47/47/19 48/46/19 49/45/19 45/44/19
f 51/62/19 46/43/19 45/44/19 47/47/19 44/48/19 42/66/19 38/50/19 39/51/19 41/65/19 36/53/19 37/54/19 35/57/19 29/58/19 25/61/19
f 28/67/20 32/69/20 31/68/20 27/60/20
f 32/70/21 30/73/21 29/72/21 31/71/21
f 26/74/22 64/92/22 63/91/22 65/90/22 61/89/22 66/88/22 56/87/22 55/86/22 57/85/22 58/84/22 72/83/22 71/82/22 53/81/22 54/80/22 69/79/22 68/78/22 70/77/22 30/76/22 32/75/22 28/67/22
f 70/77/22 54/80/22 53/81/22 58/84/22 57/85/22 60/96/22 56/87/22 66/88/22 59/95/22 67/94/22 61/89/22 65/90/22 62/93/22 64/92/22 26/74/22 30/76/22
f 26/74/23 28/67/23 27/60/23 25/61/23
f 30/73/24 26/74/24 25/61/24 29/72/24
f 70/97/23 68/100/23 33/99/23 35/98/23
f 34/101/21 69/104/21 54/103/21 37/102/21
f 33/105/25 68/106/25 69/104/25 34/101/25
f 54/107/26 70/110/26 35/109/26 37/108/26
f 53/97/23 71/100/23 40/99/23 36/98/23
f 39/111/21 72/104/21 58/103/21 41/102/21
f 40/105/25 71/106/25 72/104/25 39/111/25
f 58/107/26 53/110/26 36/109/26 41/108/26
f 57/97/23 55/100/23 38/99/23 42/98/23
f 43/101/21 56/112/21 60/103/21 44/102/21
f 38/105/25 55/106/25 56/112/25 43/101/25
f 60/107/26 57/110/26 42/109/26 44/108/26
f 59/97/23 66/100/23 48/99/23 47/98/23
f 49/101/21 61/112/21 67/103/21 45/102/21
f 48/105/25 66/106/25 61/112/25 49/101/25
f 67/107/26 59/110/26 47/109/26 45/108/26
f 62/97/23 65/100/23 50/99/23 46/98/23
f 52/101/21 63/104/21 64/103/21 51/102/21
f 50/105/25 65/106/25 63/104/25 52/101/25
f 64/107/26 62/110/26 46/109/26 51/108/26
