# Blender 4.5.3 LTS
# www.blender.org
mtllib dispenser.mtl
o Object_4
v 0.586249 0.320226 -0.562151
v 0.570053 3.573648 -0.577439
v 0.537668 0.320894 0.494862
v 0.537668 0.320894 0.494862
v -0.584785 0.321886 -0.562369
v -0.569599 3.573648 -0.577439
v -0.537213 0.320894 0.494862
v -0.537213 0.320894 0.494862
v -0.434066 1.922592 0.634797
v -0.434066 1.922592 0.634797
v -0.434066 1.922592 0.634797
v -0.434066 1.922592 0.634797
v 0.570053 3.573648 0.562213
v -0.569599 3.573648 0.562213
v 0.537668 1.537721 0.494862
v 0.537668 1.537721 0.494862
v -0.537214 1.537720 0.494862
v -0.537214 1.537720 0.494862
v 0.455685 3.203407 0.460022
v 0.455685 3.203407 0.460022
v 0.455685 3.203407 0.460022
v 0.455685 3.203407 0.460022
v -0.455231 3.203407 0.460022
v -0.455231 3.203407 0.460022
v -0.455231 3.203407 0.460022
v -0.455231 3.203407 0.460022
v -0.434066 1.928467 0.481185
v -0.434066 1.928467 0.481185
v -0.434066 1.928467 0.481185
v 0.531599 1.837368 0.620426
v 0.531599 1.837368 0.620426
v 0.531599 1.837368 0.620426
v -0.531145 1.837368 0.620426
v -0.531145 1.837368 0.620426
v -0.531145 1.837368 0.620426
v -0.227502 1.921782 0.684793
v -0.227502 1.921782 0.684793
v 0.227956 1.921782 0.678709
v -0.415448 3.203407 0.620426
v -0.415448 3.203407 0.620426
v -0.415448 3.203407 0.620426
v 0.417424 3.203407 0.620426
v 0.417424 3.203407 0.620426
v 0.417424 3.203407 0.620426
v -0.455231 1.965602 0.638193
v -0.455231 1.965602 0.638193
v -0.455231 1.965602 0.638193
v -0.455231 3.151472 0.620426
v -0.455231 3.151472 0.620426
v -0.455231 3.151472 0.620426
v 0.455685 1.966890 0.638193
v 0.455685 1.966890 0.638193
v 0.455685 1.966890 0.638193
v 0.455685 3.156627 0.620426
v 0.455685 3.156627 0.620426
v 0.455685 3.156627 0.620426
v 0.455685 1.929277 0.460022
v 0.455685 1.929277 0.460022
v 0.455685 1.929277 0.460022
v -0.455231 1.929277 0.460022
v -0.455231 1.929277 0.460022
v -0.455231 1.929277 0.460022
v -0.455231 1.921782 0.655961
v -0.455231 1.921782 0.655961
v -0.455231 1.921782 0.655961
v -0.455231 1.921782 0.655961
v 0.455685 1.921782 0.655961
v 0.455685 1.921782 0.655961
v 0.455685 1.921782 0.655961
v 0.455685 1.921782 0.655961
v 0.434520 1.922592 0.634797
v 0.434520 1.922592 0.634797
v 0.434520 1.922592 0.634797
v 0.434520 1.922592 0.634797
v 0.434520 1.928467 0.481185
v 0.434520 1.928467 0.481185
v 0.434520 1.928467 0.481185
v 0.434520 1.862559 0.626591
v 0.434520 1.862559 0.626591
v 0.434520 1.862559 0.626591
v -0.434066 1.862559 0.616411
v -0.434066 1.862559 0.616411
v -0.434066 1.862559 0.616411
v 0.434520 1.868434 0.479465
v 0.434520 1.868434 0.479465
v 0.434520 1.868434 0.479465
v -0.434066 1.868434 0.479465
v -0.434066 1.868434 0.479465
v -0.434066 1.868434 0.479465
v 0.434520 1.925530 0.557991
v -0.434066 1.925530 0.557991
v -0.434066 1.926998 0.519588
v -0.434066 1.924061 0.596394
v 0.434520 1.927733 0.493859
v 0.434520 1.927733 0.493859
v -0.434066 1.927733 0.493859
v -0.434066 1.927733 0.493859
v 0.586249 3.322271 -0.562151
v 0.586249 3.322271 0.546925
v -0.584785 3.322871 0.547143
v -0.584785 3.322871 -0.562369
v 0.533581 0.004370 -0.540967
v 0.533581 0.004370 0.525741
v -0.533127 0.004370 -0.540967
v -0.533127 0.004370 0.525741
v 0.586249 0.320226 0.546925
v -0.584785 0.321886 0.547143
v 0.628266 0.073078 0.620426
v 0.628266 0.073078 0.620426
v 0.628266 0.073078 0.620426
v 0.628266 0.073078 0.620426
v 0.628266 0.073078 0.620426
v 0.536768 0.324473 -0.562380
v 0.536768 3.322435 -0.562380
v 0.628265 3.524218 0.620426
v 0.628265 3.524218 0.620426
v 0.628265 3.524218 0.620426
v 0.628265 3.524218 0.620426
v 0.628265 1.786643 0.620426
v 0.628265 1.786643 0.620426
v -0.627811 1.786643 0.620426
v -0.627811 1.786643 0.620426
v -0.627811 0.073078 0.620426
v -0.627811 0.073078 0.620426
v -0.627811 0.073078 0.620426
v -0.627811 0.073078 0.620426
v -0.627811 0.073078 0.620426
v -0.536313 0.324473 -0.562380
v -0.627812 3.524218 0.620426
v -0.627812 3.524218 0.620426
v -0.627812 3.524218 0.620426
v -0.627812 3.524218 0.620426
v -0.536314 3.322435 -0.562380
v 0.434520 1.923326 0.615596
v 0.434520 1.924061 0.596394
v 0.434520 1.924795 0.577193
v 0.434520 1.926264 0.538790
v 0.434520 1.926998 0.519588
v 0.434520 1.926998 0.519588
v 0.434520 1.926998 0.519588
v -0.455231 1.925529 0.557991
v -0.434066 1.923326 0.615596
v -0.434066 1.924795 0.577193
v -0.434066 1.926264 0.538790
v 0.000227 1.786643 0.620426
v 0.000227 1.862559 0.621501
v 0.628266 0.073078 -0.635651
v 0.628266 0.073078 -0.635651
v 0.628266 0.073078 -0.635651
v 0.628266 0.073078 -0.635651
v 0.628266 0.073078 -0.635651
v 0.628265 3.524218 -0.635651
v 0.628265 3.524218 -0.635651
v 0.628265 3.524218 -0.635651
v 0.628265 3.524218 -0.635651
v 0.628265 3.524218 -0.635651
v -0.627812 3.524218 -0.635651
v -0.627812 3.524218 -0.635651
v -0.627812 3.524218 -0.635651
v -0.627812 3.524218 -0.635651
v -0.627812 3.524218 -0.635651
v -0.627811 0.073078 -0.635651
v -0.627811 0.073078 -0.635651
v -0.627811 0.073078 -0.635651
v -0.627811 0.073078 -0.635651
v -0.627811 0.073078 -0.635651
vn 0.7789 -0.5966 -0.1932
vn -0.0000 0.9993 0.0382
vn 0.2507 0.0750 0.9652
vn 0.6446 0.2802 0.7114
vn 0.0450 -0.0459 0.9979
vn 0.2732 0.9223 -0.2732
vn -0.2732 0.9223 -0.2732
vn -0.2732 0.9223 0.2732
vn 0.2732 0.9223 0.2732
vn -0.6484 0.2861 0.7055
vn -0.2533 0.0773 0.9643
vn -0.0462 -0.0481 0.9978
vn 0.2421 -0.9396 -0.2421
vn -0.2421 -0.9396 -0.2421
vn -0.0000 -0.8094 -0.5873
vn -0.7612 -0.6226 -0.1816
vn -0.2799 -0.1188 -0.9526
vn -0.2876 0.0936 -0.9532
vn 0.2876 0.0936 -0.9532
vn 0.2799 -0.1188 -0.9526
vn -0.6473 0.7623 -0.0000
vn -0.0000 0.2798 -0.9601
vn -0.2421 -0.9396 0.2421
vn 0.2421 -0.9396 0.2421
vn -0.0000 -0.8094 0.5873
vn -0.9712 -0.0682 0.2283
vn -0.9708 0.0536 0.2339
vn -0.9708 0.0536 -0.2339
vn -0.9712 -0.0682 -0.2283
vn -0.0000 -0.3413 -0.9400
vn -0.0000 0.7623 0.6473
vn -0.0000 0.7623 -0.6473
vn 1.0000 -0.0000 -0.0000
vn -0.9770 -0.1557 -0.1457
vn -0.9770 -0.1557 0.1457
vn 0.9781 -0.1518 0.1420
vn 0.9781 -0.1518 -0.1420
vn 0.9725 -0.0663 -0.2234
vn 0.9725 -0.0663 0.2234
vn -0.9835 0.1345 0.1208
vn -0.9835 0.1345 -0.1208
vn -0.5873 -0.8094 -0.0000
vn -0.0797 0.0046 0.9968
vn -0.0462 -0.0480 0.9978
vn -0.0000 -0.1987 0.9801
vn -0.0000 -0.2277 0.9737
vn 0.0451 -0.0458 0.9979
vn 0.0790 0.0045 0.9969
vn 0.2507 0.0750 0.9651
vn -0.0208 -0.5656 0.8244
vn -0.0511 -0.4828 0.8743
vn -0.0463 -0.0481 0.9978
vn -0.0000 -1.0000 -0.0000
vn 0.0451 -0.0459 0.9979
vn 0.0408 -0.4641 0.8848
vn 0.0232 -0.5463 0.8373
vn 0.9721 0.0527 0.2287
vn 0.9721 0.0527 -0.2287
vn 0.0016 0.2162 -0.9764
vn 0.0077 0.1628 -0.9866
vn -1.0000 -0.0000 -0.0000
vn 0.6473 0.7623 -0.0000
vn -0.0000 0.9996 0.0285
vn -0.0000 -0.2508 0.9680
vn -0.0000 0.2518 0.9678
vn 0.5873 -0.8094 -0.0000
vn -0.0000 -0.0000 1.0000
vn -0.0000 0.4520 0.8920
vn 0.9841 0.1320 -0.1188
vn 0.9841 0.1320 0.1188
vn 0.0041 0.9992 0.0393
vn -0.0002 0.9993 0.0378
vn 0.0056 0.9992 0.0392
vn 0.0041 0.9992 0.0394
vn 0.0056 0.9992 0.0393
vn -0.0002 0.9993 0.0379
vn -0.0000 0.9994 0.0354
vn -0.0000 1.0000 -0.0000
vn -0.0000 0.9994 0.0359
vn 0.8109 -0.0000 0.5851
vn 0.6251 -0.0000 -0.7806
vn 0.0075 0.2678 -0.9634
vn -0.0005 0.9992 0.0399
vn -0.0002 0.9991 0.0413
vn -0.0005 0.9991 0.0428
vn -0.0000 -0.0286 0.9996
vn -0.6251 -0.0000 -0.7806
vn -0.8109 -0.0000 0.5851
vt 0.674022 0.102059
vt 0.710462 0.111114
vt 0.710541 0.101635
vt 0.590047 0.302807
vt 0.590047 0.105451
vt 0.585684 0.105451
vt 0.585684 0.302807
vt 0.081598 0.135176
vt 0.077900 0.133460
vt 0.077900 0.152473
vt 0.962506 0.962462
vt 0.962506 0.703516
vt 0.703575 0.703516
vt 0.703575 0.962462
vt 0.174726 0.133512
vt 0.171028 0.135226
vt 0.174726 0.152526
vt 0.285727 0.953517
vt 0.045014 0.954030
vt 0.024312 0.975688
vt 0.307757 0.975084
vt 0.710533 0.307241
vt 0.710462 0.299059
vt 0.674022 0.307616
vt 0.279113 0.376499
vt 0.044345 0.376499
vt 0.044522 0.620319
vt 0.279291 0.620319
vt 0.975688 0.690289
vt 0.690305 0.690289
vt 0.024312 0.355710
vt 0.024520 0.641108
vt 0.045014 0.711698
vt 0.285727 0.711185
vt 0.307757 0.689731
vt 0.024312 0.690336
vt 0.625293 0.958997
vt 0.625293 0.710826
vt 0.373281 0.710800
vt 0.373281 0.958971
vt 0.299324 0.641108
vt 0.299116 0.355710
vt 0.690305 0.975688
vt 0.975688 0.975688
vt 0.215548 0.201149
vt 0.171028 0.201769
vt 0.171028 0.307087
vt 0.207474 0.302794
vt 0.211511 0.204771
vt 0.356380 0.975659
vt 0.641682 0.975688
vt 0.690402 0.356239
vt 0.690402 0.641638
vt 0.706804 0.624938
vt 0.706804 0.372939
vt 0.641682 0.690291
vt 0.356380 0.690261
vt 0.387205 0.602425
vt 0.495877 0.619674
vt 0.485261 0.602425
vt 0.500072 0.641638
vt 0.500072 0.498938
vt 0.495877 0.378203
vt 0.386779 0.395452
vt 0.485155 0.395452
vt 0.370875 0.137164
vt 0.364325 0.085760
vt 0.356380 0.067797
vt 0.356380 0.307616
vt 0.364325 0.291317
vt 0.369493 0.239939
vt 0.269191 0.271859
vt 0.264171 0.275967
vt 0.264224 0.307087
vt 0.269191 0.306765
vt 0.954950 0.372939
vt 0.954950 0.624938
vt 0.841460 0.208935
vt 0.846983 0.110249
vt 0.841700 0.110254
vt 0.264171 0.222914
vt 0.269141 0.223235
vt 0.269161 0.189814
vt 0.264171 0.188020
vt 0.264171 0.214191
vt 0.264192 0.220035
vt 0.598774 0.105451
vt 0.594411 0.105451
vt 0.594411 0.302807
vt 0.598774 0.302807
vt 0.607500 0.105451
vt 0.603137 0.105451
vt 0.603137 0.302807
vt 0.607500 0.302807
vt 0.617710 0.105451
vt 0.611864 0.105451
vt 0.611864 0.302807
vt 0.617710 0.302807
vt 0.520710 0.621053
vt 0.621246 0.621053
vt 0.621246 0.376823
vt 0.520710 0.376823
vt 0.356380 0.356239
vt 0.356380 0.641638
vt 0.382910 0.593386
vt 0.382910 0.404145
vt 0.500072 0.356239
vt 0.641778 0.641638
vt 0.641778 0.356239
vt 0.975669 0.641638
vt 0.525283 0.307616
vt 0.525283 0.100642
vt 0.419916 0.100642
vt 0.419916 0.307616
vt 0.975669 0.356239
vt 0.625399 0.100642
vt 0.603137 0.100642
vt 0.620590 0.105451
vt 0.580875 0.100642
vt 0.574324 0.152385
vt 0.580875 0.307616
vt 0.625399 0.307616
vt 0.620590 0.302807
vt 0.122405 0.201721
vt 0.077900 0.201096
vt 0.081936 0.204827
vt 0.085972 0.303214
vt 0.122405 0.307087
vt 0.847127 0.307604
vt 0.759164 0.307616
vt 0.792596 0.307616
vt 0.792596 0.110260
vt 0.761476 0.110260
vt 0.024312 0.109731
vt 0.024312 0.307087
vt 0.029277 0.307087
vt 0.029277 0.109731
vt 0.841219 0.307616
s 0
f 23/1/1 39/2/1 48/3/1
f 134/4/2 142/5/2 11/6/2 73/7/2
s 1
f 52/8/3 69/9/4 32/10/5
f 2/11/6 6/12/7 14/13/8 13/14/9
f 65/15/10 46/16/11 33/17/12
f 102/18/13 104/19/14 164/20/15 149/21/15
s 0
f 54/22/16 42/23/16 19/24/16
s 1
f 114/25/17 113/26/18 128/27/19 133/28/20
f 160/29/21 130/30/21 14/13/8 6/12/7
f 147/31/22 162/32/22 128/27/19 113/26/18
f 105/33/23 103/34/24 110/35/25 125/36/25
f 101/37/26 5/38/27 107/39/28 100/40/29
f 157/41/30 152/42/30 114/25/17 133/28/20
f 131/30/31 117/43/31 13/14/9 14/13/8
f 154/44/32 159/29/32 6/12/7 2/11/6
s 0
f 63/45/33 60/46/33 24/47/33 49/48/33 45/49/33
s 1
f 129/50/34 161/51/35 101/37/26 100/40/29
f 156/52/36 115/53/37 99/54/38 98/55/39
f 166/56/40 123/57/41 107/39/28 5/38/27
f 104/19/14 105/33/23 124/36/42 165/20/42
f 50/58/43 34/59/44 47/60/11
f 122/61/45 145/62/46 30/63/47 34/59/44
f 56/64/48 53/65/49 30/63/47
f 37/66/50 66/67/51 35/68/52
s 0
f 40/2/53 25/1/53 21/24/53 43/23/53
s 1
f 31/69/54 70/70/55 38/71/56
s 0
f 10/72/33 82/73/33 87/74/33 27/75/33
s 1
f 35/68/52 31/69/54 38/71/56 37/66/50
f 1/76/57 98/55/39 99/54/38 106/77/58
f 146/78/59 71/79/60 78/80/60
s 0
f 75/81/61 84/82/61 79/83/61 72/84/61 138/85/61 94/86/61 139/85/61
f 143/87/2 93/88/2 135/89/2 136/90/2
f 144/91/2 91/92/2 90/93/2 137/94/2
s 1
f 116/43/62 155/44/62 2/11/6 13/14/9
s 0
f 96/95/63 92/96/63 140/97/63 95/98/63
s 1
f 18/99/64 8/100/65 4/101/65 16/102/64
f 103/34/24 102/18/13 150/21/66 109/35/66
f 161/51/35 166/56/40 5/38/27 101/37/26
f 118/103/67 132/104/67 122/61/45 34/59/44 50/58/43 41/105/67 44/106/67 56/64/48 30/63/47 145/62/46 120/107/45
f 127/108/68 112/109/68 4/101/65 8/100/65
f 108/110/69 106/77/58 99/54/38 115/53/37
f 18/99/64 16/102/64 120/107/45 145/62/46 122/61/45
s 0
f 22/111/67 26/112/67 62/113/67 59/114/67
s 1
f 123/57/41 129/50/34 100/40/29 107/39/28
f 108/110/69 151/115/70 1/76/57 106/77/58
f 61/116/71 141/117/72 97/95/73 28/118/74
s 0
f 74/7/2 12/6/2 97/95/75 141/117/76 64/119/77 36/120/78 68/121/79 58/122/2 61/116/71 28/118/74 76/123/2
f 121/61/80 126/108/80 7/100/80 17/99/80
s 1
f 151/115/70 156/52/36 98/55/39 1/76/57
f 163/32/81 158/41/81 133/28/20 128/27/19
s 0
f 57/124/61 67/125/61 51/126/61 55/127/61 20/128/61
s 1
f 71/79/60 146/78/59 9/129/82
f 80/130/83 85/131/84 88/132/84 83/133/85
s 0
f 89/134/86 86/135/86 77/136/86 29/137/86
s 1
f 9/129/82 146/78/59 81/138/82
f 104/19/14 102/18/13 103/34/24 105/33/23
f 153/42/87 148/31/87 113/26/18 114/25/17
s 0
f 111/109/88 119/107/88 15/102/88 3/101/88
o Object_6
v 0.192083 2.788588 0.569210
v 0.192083 2.837262 0.425418
v 0.171036 2.778515 0.569210
v 0.171036 2.778515 0.569210
v 0.141245 2.812933 0.425418
v 0.141245 2.812933 0.425418
v 0.162318 2.754199 0.569210
v 0.120187 2.754199 0.425418
v 0.171036 2.729882 0.569210
v 0.171036 2.729882 0.569210
v 0.141245 2.695464 0.425418
v 0.141245 2.695464 0.425418
v 0.192083 2.719810 0.569210
v 0.192083 2.671136 0.425418
v 0.213131 2.729882 0.569210
v 0.213131 2.729882 0.569210
v 0.242921 2.695464 0.425418
v 0.242921 2.695464 0.425418
v 0.221849 2.754199 0.569210
v 0.263979 2.754199 0.425418
v 0.213130 2.778515 0.569210
v 0.213130 2.778515 0.569210
v 0.242921 2.812933 0.425418
v 0.242921 2.812933 0.425418
v 0.193034 2.629171 0.584931
v 0.181920 2.629171 0.580327
v 0.181920 2.629171 0.580327
v 0.193034 2.813314 0.612315
v 0.193034 2.813314 0.612315
v 0.204147 2.629171 0.580327
v 0.204147 2.629171 0.580327
v 0.208751 2.629171 0.569213
v 0.204148 2.629171 0.558100
v 0.204148 2.629171 0.558100
v 0.177316 2.629171 0.569213
v 0.181920 2.629171 0.558100
v 0.181920 2.629171 0.558100
v 0.193034 2.629171 0.553496
v 0.193034 2.813314 0.526112
v 0.193034 2.813314 0.526112
v 0.162556 2.813314 0.538736
v 0.162556 2.813314 0.538736
v 0.162556 2.813314 0.538736
v 0.223511 2.813314 0.538736
v 0.223511 2.813314 0.538736
v 0.223511 2.813314 0.538736
v 0.193034 2.813314 0.569213
v 0.149932 2.813314 0.569213
v 0.149932 2.813314 0.569213
v 0.236135 2.813314 0.569213
v 0.236135 2.813314 0.569213
v 0.223511 2.813314 0.599691
v 0.223511 2.813314 0.599691
v 0.223511 2.813314 0.599691
v 0.162556 2.813314 0.599691
v 0.162556 2.813314 0.599691
v 0.162556 2.813314 0.599691
v 0.193034 2.648674 0.584931
v 0.193034 2.648674 0.584931
v 0.181920 2.648674 0.580327
v 0.181920 2.648674 0.580327
v 0.181920 2.648674 0.580327
v 0.204147 2.648674 0.580327
v 0.204147 2.648674 0.580327
v 0.204147 2.648674 0.580327
v 0.193034 2.648674 0.569213
v 0.208751 2.648674 0.569213
v 0.208751 2.648674 0.569213
v 0.204147 2.648674 0.558100
v 0.204147 2.648674 0.558100
v 0.204147 2.648674 0.558100
v 0.177316 2.648674 0.569213
v 0.177316 2.648674 0.569213
v 0.181920 2.648674 0.558100
v 0.181920 2.648674 0.558100
v 0.181920 2.648674 0.558100
v 0.193034 2.648674 0.553496
v 0.193034 2.648674 0.553496
vn 0.0001 0.5103 -0.8600
vn -0.6081 0.5103 -0.6082
vn -0.0000 1.0000 -0.0000
vn 0.6082 0.5103 -0.6081
vn -0.6082 0.5103 0.6081
vn -0.0001 0.5103 0.8600
vn 0.6081 0.5103 0.6082
vn -0.8600 0.5103 -0.0001
vn 0.8600 0.5103 0.0001
vn -0.0000 -0.5749 -0.8182
vn 0.5785 -0.5749 -0.5786
vn -0.0000 -1.0000 -0.0000
vn -0.5786 -0.5749 -0.5785
vn -0.5785 -0.5749 0.5786
vn -0.8182 -0.5749 -0.0000
vn -0.0000 -0.5749 0.8182
vn 0.8182 -0.5749 -0.0000
vn 0.5786 -0.5749 0.5785
vn -0.0000 0.9472 0.3206
vn -0.7215 0.6245 0.2990
vn -0.9597 -0.0000 0.2812
vn -0.7215 -0.6245 0.2990
vn -0.0000 -0.9472 0.3206
vn 0.7215 -0.6245 0.2990
vn 0.9597 -0.0000 0.2812
vn 0.7215 0.6245 0.2990
vn 0.1292 -0.9832 -0.1291
vn 0.1824 -0.9832 -0.0000
vn -0.8182 -0.5750 -0.0000
vn -0.0000 -0.9831 0.1829
vn -0.6081 0.5103 0.6081
vn -0.1291 -0.9832 0.1292
vn 0.1291 -0.9832 0.1292
vn 0.6081 0.5103 0.6081
vn -0.1291 -0.9832 -0.1292
vn -0.0000 -0.9831 -0.1829
vn -0.0000 -0.5750 0.8182
vn 0.5786 -0.5749 -0.5785
vn -0.0000 -0.5750 -0.8182
vn 0.1291 -0.9832 -0.1292
vn -0.5786 -0.5749 0.5785
vn -0.1292 -0.9832 0.1291
vn -0.1824 -0.9832 -0.0000
vn 0.1292 -0.9832 0.1291
vn -0.5785 -0.5749 -0.5786
vn -0.1292 -0.9832 -0.1291
vn 0.5785 -0.5749 0.5786
vn -0.6081 0.5103 -0.6081
vn 0.6081 0.5103 -0.6081
vn 0.8600 0.5104 0.0001
vt 0.889078 0.629178
vt 0.889078 0.590562
vt 0.842473 0.609878
vt 0.861777 0.656487
vt 0.823168 0.563268
vt 0.795868 0.590578
vt 0.795868 0.629193
vt 0.861777 0.563262
vt 0.823168 0.656494
vt 0.399769 0.084430
vt 0.409715 0.094395
vt 0.416748 0.077406
vt 0.399769 0.070351
vt 0.423781 0.060417
vt 0.409715 0.060404
vt 0.433727 0.070382
vt 0.423781 0.094408
vt 0.433727 0.084461
vt 0.633462 0.212141
vt 0.633462 0.381491
vt 0.692974 0.380959
vt 0.658100 0.211920
vt 0.609749 0.484486
vt 0.573950 0.654805
vt 0.632401 0.656494
vt 0.633949 0.485185
vt 0.692873 0.654805
vt 0.658985 0.484486
vt 0.658268 0.948503
vt 0.693141 0.778612
vt 0.633629 0.777349
vt 0.633629 0.947980
vt 0.574117 0.778612
vt 0.608991 0.948503
vt 0.084773 0.482108
vt 0.051497 0.653239
vt 0.112968 0.655937
vt 0.110222 0.483225
vt 0.170041 0.653239
vt 0.133851 0.482108
vt 0.608823 0.211920
vt 0.573950 0.380959
vt 0.249002 0.759305
vt 0.261350 0.759791
vt 0.435446 0.759928
vt 0.435446 0.948503
vt 0.471123 0.947296
vt 0.448456 0.759488
vt 0.422436 0.759488
vt 0.399769 0.947296
vt 0.074164 0.758932
vt 0.087174 0.759526
vt 0.100184 0.758932
vt 0.421358 0.468531
vt 0.434706 0.468753
vt 0.274867 0.759305
vt 0.447317 0.468531
vt 0.051497 0.946873
vt 0.087174 0.948503
vt 0.122851 0.946873
vt 0.399769 0.655885
vt 0.436373 0.656494
vt 0.259705 0.948503
vt 0.296775 0.947169
vt 0.225846 0.947169
vt 0.470956 0.655885
s 1
usemtl Material.002
f 205/139/89 208/140/90 213/141/91
f 210/142/92 205/139/89 213/141/91
f 221/143/93 194/144/94 213/141/91
f 194/144/94 218/145/95 213/141/91
f 215/146/96 221/143/93 213/141/91
f 208/140/90 215/146/96 213/141/91
f 216/147/97 210/142/92 213/141/91
f 218/145/95 216/147/97 213/141/91
f 224/148/98 226/149/99 232/150/100
f 229/151/101 224/148/98 232/150/100
f 235/152/102 233/153/103 232/150/100
f 233/153/103 229/151/101 232/150/100
f 243/154/104 235/152/102 232/150/100
f 226/149/99 238/155/105 232/150/100
f 238/155/105 240/156/106 232/150/100
f 240/156/106 243/154/104 232/150/100
f 167/157/107 168/158/107 171/159/108
f 167/157/107 171/159/108 169/160/108
f 170/161/108 172/162/108 174/163/109
f 170/161/108 174/163/109 173/164/109
f 173/164/109 174/163/109 177/165/110
f 173/164/109 177/165/110 175/166/110
f 176/167/110 178/168/110 180/169/111
f 176/167/110 180/169/111 179/170/111
f 179/170/111 180/169/111 183/171/112
f 179/170/111 183/171/112 181/172/112
f 182/173/112 184/174/112 186/175/113
f 182/173/112 186/175/113 185/176/113
f 185/176/113 186/175/113 189/177/114
f 185/176/113 189/177/114 187/178/114
f 188/179/114 190/180/114 168/158/107
f 188/179/114 168/158/107 167/157/107
f 200/181/115 198/182/116 234/182/117
f 200/181/115 234/182/117 237/181/102
f 191/183/118 195/184/94 223/185/119
f 191/183/118 223/185/119 193/186/120
f 196/187/121 219/188/122 195/184/94
f 196/187/121 195/184/94 191/183/118
f 203/189/123 204/190/124 244/190/125
f 203/189/123 244/190/125 241/189/106
f 191/183/118 193/186/120 228/186/126
f 191/183/118 228/186/126 225/183/127
f 204/190/124 199/191/128 236/191/129
f 204/190/124 236/191/129 244/190/125
f 196/187/121 191/183/118 225/183/127
f 196/187/121 225/183/127 231/187/101
f 192/192/130 201/193/131 239/193/105
f 192/192/130 239/193/105 227/192/99
f 198/182/116 197/194/132 230/194/133
f 198/182/116 230/194/133 234/182/117
f 201/193/131 202/195/134 242/195/135
f 201/193/131 242/195/135 239/193/105
f 203/189/123 209/196/136 206/197/89
f 203/189/123 206/197/89 204/190/124
f 204/190/124 206/197/89 211/198/137
f 204/190/124 211/198/137 199/191/128
f 192/192/130 222/199/119 214/200/96
f 192/192/130 214/200/96 201/193/131
f 198/182/116 217/201/138 220/202/122
f 198/182/116 220/202/122 197/194/132
f 200/181/115 212/203/137 217/201/138
f 200/181/115 217/201/138 198/182/116
f 201/193/131 214/200/96 207/204/136
f 201/193/131 207/204/136 202/195/134
o Object_8
v 0.210453 2.844666 0.546299
v 0.210453 2.844666 0.546299
v 0.210453 2.844666 0.598430
v 0.210453 2.844666 0.598430
v 0.210453 2.847213 0.546299
v 0.210453 2.847213 0.546299
v 0.176082 2.844666 0.546299
v 0.176082 2.844666 0.546299
v 0.176082 2.847213 0.546299
v 0.176082 2.847213 0.546299
v 0.176082 2.844666 0.598430
v 0.176082 2.844666 0.598430
v 0.176082 2.852802 0.598430
v 0.176082 2.852802 0.598430
v 0.176082 2.851124 0.640141
v 0.176082 2.851124 0.640141
v 0.176082 2.851124 0.690161
v 0.176082 2.851124 0.690161
v 0.176082 2.851124 0.690161
v 0.176082 2.859260 0.640141
v 0.176082 2.859260 0.640141
v 0.210453 2.851124 0.640141
v 0.210453 2.851124 0.640141
v 0.210453 2.851124 0.690161
v 0.210453 2.851124 0.690161
v 0.210453 2.851124 0.690161
v 0.210453 2.859260 0.640141
v 0.210453 2.859260 0.640141
v 0.210453 2.859260 0.690161
v 0.210453 2.859260 0.690161
v 0.210453 2.859260 0.690161
v 0.210453 2.852802 0.598430
v 0.210453 2.852802 0.598430
v 0.176082 2.859260 0.690161
v 0.176082 2.859260 0.690161
v 0.176082 2.859260 0.690161
v 0.217572 2.798901 0.544910
v 0.217572 2.798901 0.544910
v 0.217572 2.798901 0.593190
v 0.217572 2.798901 0.593190
v 0.217572 2.854680 0.544910
v 0.217572 2.854680 0.544910
v 0.217572 2.854680 0.544910
v 0.169292 2.798901 0.544910
v 0.169292 2.798901 0.544910
v 0.169292 2.798901 0.593190
v 0.169292 2.798901 0.593190
v 0.169292 2.854680 0.544910
v 0.169292 2.854680 0.544910
v 0.169292 2.854680 0.544910
v 0.169292 2.854680 0.593190
v 0.169292 2.854680 0.593190
v 0.169292 2.854680 0.593190
v 0.217571 2.854680 0.593190
v 0.217571 2.854680 0.593190
v 0.217571 2.854680 0.593190
vn 0.7561 -0.6545 -0.0000
vn 0.7738 0.6299 -0.0675
vn 0.7596 0.6449 -0.0845
vn 0.7423 -0.6681 0.0514
vn 0.7424 -0.6680 0.0515
vn -0.7424 -0.6680 0.0514
vn -0.7561 -0.6544 -0.0000
vn 0.7561 -0.6544 -0.0000
vn -0.7423 -0.6681 0.0515
vn -0.7596 0.6449 -0.0844
vn -0.7738 0.6299 -0.0675
vn -0.7561 -0.6545 -0.0000
vn 0.7699 -0.6363 0.0490
vn -0.7698 -0.6363 0.0491
vn -0.7698 -0.6364 0.0490
vn -0.7423 0.6681 -0.0515
vn 0.6031 -0.5220 0.6032
vn -0.6032 -0.5220 0.6031
vn -0.6031 -0.5220 0.6032
vn -0.6031 0.5221 0.6031
vn 0.7423 0.6681 -0.0514
vn 0.7698 -0.6364 0.0491
vn 0.6031 0.5220 0.6032
vn 0.6031 -0.5221 0.6031
vn -0.6031 0.5220 0.6032
vn 0.6032 0.5220 0.6031
vn 0.7424 0.6680 -0.0515
vn -0.7424 0.6680 -0.0515
vn 0.7597 0.6448 -0.0844
vn -0.7597 0.6448 -0.0844
vn 0.7738 0.6298 -0.0675
vn -0.7738 0.6298 -0.0675
vn 0.6032 -0.5220 0.6031
vn 0.6031 0.5221 0.6031
vn -0.6032 0.5220 0.6031
vn -0.6031 -0.5221 0.6031
vn 0.7071 -0.0000 -0.7071
vn 0.6031 0.5221 -0.6031
vn 0.7071 -0.0000 0.7071
vn -0.7071 -0.0000 -0.7071
vn -0.6031 0.5221 -0.6031
vn 0.6032 0.5220 -0.6031
vn -0.7071 -0.0000 0.7071
vn -0.6031 0.5220 -0.6032
vn 0.6031 0.5220 -0.6032
vn -0.6032 0.5220 -0.6031
vt 0.407809 0.197402
vt 0.405245 0.197584
vt 0.403314 0.258532
vt 0.411503 0.257951
vt 0.051497 0.271537
vt 0.091732 0.271537
vt 0.091732 0.210592
vt 0.051497 0.210592
vt 0.284997 0.548438
vt 0.293217 0.548963
vt 0.291278 0.487833
vt 0.288705 0.487669
vt 0.051497 0.320636
vt 0.091732 0.320636
vt 0.288555 0.597477
vt 0.296774 0.598002
vt 0.051497 0.379113
vt 0.091732 0.379113
vt 0.284997 0.655786
vt 0.293217 0.656311
vt 0.399769 0.307440
vt 0.407959 0.306859
vt 0.403314 0.365537
vt 0.411503 0.364956
vt 0.234961 0.211009
vt 0.194726 0.211009
vt 0.194726 0.269549
vt 0.234961 0.269549
vt 0.194726 0.318224
vt 0.234961 0.318224
vt 0.194726 0.379113
vt 0.234961 0.379113
vt 0.059713 0.067363
vt 0.051497 0.067363
vt 0.051497 0.107598
vt 0.059713 0.107598
vt 0.795968 0.324647
vt 0.795968 0.380936
vt 0.852146 0.381491
vt 0.852146 0.325202
vt 0.250899 0.051497
vt 0.194726 0.051497
vt 0.194726 0.108014
vt 0.250899 0.108015
vt 0.795968 0.165183
vt 0.795968 0.221653
vt 0.852353 0.221493
vt 0.852353 0.165024
vt 0.852640 0.948503
vt 0.852640 0.891986
vt 0.796136 0.891986
vt 0.796136 0.948503
vt 0.630278 0.052409
vt 0.573950 0.052409
vt 0.573950 0.108926
vt 0.630278 0.108926
s 1
usemtl Material.005
f 246/205/139 250/206/140 277/207/141
f 246/205/139 277/207/141 248/208/142
f 247/209/143 255/210/144 252/211/145
f 247/209/143 252/211/145 245/212/146
f 256/213/147 257/214/148 253/215/149
f 256/213/147 253/215/149 251/216/150
f 266/217/151 259/218/152 255/210/144
f 266/217/151 255/210/144 247/209/143
f 260/219/153 264/220/154 257/214/148
f 260/219/153 257/214/148 256/213/147
f 270/221/155 261/222/156 259/218/152
f 270/221/155 259/218/152 266/217/151
f 263/223/157 278/224/158 264/220/154
f 263/223/157 264/220/154 260/219/153
f 248/208/142 277/207/141 272/225/159
f 248/208/142 272/225/159 267/226/160
f 267/226/160 272/225/159 275/227/161
f 267/226/160 275/227/161 269/228/162
f 279/229/163 274/230/164 271/231/165
f 279/229/163 271/231/165 265/232/166
f 265/232/166 271/231/165 276/233/167
f 265/232/166 276/233/167 258/234/168
f 258/234/168 276/233/167 249/235/169
f 258/234/168 249/235/169 254/236/170
f 268/237/171 273/238/172 280/239/173
f 268/237/171 280/239/173 262/240/174
f 282/241/175 286/242/176 299/243/161
f 282/241/175 299/243/161 284/244/177
f 289/245/178 293/246/179 285/247/180
f 289/245/178 285/247/180 281/248/175
f 290/249/181 295/250/158 292/251/182
f 290/249/181 292/251/182 288/252/178
f 297/253/163 300/254/164 287/255/183
f 297/253/163 287/255/183 294/256/184
f 283/257/177 298/258/172 296/259/173
f 283/257/177 296/259/173 291/260/181
o Object_10
v 0.000000 -0.245675 -0.089651
v 0.000000 -0.245675 -0.089651
v -0.000000 0.245675 -0.133792
v 0.034308 -0.245675 -0.082826
v 0.034308 -0.245675 -0.082826
v 0.051200 0.245675 -0.123608
v 0.063393 -0.245675 -0.063393
v 0.063393 -0.245675 -0.063393
v 0.094606 0.245675 -0.094606
v 0.082826 -0.245675 -0.034308
v 0.082826 -0.245675 -0.034308
v 0.082826 -0.245675 -0.034308
v 0.123608 0.245675 -0.051200
v 0.123608 0.245675 -0.051200
v 0.089651 -0.245675 0.000000
v 0.089651 -0.245675 0.000000
v 0.133792 0.245675 -0.000000
v 0.082826 -0.245675 0.034308
v 0.082826 -0.245675 0.034308
v 0.123608 0.245675 0.051200
v 0.063393 -0.245675 0.063393
v 0.063393 -0.245675 0.063393
v 0.094606 0.245675 0.094606
v 0.034308 -0.245675 0.082826
v 0.034308 -0.245675 0.082826
v 0.034308 -0.245675 0.082826
v 0.051200 0.245675 0.123608
v 0.051200 0.245675 0.123608
v 0.000000 -0.245675 0.089651
v 0.000000 -0.245675 0.089651
v -0.000000 0.245675 0.133792
v -0.034308 -0.245675 0.082826
v -0.034308 -0.245675 0.082826
v -0.051200 0.245675 0.123608
v -0.063393 -0.245675 0.063393
v -0.063393 -0.245675 0.063393
v -0.063393 -0.245675 0.063393
v -0.094606 0.245675 0.094606
v -0.094606 0.245675 0.094606
v -0.082826 -0.245675 0.034308
v -0.082826 -0.245675 0.034308
v -0.123608 0.245675 0.051200
v -0.089651 -0.245675 0.000000
v -0.089651 -0.245675 0.000000
v -0.133792 0.245675 -0.000000
v -0.082826 -0.245675 -0.034308
v -0.082826 -0.245675 -0.034308
v -0.123608 0.245675 -0.051200
v -0.063393 -0.245675 -0.063393
v -0.063393 -0.245675 -0.063393
v -0.094606 0.245675 -0.094606
v -0.034308 -0.245675 -0.082826
v -0.034308 -0.245675 -0.082826
v -0.034308 -0.245675 -0.082826
v -0.051200 0.245675 -0.123608
v -0.051200 0.245675 -0.123608
v 0.000000 -0.245675 0.000000
v 0.000000 -0.226441 -0.069936
v 0.000000 -0.226441 -0.069936
v -0.000000 0.247499 -0.113486
v -0.000000 0.247499 -0.113486
v 0.026763 -0.226441 -0.064612
v 0.026763 -0.226441 -0.064612
v 0.043429 0.247499 -0.104847
v 0.043429 0.247499 -0.104847
v 0.049452 -0.226441 -0.049452
v 0.049452 -0.226441 -0.049452
v 0.080246 0.247499 -0.080246
v 0.080246 0.247499 -0.080246
v 0.064612 -0.226441 -0.026763
v 0.064612 -0.226441 -0.026763
v 0.064612 -0.226441 -0.026763
v 0.104847 0.247499 -0.043429
v 0.104847 0.247499 -0.043429
v 0.104847 0.247499 -0.043429
v 0.104847 0.247499 -0.043429
v 0.069936 -0.226441 0.000000
v 0.069936 -0.226441 0.000000
v 0.113486 0.247499 -0.000000
v 0.113486 0.247499 -0.000000
v 0.064612 -0.226441 0.026763
v 0.064612 -0.226441 0.026763
v 0.104847 0.247499 0.043429
v 0.104847 0.247499 0.043429
v 0.049452 -0.226441 0.049452
v 0.049452 -0.226441 0.049452
v 0.080246 0.247499 0.080246
v 0.080246 0.247499 0.080246
v 0.026763 -0.226441 0.064612
v 0.026763 -0.226441 0.064612
v 0.026763 -0.226441 0.064612
v 0.043429 0.247499 0.104847
v 0.043429 0.247499 0.104847
v 0.043429 0.247499 0.104847
v 0.043429 0.247499 0.104847
v 0.000000 -0.226441 0.069936
v 0.000000 -0.226441 0.069936
v -0.000000 0.247499 0.113486
v -0.000000 0.247499 0.113486
v -0.026763 -0.226441 0.064612
v -0.026763 -0.226441 0.064612
v -0.043429 0.247499 0.104847
v -0.043429 0.247499 0.104847
v -0.049452 -0.226441 0.049452
v -0.049452 -0.226441 0.049452
v -0.049452 -0.226441 0.049452
v -0.080246 0.247499 0.080246
v -0.080246 0.247499 0.080246
v -0.080246 0.247499 0.080246
v -0.080246 0.247499 0.080246
v -0.064612 -0.226441 0.026763
v -0.064612 -0.226441 0.026763
v -0.104847 0.247499 0.043429
v -0.104847 0.247499 0.043429
v -0.069936 -0.226441 0.000000
v -0.069936 -0.226441 0.000000
v -0.113486 0.247499 -0.000000
v -0.113486 0.247499 -0.000000
v -0.064612 -0.226441 -0.026763
v -0.064612 -0.226441 -0.026763
v -0.104847 0.247499 -0.043429
v -0.104847 0.247499 -0.043429
v -0.049452 -0.226441 -0.049452
v -0.049452 -0.226441 -0.049452
v -0.080246 0.247499 -0.080246
v -0.080246 0.247499 -0.080246
v -0.026763 -0.226441 -0.064612
v -0.026763 -0.226441 -0.064612
v -0.026763 -0.226441 -0.064612
v -0.043429 0.247499 -0.104847
v -0.043429 0.247499 -0.104847
v -0.043429 0.247499 -0.104847
v -0.043429 0.247499 -0.104847
v -0.000000 -0.225675 0.000000
vn 0.6613 -0.6983 -0.2740
vn 0.7158 -0.6983 -0.0000
vn -0.0000 -1.0000 -0.0000
vn -0.0000 -0.6983 0.7158
vn -0.2739 -0.6983 0.6613
vn -0.6613 -0.6983 -0.2739
vn -0.5062 -0.6983 -0.5061
vn 0.2739 -0.6983 -0.6613
vn 0.5061 -0.6983 -0.5062
vn 0.5062 -0.6983 0.5061
vn 0.2740 -0.6983 0.6613
vn -0.6613 -0.6983 0.2740
vn -0.7158 -0.6983 -0.0000
vn 0.6613 -0.6983 0.2739
vn -0.5061 -0.6983 0.5062
vn -0.2740 -0.6983 -0.6613
vn -0.0000 -0.6983 -0.7158
vn -0.6575 0.7025 0.2723
vn -0.0000 1.0000 -0.0000
vn -0.7117 0.7025 -0.0000
vn -0.0000 0.7025 -0.7117
vn 0.2724 0.7025 -0.6575
vn 0.6575 0.7025 0.2724
vn 0.5032 0.7025 0.5033
vn -0.2724 0.7025 0.6575
vn -0.5033 0.7025 0.5032
vn -0.5032 0.7025 -0.5033
vn -0.2723 0.7025 -0.6575
vn 0.6575 0.7025 -0.2723
vn 0.7117 0.7025 -0.0000
vn -0.6575 0.7025 -0.2724
vn 0.5033 0.7025 -0.5032
vn 0.2723 0.7025 0.6575
vn -0.0000 0.7025 0.7117
vn -0.0000 0.6008 -0.7994
vn 0.3059 0.6008 -0.7385
vn 0.5652 0.6008 -0.5652
vn 0.5061 -0.6983 -0.5061
vn 0.7385 0.6008 -0.3059
vn 0.6613 -0.6983 -0.2739
vn 0.7994 0.6008 -0.0000
vn 0.7385 0.6008 0.3059
vn 0.5652 0.6008 0.5652
vn 0.5061 -0.6983 0.5061
vn 0.3060 0.6008 0.7385
vn 0.2739 -0.6983 0.6613
vn 0.3059 0.6008 0.7385
vn -0.0000 0.6008 0.7994
vn -0.3059 0.6008 0.7385
vn -0.5652 0.6008 0.5653
vn -0.5061 -0.6983 0.5061
vn -0.5653 0.6008 0.5652
vn -0.7385 0.6008 0.3059
vn -0.6613 -0.6983 0.2739
vn -0.7994 0.6008 -0.0000
vn -0.7385 0.6008 -0.3059
vn -0.5652 0.6008 -0.5652
vn -0.5061 -0.6983 -0.5061
vn -0.3059 0.6008 -0.7385
vn -0.2739 -0.6983 -0.6613
vn -0.0000 0.7025 0.7116
vn -0.2723 0.7025 0.6575
vn -0.2228 0.8132 0.5377
vn -0.0000 0.8132 0.5820
vn -0.5032 0.7025 0.5032
vn -0.4116 0.8132 0.4115
vn -0.5377 0.8132 0.2227
vn -0.7116 0.7025 -0.0000
vn -0.5820 0.8132 -0.0000
vn -0.6575 0.7025 -0.2723
vn -0.5377 0.8132 -0.2228
vn -0.5032 0.7025 -0.5032
vn -0.4115 0.8132 -0.4116
vn -0.2227 0.8132 -0.5377
vn -0.0000 0.7025 -0.7116
vn -0.0000 0.8132 -0.5820
vn 0.2723 0.7025 -0.6575
vn 0.2228 0.8132 -0.5377
vn 0.5032 0.7025 -0.5032
vn 0.4116 0.8132 -0.4116
vn 0.6575 0.7025 -0.2724
vn 0.5378 0.8132 -0.2227
vn 0.4116 0.8132 -0.4115
vn 0.7116 0.7025 -0.0000
vn 0.5820 0.8132 -0.0000
vn 0.6575 0.7025 0.2723
vn 0.5377 0.8132 0.2228
vn 0.5032 0.7025 0.5032
vn 0.4115 0.8132 0.4116
vn 0.2227 0.8132 0.5377
vn -0.0000 0.8131 0.5821
vn -0.2227 0.8131 0.5378
vn -0.4116 0.8131 0.4116
vn -0.5378 0.8131 0.2227
vn -0.5821 0.8131 -0.0000
vn -0.5378 0.8131 -0.2227
vn -0.4116 0.8131 -0.4116
vn -0.2227 0.8131 -0.5378
vn -0.0000 0.8131 -0.5821
vn 0.2227 0.8131 -0.5378
vn 0.4117 0.8131 -0.4116
vn 0.5378 0.8131 -0.2228
vn 0.5821 0.8131 -0.0000
vn 0.5378 0.8131 0.2227
vn 0.4116 0.8131 0.4116
vn 0.2227 0.8131 0.5378
vt 0.848679 0.564637
vt 0.828294 0.585022
vt 0.889726 0.626070
vt 0.848679 0.687502
vt 0.875312 0.698534
vt 0.962191 0.640484
vt 0.962191 0.611656
vt 0.904140 0.553605
vt 0.875312 0.553605
vt 0.817262 0.640484
vt 0.828294 0.667117
vt 0.930774 0.687502
vt 0.951159 0.667117
vt 0.817262 0.611656
vt 0.904140 0.698534
vt 0.951159 0.585022
vt 0.930774 0.564637
vt 0.637970 0.777418
vt 0.633104 0.960699
vt 0.676123 0.960175
vt 0.666796 0.777067
vt 0.715880 0.960699
vt 0.693436 0.777418
vt 0.746322 0.962191
vt 0.713834 0.778418
vt 0.606668 0.514761
vt 0.588694 0.698534
vt 0.628426 0.697042
vt 0.633291 0.513761
vt 0.671445 0.696518
vt 0.662117 0.513410
vt 0.711202 0.697042
vt 0.688757 0.513761
vt 0.741644 0.698534
vt 0.709156 0.514761
vt 0.058020 0.226451
vt 0.037809 0.409991
vt 0.077557 0.408983
vt 0.084654 0.225776
vt 0.120579 0.408983
vt 0.113482 0.225776
vt 0.160326 0.409991
vt 0.140116 0.226451
vt 0.359963 0.514379
vt 0.329715 0.698534
vt 0.360137 0.696671
vt 0.380348 0.513131
vt 0.399884 0.695663
vt 0.406981 0.512455
vt 0.442907 0.695663
vt 0.435809 0.512455
vt 0.482654 0.696671
vt 0.462443 0.513131
vt 0.513075 0.698534
vt 0.482828 0.514379
vt 0.611346 0.778418
vt 0.593372 0.962191
s 1
usemtl Material.003
f 310/261/185 315/262/186 357/263/187
f 330/264/188 333/265/189 357/263/187
f 346/266/190 349/267/191 357/263/187
f 304/268/192 307/269/193 357/263/187
f 322/270/194 326/271/195 357/263/187
f 340/272/196 343/273/197 357/263/187
f 315/262/186 318/274/198 357/263/187
f 333/265/189 335/275/199 357/263/187
f 349/267/191 352/276/200 357/263/187
f 307/269/193 310/261/185 357/263/187
f 326/271/195 330/264/188 357/263/187
f 343/273/197 346/266/190 357/263/187
f 301/277/201 304/268/192 357/263/187
f 318/274/198 322/270/194 357/263/187
f 335/275/199 340/272/196 357/263/187
f 352/276/200 301/277/201 357/263/187
f 370/261/202 434/263/203 377/262/204
f 397/264/205 434/263/203 401/265/206
f 419/266/207 434/263/203 423/267/208
f 362/268/209 434/263/203 366/269/210
f 386/270/211 434/263/203 391/271/212
f 411/272/213 434/263/203 415/273/214
f 377/262/204 434/263/203 381/274/215
f 401/265/206 434/263/203 404/275/216
f 423/267/208 434/263/203 427/276/217
f 366/269/210 434/263/203 370/261/202
f 391/271/212 434/263/203 397/264/205
f 415/273/214 434/263/203 419/266/207
f 358/277/218 434/263/203 362/268/209
f 381/274/215 434/263/203 386/270/211
f 404/275/216 434/263/203 411/272/213
f 427/276/217 434/263/203 358/277/218
f 302/278/201 303/279/219 306/280/220
f 302/278/201 306/280/220 305/281/192
f 305/281/192 306/280/220 309/282/221
f 305/281/192 309/282/221 308/283/222
f 308/283/222 309/282/221 314/284/223
f 308/283/222 314/284/223 312/285/224
f 311/286/224 313/287/223 317/288/225
f 311/286/224 317/288/225 316/289/186
f 316/289/186 317/288/225 320/290/226
f 316/289/186 320/290/226 319/291/198
f 319/291/198 320/290/226 323/292/227
f 319/291/198 323/292/227 321/293/228
f 321/293/228 323/292/227 328/294/229
f 321/293/228 328/294/229 325/295/230
f 324/296/230 327/297/231 331/298/232
f 324/296/230 331/298/232 329/299/188
f 329/299/188 331/298/232 334/300/233
f 329/299/188 334/300/233 332/301/189
f 332/301/189 334/300/233 338/302/234
f 332/301/189 338/302/234 336/303/235
f 337/304/235 339/305/236 342/306/237
f 337/304/235 342/306/237 341/307/238
f 341/307/238 342/306/237 345/308/239
f 341/307/238 345/308/239 344/309/197
f 344/309/197 345/308/239 348/310/240
f 344/309/197 348/310/240 347/311/190
f 347/311/190 348/310/240 351/312/241
f 347/311/190 351/312/241 350/313/242
f 350/313/242 351/312/241 355/314/243
f 350/313/242 355/314/243 353/315/244
f 354/316/244 356/317/243 303/279/219
f 354/316/244 303/279/219 302/278/201
f 359/278/245 363/281/246 364/280/247
f 359/278/245 364/280/247 360/279/248
f 363/281/246 367/283/249 368/282/250
f 363/281/246 368/282/250 364/280/247
f 367/283/249 372/285/202 374/284/251
f 367/283/249 374/284/251 368/282/250
f 371/286/202 378/289/252 379/288/253
f 371/286/202 379/288/253 373/287/251
f 378/289/252 382/291/254 383/290/255
f 378/289/252 383/290/255 379/288/253
f 382/291/254 385/293/256 387/292/257
f 382/291/254 387/292/257 383/290/255
f 385/293/256 390/295/212 393/294/258
f 385/293/256 393/294/258 387/292/257
f 389/296/212 396/299/259 398/298/260
f 389/296/212 398/298/260 392/297/258
f 396/299/259 400/301/261 402/300/262
f 396/299/259 402/300/262 398/298/260
f 400/301/261 405/303/263 407/302/264
f 400/301/261 407/302/264 402/300/262
f 406/304/263 412/307/265 413/306/266
f 406/304/263 413/306/266 408/305/267
f 412/307/265 416/309/268 417/308/269
f 412/307/265 417/308/269 413/306/266
f 416/309/268 420/311/270 421/310/271
f 416/309/268 421/310/271 417/308/269
f 420/311/270 424/313/272 425/312/273
f 420/311/270 425/312/273 421/310/271
f 424/313/272 428/315/217 430/314/274
f 424/313/272 430/314/274 425/312/273
f 429/316/217 359/278/245 360/279/248
f 429/316/217 360/279/248 431/317/274
f 306/280/220 303/279/219 361/279/275
f 306/280/220 361/279/275 365/280/276
f 309/282/221 306/280/220 365/280/276
f 309/282/221 365/280/276 369/282/277
f 314/284/223 309/282/221 369/282/277
f 314/284/223 369/282/277 376/284/278
f 317/288/225 313/287/223 375/287/278
f 317/288/225 375/287/278 380/288/279
f 320/290/226 317/288/225 380/288/279
f 320/290/226 380/288/279 384/290/280
f 323/292/227 320/290/226 384/290/280
f 323/292/227 384/290/280 388/292/281
f 328/294/229 323/292/227 388/292/281
f 328/294/229 388/292/281 395/294/282
f 331/298/232 327/297/231 394/297/282
f 331/298/232 394/297/282 399/298/283
f 334/300/233 331/298/232 399/298/283
f 334/300/233 399/298/283 403/300/284
f 338/302/234 334/300/233 403/300/284
f 338/302/234 403/300/284 409/302/285
f 342/306/237 339/305/236 410/305/285
f 342/306/237 410/305/285 414/306/286
f 345/308/239 342/306/237 414/306/286
f 345/308/239 414/306/286 418/308/287
f 348/310/240 345/308/239 418/308/287
f 348/310/240 418/308/287 422/310/288
f 351/312/241 348/310/240 422/310/288
f 351/312/241 422/310/288 426/312/289
f 355/314/243 351/312/241 426/312/289
f 355/314/243 426/312/289 432/314/290
f 303/279/219 356/317/243 433/317/290
f 303/279/219 433/317/290 361/279/275
o Object_12
v -0.189009 2.788588 0.569210
v -0.189009 2.837262 0.425418
v -0.210056 2.778515 0.569210
v -0.210056 2.778515 0.569210
v -0.239847 2.812933 0.425418
v -0.239847 2.812933 0.425418
v -0.218775 2.754199 0.569210
v -0.260905 2.754199 0.425418
v -0.210056 2.729882 0.569210
v -0.210056 2.729882 0.569210
v -0.239847 2.695464 0.425418
v -0.239847 2.695464 0.425418
v -0.189009 2.719810 0.569210
v -0.189009 2.671136 0.425418
v -0.167962 2.729882 0.569210
v -0.167962 2.729882 0.569210
v -0.138171 2.695464 0.425418
v -0.138171 2.695464 0.425418
v -0.159244 2.754199 0.569210
v -0.117113 2.754199 0.425418
v -0.167962 2.778515 0.569210
v -0.167962 2.778515 0.569210
v -0.138171 2.812933 0.425418
v -0.138171 2.812933 0.425418
v -0.188058 2.629171 0.584931
v -0.199172 2.629171 0.580327
v -0.199172 2.629171 0.580327
v -0.188058 2.813314 0.612315
v -0.188058 2.813314 0.612315
v -0.176945 2.629171 0.580327
v -0.176945 2.629171 0.580327
v -0.172341 2.629171 0.569213
v -0.176945 2.629171 0.558100
v -0.176945 2.629171 0.558100
v -0.203776 2.629171 0.569213
v -0.199172 2.629171 0.558100
v -0.199172 2.629171 0.558100
v -0.188058 2.629171 0.553496
v -0.188058 2.813314 0.526112
v -0.188058 2.813314 0.526112
v -0.218536 2.813314 0.538736
v -0.218536 2.813314 0.538736
v -0.218536 2.813314 0.538736
v -0.157581 2.813314 0.538736
v -0.157581 2.813314 0.538736
v -0.157581 2.813314 0.538736
v -0.188058 2.813314 0.569213
v -0.231160 2.813314 0.569213
v -0.231160 2.813314 0.569213
v -0.144957 2.813314 0.569213
v -0.144957 2.813314 0.569213
v -0.157581 2.813314 0.599691
v -0.157581 2.813314 0.599691
v -0.157581 2.813314 0.599691
v -0.218536 2.813314 0.599691
v -0.218536 2.813314 0.599691
v -0.218536 2.813314 0.599691
v -0.188058 2.654099 0.584931
v -0.188058 2.654099 0.584931
v -0.199172 2.654099 0.580327
v -0.199172 2.654099 0.580327
v -0.199172 2.654099 0.580327
v -0.176945 2.654099 0.580327
v -0.176945 2.654099 0.580327
v -0.176945 2.654099 0.580327
v -0.188058 2.654099 0.569213
v -0.172341 2.654099 0.569213
v -0.172341 2.654099 0.569213
v -0.176945 2.654099 0.558100
v -0.176945 2.654099 0.558100
v -0.176945 2.654099 0.558100
v -0.203776 2.654099 0.569213
v -0.203776 2.654099 0.569213
v -0.199172 2.654099 0.558100
v -0.199172 2.654099 0.558100
v -0.199172 2.654099 0.558100
v -0.188058 2.654099 0.553496
v -0.188058 2.654099 0.553496
vn 0.0001 0.5103 -0.8600
vn -0.6081 0.5103 -0.6082
vn -0.0000 1.0000 -0.0000
vn 0.6082 0.5103 -0.6081
vn -0.6082 0.5103 0.6081
vn -0.0001 0.5103 0.8600
vn 0.6081 0.5103 0.6082
vn -0.8600 0.5103 -0.0001
vn 0.8600 0.5103 0.0001
vn -0.0000 -0.5749 -0.8182
vn 0.5785 -0.5749 -0.5786
vn -0.0000 -1.0000 -0.0000
vn -0.5786 -0.5749 -0.5785
vn -0.5785 -0.5749 0.5786
vn -0.8182 -0.5749 -0.0000
vn -0.0000 -0.5749 0.8182
vn 0.8182 -0.5749 -0.0000
vn 0.5786 -0.5749 0.5785
vn -0.0000 0.9472 0.3206
vn -0.7215 0.6245 0.2990
vn -0.9597 -0.0000 0.2812
vn -0.7215 -0.6245 0.2990
vn -0.0000 -0.9472 0.3206
vn 0.7215 -0.6245 0.2990
vn 0.9597 -0.0000 0.2812
vn 0.7215 0.6245 0.2990
vn -0.1826 -0.9832 -0.0001
vn -0.1292 -0.9832 -0.1291
vn 0.5785 -0.5749 0.5786
vn -0.0000 -0.9832 0.1826
vn -0.6081 0.5103 0.6081
vn -0.1291 -0.9832 0.1292
vn 0.1292 -0.9832 0.1291
vn 0.6081 0.5103 0.6081
vn 0.1292 -0.9832 -0.1291
vn 0.1826 -0.9832 -0.0000
vn -0.0000 -0.9832 -0.1826
vn 0.5786 -0.5749 -0.5785
vn 0.1291 -0.9832 -0.1292
vn -0.5786 -0.5749 0.5785
vn -0.1291 -0.9832 0.1291
vn -0.5785 -0.5749 -0.5786
vn -0.6081 0.5103 -0.6081
vn 0.6081 0.5103 -0.6081
vn 0.8600 0.5104 0.0001
vt 0.889078 0.629178
vt 0.889078 0.590562
vt 0.842473 0.609878
vt 0.861777 0.656487
vt 0.823168 0.563268
vt 0.795868 0.590578
vt 0.795868 0.629193
vt 0.861777 0.563262
vt 0.823168 0.656494
vt 0.399769 0.084430
vt 0.409715 0.094395
vt 0.416748 0.077406
vt 0.399769 0.070351
vt 0.423781 0.060417
vt 0.409715 0.060404
vt 0.433727 0.070382
vt 0.423781 0.094408
vt 0.433727 0.084461
vt 0.633462 0.212141
vt 0.633462 0.381491
vt 0.692974 0.380959
vt 0.658100 0.211920
vt 0.609749 0.484486
vt 0.573950 0.654805
vt 0.632401 0.656494
vt 0.633949 0.485185
vt 0.692873 0.654805
vt 0.658985 0.484486
vt 0.658268 0.948503
vt 0.693141 0.778612
vt 0.633629 0.777349
vt 0.633629 0.947980
vt 0.574117 0.778612
vt 0.608991 0.948503
vt 0.084773 0.482108
vt 0.051497 0.653239
vt 0.112968 0.655937
vt 0.110222 0.483225
vt 0.170041 0.653239
vt 0.133851 0.482108
vt 0.608823 0.211920
vt 0.573950 0.380959
vt 0.434706 0.468753
vt 0.447317 0.468531
vt 0.435446 0.759928
vt 0.435446 0.948503
vt 0.471123 0.947296
vt 0.448456 0.759488
vt 0.422436 0.759488
vt 0.399769 0.947296
vt 0.249002 0.759305
vt 0.261350 0.759791
vt 0.074164 0.758932
vt 0.087174 0.759526
vt 0.100184 0.758932
vt 0.421358 0.468531
vt 0.274867 0.759305
vt 0.051497 0.946873
vt 0.087174 0.948503
vt 0.122851 0.946873
vt 0.399769 0.655885
vt 0.436373 0.656494
vt 0.259705 0.948503
vt 0.296775 0.947169
vt 0.225846 0.947169
vt 0.470956 0.655885
s 1
usemtl Material.004
f 473/318/291 476/319/292 481/320/293
f 478/321/294 473/318/291 481/320/293
f 489/322/295 462/323/296 481/320/293
f 462/323/296 486/324/297 481/320/293
f 483/325/298 489/322/295 481/320/293
f 476/319/292 483/325/298 481/320/293
f 484/326/299 478/321/294 481/320/293
f 486/324/297 484/326/299 481/320/293
f 492/327/300 494/328/301 500/329/302
f 497/330/303 492/327/300 500/329/302
f 503/331/304 501/332/305 500/329/302
f 501/332/305 497/330/303 500/329/302
f 511/333/306 503/331/304 500/329/302
f 494/328/301 506/334/307 500/329/302
f 506/334/307 508/335/308 500/329/302
f 508/335/308 511/333/306 500/329/302
f 435/336/309 436/337/309 439/338/310
f 435/336/309 439/338/310 437/339/310
f 438/340/310 440/341/310 442/342/311
f 438/340/310 442/342/311 441/343/311
f 441/343/311 442/342/311 445/344/312
f 441/343/311 445/344/312 443/345/312
f 444/346/312 446/347/312 448/348/313
f 444/346/312 448/348/313 447/349/313
f 447/349/313 448/348/313 451/350/314
f 447/349/313 451/350/314 449/351/314
f 450/352/314 452/353/314 454/354/315
f 450/352/314 454/354/315 453/355/315
f 453/355/315 454/354/315 457/356/316
f 453/355/315 457/356/316 455/357/316
f 456/358/316 458/359/316 436/337/309
f 456/358/316 436/337/309 435/336/309
f 469/360/317 470/361/318 510/361/319
f 469/360/317 510/361/319 507/360/307
f 459/362/320 463/363/296 491/364/321
f 459/362/320 491/364/321 461/365/322
f 464/366/323 487/367/324 463/363/296
f 464/366/323 463/363/296 459/362/320
f 468/368/325 466/369/326 502/369/305
f 468/368/325 502/369/305 505/368/304
f 471/370/318 472/371/327 512/371/306
f 471/370/318 512/371/306 509/370/308
f 459/362/320 461/365/322 496/365/328
f 459/362/320 496/365/328 493/362/300
f 472/371/327 467/372/329 504/372/330
f 472/371/327 504/372/330 512/371/306
f 464/366/323 459/362/320 493/362/300
f 464/366/323 493/362/300 499/366/303
f 460/373/331 469/360/317 507/360/307
f 460/373/331 507/360/307 495/373/301
f 466/369/326 465/374/323 498/374/332
f 466/369/326 498/374/332 502/369/305
f 471/370/318 477/375/333 474/376/291
f 471/370/318 474/376/291 472/371/327
f 472/371/327 474/376/291 479/377/334
f 472/371/327 479/377/334 467/372/329
f 460/373/331 490/378/321 482/379/298
f 460/373/331 482/379/298 469/360/317
f 466/369/326 485/380/335 488/381/324
f 466/369/326 488/381/324 465/374/323
f 468/368/325 480/382/334 485/380/335
f 468/368/325 485/380/335 466/369/326
f 469/360/317 482/379/298 475/383/333
f 469/360/317 475/383/333 470/361/318
o Object_14
v -0.170639 2.844666 0.546299
v -0.170639 2.844666 0.546299
v -0.170639 2.844666 0.598430
v -0.170639 2.844666 0.598430
v -0.170639 2.847213 0.546299
v -0.170639 2.847213 0.546299
v -0.205010 2.844666 0.546299
v -0.205010 2.844666 0.546299
v -0.205010 2.847213 0.546299
v -0.205010 2.847213 0.546299
v -0.205010 2.844666 0.598430
v -0.205010 2.844666 0.598430
v -0.205010 2.852802 0.598430
v -0.205010 2.852802 0.598430
v -0.205010 2.851124 0.640141
v -0.205010 2.851124 0.640141
v -0.205010 2.851124 0.690161
v -0.205010 2.851124 0.690161
v -0.205010 2.851124 0.690161
v -0.205010 2.859260 0.640141
v -0.205010 2.859260 0.640141
v -0.170639 2.851124 0.640141
v -0.170639 2.851124 0.640141
v -0.170639 2.851124 0.690161
v -0.170639 2.851124 0.690161
v -0.170639 2.851124 0.690161
v -0.170639 2.859260 0.640141
v -0.170639 2.859260 0.640141
v -0.170639 2.859260 0.690161
v -0.170639 2.859260 0.690161
v -0.170639 2.859260 0.690161
v -0.170639 2.852802 0.598430
v -0.170639 2.852802 0.598430
v -0.205010 2.859260 0.690161
v -0.205010 2.859260 0.690161
v -0.205010 2.859260 0.690161
v -0.163521 2.798901 0.544910
v -0.163521 2.798901 0.544910
v -0.163521 2.798901 0.593190
v -0.163521 2.798901 0.593190
v -0.163521 2.854680 0.544910
v -0.163521 2.854680 0.544910
v -0.163521 2.854680 0.544910
v -0.211801 2.798901 0.544910
v -0.211801 2.798901 0.544910
v -0.211801 2.798901 0.593190
v -0.211801 2.798901 0.593190
v -0.211801 2.854680 0.544910
v -0.211801 2.854680 0.544910
v -0.211801 2.854680 0.544910
v -0.211801 2.854680 0.593190
v -0.211801 2.854680 0.593190
v -0.211801 2.854680 0.593190
v -0.163521 2.854680 0.593190
v -0.163521 2.854680 0.593190
v -0.163521 2.854680 0.593190
vn 0.7561 -0.6545 -0.0000
vn 0.7738 0.6299 -0.0675
vn 0.7596 0.6449 -0.0845
vn 0.7423 -0.6681 0.0514
vn 0.7424 -0.6680 0.0515
vn -0.7424 -0.6680 0.0514
vn -0.7561 -0.6544 -0.0000
vn 0.7561 -0.6544 -0.0000
vn -0.7423 -0.6681 0.0515
vn -0.7596 0.6449 -0.0844
vn -0.7738 0.6299 -0.0675
vn -0.7561 -0.6545 -0.0000
vn 0.7699 -0.6363 0.0490
vn -0.7698 -0.6363 0.0491
vn -0.7698 -0.6364 0.0490
vn -0.7423 0.6681 -0.0515
vn 0.6031 -0.5220 0.6032
vn -0.6032 -0.5220 0.6031
vn -0.6031 -0.5220 0.6032
vn -0.6031 0.5221 0.6031
vn 0.7423 0.6681 -0.0514
vn 0.7698 -0.6364 0.0491
vn 0.6031 0.5220 0.6032
vn 0.6031 -0.5221 0.6031
vn -0.6031 0.5220 0.6032
vn 0.6032 0.5220 0.6031
vn 0.7424 0.6680 -0.0515
vn -0.7424 0.6680 -0.0515
vn 0.7597 0.6448 -0.0844
vn -0.7597 0.6448 -0.0844
vn 0.7738 0.6298 -0.0675
vn -0.7738 0.6298 -0.0675
vn 0.6032 -0.5220 0.6031
vn 0.6031 0.5221 0.6031
vn -0.6032 0.5220 0.6031
vn -0.6031 -0.5221 0.6031
vn 0.7071 -0.0000 -0.7071
vn 0.6031 0.5221 -0.6031
vn 0.7071 -0.0000 0.7071
vn -0.7071 -0.0000 -0.7071
vn -0.6031 0.5221 -0.6031
vn 0.6032 0.5220 -0.6031
vn -0.7071 -0.0000 0.7071
vn -0.6031 0.5220 -0.6032
vn 0.6031 0.5220 -0.6032
vn -0.6032 0.5220 -0.6031
vt 0.407809 0.197402
vt 0.405245 0.197584
vt 0.403314 0.258532
vt 0.411503 0.257951
vt 0.051497 0.271537
vt 0.091732 0.271537
vt 0.091732 0.210592
vt 0.051497 0.210592
vt 0.284997 0.548438
vt 0.293217 0.548963
vt 0.291278 0.487833
vt 0.288705 0.487669
vt 0.051497 0.320636
vt 0.091732 0.320636
vt 0.288555 0.597477
vt 0.296774 0.598002
vt 0.051497 0.379113
vt 0.091732 0.379113
vt 0.284997 0.655786
vt 0.293217 0.656311
vt 0.399769 0.307440
vt 0.407959 0.306859
vt 0.403314 0.365537
vt 0.411503 0.364956
vt 0.234961 0.211009
vt 0.194726 0.211009
vt 0.194726 0.269549
vt 0.234961 0.269549
vt 0.194726 0.318224
vt 0.234961 0.318224
vt 0.194726 0.379113
vt 0.234961 0.379113
vt 0.059713 0.067363
vt 0.051497 0.067363
vt 0.051497 0.107598
vt 0.059713 0.107598
vt 0.795968 0.324647
vt 0.795968 0.380936
vt 0.852146 0.381491
vt 0.852146 0.325202
vt 0.250899 0.051497
vt 0.194726 0.051497
vt 0.194726 0.108014
vt 0.250899 0.108015
vt 0.795968 0.165183
vt 0.795968 0.221653
vt 0.852353 0.221493
vt 0.852353 0.165024
vt 0.852640 0.948503
vt 0.852640 0.891986
vt 0.796136 0.891986
vt 0.796136 0.948503
vt 0.630278 0.052409
vt 0.573950 0.052409
vt 0.573950 0.108926
vt 0.630278 0.108926
s 1
usemtl Material.006
f 514/384/336 518/385/337 545/386/338
f 514/384/336 545/386/338 516/387/339
f 515/388/340 523/389/341 520/390/342
f 515/388/340 520/390/342 513/391/343
f 524/392/344 525/393/345 521/394/346
f 524/392/344 521/394/346 519/395/347
f 534/396/348 527/397/349 523/389/341
f 534/396/348 523/389/341 515/388/340
f 528/398/350 532/399/351 525/393/345
f 528/398/350 525/393/345 524/392/344
f 538/400/352 529/401/353 527/397/349
f 538/400/352 527/397/349 534/396/348
f 531/402/354 546/403/355 532/399/351
f 531/402/354 532/399/351 528/398/350
f 516/387/339 545/386/338 540/404/356
f 516/387/339 540/404/356 535/405/357
f 535/405/357 540/404/356 543/406/358
f 535/405/357 543/406/358 537/407/359
f 547/408/360 542/409/361 539/410/362
f 547/408/360 539/410/362 533/411/363
f 533/411/363 539/410/362 544/412/364
f 533/411/363 544/412/364 526/413/365
f 526/413/365 544/412/364 517/414/366
f 526/413/365 517/414/366 522/415/367
f 536/416/368 541/417/369 548/418/370
f 536/416/368 548/418/370 530/419/371
f 550/420/372 554/421/373 567/422/358
f 550/420/372 567/422/358 552/423/374
f 557/424/375 561/425/376 553/426/377
f 557/424/375 553/426/377 549/427/372
f 558/428/378 563/429/355 560/430/379
f 558/428/378 560/430/379 556/431/375
f 565/432/360 568/433/361 555/434/380
f 565/432/360 555/434/380 562/435/381
f 551/436/374 566/437/369 564/438/370
f 551/436/374 564/438/370 559/439/378
o Object_16
v 0.323171 3.577179 -0.007613
v 0.590623 5.276462 -0.007613
v 0.590623 5.276462 -0.007613
v 0.298589 3.577179 0.115973
v 0.545682 5.276462 0.218322
v 0.545682 5.276462 0.218322
v 0.228583 3.577179 0.220744
v 0.417700 5.276462 0.409860
v 0.417700 5.276462 0.409860
v 0.123812 3.577179 0.290749
v 0.226161 5.276462 0.537842
v 0.226161 5.276462 0.537842
v 0.226161 5.276462 0.537842
v 0.000227 3.577179 0.315332
v 0.000227 5.276462 0.582783
v 0.000227 5.276462 0.582783
v -0.123359 3.577179 0.290749
v -0.225708 5.276462 0.537842
v -0.225708 5.276462 0.537842
v -0.228130 3.577179 0.220744
v -0.417247 5.276462 0.409860
v -0.417247 5.276462 0.409860
v -0.298135 3.577179 0.115973
v -0.545228 5.276462 0.218322
v -0.545228 5.276462 0.218322
v -0.545228 5.276462 0.218322
v -0.322718 3.577179 -0.007613
v -0.590170 5.276462 -0.007613
v -0.590170 5.276462 -0.007613
v -0.298135 3.577179 -0.131198
v -0.545228 5.276462 -0.233548
v -0.545228 5.276462 -0.233548
v -0.228130 3.577179 -0.235969
v -0.417247 5.276462 -0.425086
v -0.417247 5.276462 -0.425086
v -0.123359 3.577179 -0.305975
v -0.225708 5.276462 -0.553068
v -0.225708 5.276462 -0.553068
v -0.225708 5.276462 -0.553068
v 0.000227 3.577179 -0.330557
v 0.000227 5.276462 -0.598009
v 0.000227 5.276462 -0.598009
v 0.123812 3.577179 -0.305975
v 0.226161 5.276462 -0.553068
v 0.226161 5.276462 -0.553068
v 0.228583 3.577179 -0.235969
v 0.417700 5.276462 -0.425086
v 0.417700 5.276462 -0.425086
v 0.298589 3.577179 -0.131198
v 0.545682 5.276462 -0.233548
v 0.545682 5.276462 -0.233548
v 0.545682 5.276462 -0.233548
v 0.444848 3.644107 -0.007613
v 0.411003 3.644107 0.162536
v 0.314621 3.644107 0.306782
v 0.170376 3.644107 0.403163
v 0.000227 3.644107 0.437008
v -0.169922 3.644107 0.403163
v -0.314168 3.644107 0.306782
v -0.410549 3.644107 0.162536
v -0.444394 3.644107 -0.007613
v -0.410549 3.644107 -0.177762
v -0.314168 3.644107 -0.322007
v -0.169922 3.644107 -0.418389
v 0.000227 3.644107 -0.452234
v 0.170376 3.644107 -0.418389
v 0.314621 3.644107 -0.322007
v 0.411003 3.644107 -0.177762
v 0.538508 3.748288 -0.007613
v 0.538508 3.748288 -0.007613
v 0.497533 3.748288 0.198378
v 0.497533 3.748288 0.198378
v 0.380849 3.748288 0.373009
v 0.380849 3.748288 0.373009
v 0.380849 3.748288 0.373009
v 0.206218 3.748288 0.489694
v 0.206218 3.748288 0.489694
v 0.000227 3.748288 0.530668
v 0.000227 3.748288 0.530668
v -0.205764 3.748288 0.489694
v -0.205764 3.748288 0.489694
v -0.380395 3.748288 0.373009
v -0.380395 3.748288 0.373009
v -0.380395 3.748288 0.373009
v -0.497080 3.748288 0.198378
v -0.497080 3.748288 0.198378
v -0.538054 3.748288 -0.007613
v -0.538054 3.748288 -0.007613
v -0.497080 3.748288 -0.213604
v -0.497080 3.748288 -0.213604
v -0.380395 3.748288 -0.388235
v -0.380395 3.748288 -0.388235
v -0.380395 3.748288 -0.388235
v -0.205764 3.748288 -0.504919
v -0.205764 3.748288 -0.504919
v 0.000227 3.748288 -0.545894
v 0.000227 3.748288 -0.545894
v 0.206218 3.748288 -0.504919
v 0.206218 3.748288 -0.504919
v 0.380849 3.748288 -0.388235
v 0.380849 3.748288 -0.388235
v 0.380849 3.748288 -0.388235
v 0.497533 3.748288 -0.213604
v 0.497533 3.748288 -0.213604
v 0.590623 3.861922 -0.007613
v 0.545682 3.861922 0.218322
v 0.417700 3.861922 0.409860
v 0.417700 3.861922 0.409860
v 0.226162 3.861922 0.537842
v 0.000227 3.861922 0.582783
v -0.225708 3.861922 0.537842
v -0.417246 3.861922 0.409860
v -0.417246 3.861922 0.409860
v -0.545228 3.861922 0.218322
v -0.590169 3.861922 -0.007613
v -0.545228 3.861922 -0.233548
v -0.417246 3.861922 -0.425086
v -0.417246 3.861922 -0.425086
v -0.225708 3.861922 -0.553068
v 0.000227 3.861922 -0.598009
v 0.226162 3.861922 -0.553068
v 0.417700 3.861922 -0.425086
v 0.417700 3.861922 -0.425086
v 0.545682 3.861922 -0.233548
v 0.590623 4.067110 -0.007613
v 0.590623 4.067110 -0.007613
v 0.545682 4.067110 0.218322
v 0.545682 4.067110 0.218322
v 0.417700 4.067110 0.409860
v 0.417700 4.067110 0.409860
v 0.417700 4.067110 0.409860
v 0.226162 4.067110 0.537842
v 0.226162 4.067110 0.537842
v 0.000227 4.067110 0.582783
v 0.000227 4.067110 0.582783
v -0.225708 4.067110 0.537842
v -0.225708 4.067110 0.537842
v -0.417246 4.067110 0.409860
v -0.417246 4.067110 0.409860
v -0.417246 4.067110 0.409860
v -0.545228 4.067110 0.218322
v -0.545228 4.067110 0.218322
v -0.590169 4.067110 -0.007613
v -0.590169 4.067110 -0.007613
v -0.545228 4.067110 -0.233548
v -0.545228 4.067110 -0.233548
v -0.417246 4.067110 -0.425086
v -0.417246 4.067110 -0.425086
v -0.417246 4.067110 -0.425086
v -0.225708 4.067110 -0.553068
v -0.225708 4.067110 -0.553068
v 0.000227 4.067110 -0.598009
v 0.000227 4.067110 -0.598009
v 0.226162 4.067110 -0.553068
v 0.226162 4.067110 -0.553068
v 0.417700 4.067110 -0.425086
v 0.417700 4.067110 -0.425086
v 0.417700 4.067110 -0.425086
v 0.545682 4.067110 -0.233548
v 0.545682 4.067110 -0.233548
v 0.590623 4.435795 -0.007613
v 0.590623 4.435795 -0.007613
v 0.545682 4.435795 0.218322
v 0.545682 4.435795 0.218322
v 0.417700 4.435795 0.409860
v 0.417700 4.435795 0.409860
v 0.226162 4.435795 0.537842
v 0.226162 4.435795 0.537842
v 0.226162 4.435795 0.537842
v 0.000227 4.435795 0.582783
v 0.000227 4.435795 0.582783
v -0.225708 4.435795 0.537842
v -0.225708 4.435795 0.537842
v -0.417246 4.435795 0.409860
v -0.417246 4.435795 0.409860
v -0.545228 4.435795 0.218322
v -0.545228 4.435795 0.218322
v -0.545228 4.435795 0.218322
v -0.590169 4.435795 -0.007613
v -0.590169 4.435795 -0.007613
v -0.545228 4.435795 -0.233548
v -0.545228 4.435795 -0.233548
v -0.417246 4.435795 -0.425086
v -0.417246 4.435795 -0.425086
v -0.225708 4.435795 -0.553068
v -0.225708 4.435795 -0.553068
v -0.225708 4.435795 -0.553068
v 0.000227 4.435795 -0.598009
v 0.000227 4.435795 -0.598009
v 0.226162 4.435795 -0.553068
v 0.226162 4.435795 -0.553068
v 0.417700 4.435795 -0.425086
v 0.417700 4.435795 -0.425086
v 0.545682 4.435795 -0.233548
v 0.545682 4.435795 -0.233548
v 0.545682 4.435795 -0.233548
v 0.590623 4.638328 -0.007613
v 0.590623 4.638328 -0.007613
v 0.545682 4.638328 0.218322
v 0.545682 4.638328 0.218322
v 0.417700 4.638328 0.409860
v 0.417700 4.638328 0.409860
v 0.226162 4.638328 0.537842
v 0.226162 4.638328 0.537842
v 0.226162 4.638328 0.537842
v 0.000227 4.638328 0.582783
v 0.000227 4.638328 0.582783
v -0.225708 4.638328 0.537842
v -0.225708 4.638328 0.537842
v -0.417246 4.638328 0.409860
v -0.417246 4.638328 0.409860
v -0.545228 4.638328 0.218322
v -0.545228 4.638328 0.218322
v -0.545228 4.638328 0.218322
v -0.590169 4.638328 -0.007613
v -0.590169 4.638328 -0.007613
v -0.545228 4.638328 -0.233548
v -0.545228 4.638328 -0.233548
v -0.417246 4.638328 -0.425086
v -0.417246 4.638328 -0.425086
v -0.225708 4.638328 -0.553068
v -0.225708 4.638328 -0.553068
v -0.225708 4.638328 -0.553068
v 0.000227 4.638328 -0.598009
v 0.000227 4.638328 -0.598009
v 0.226162 4.638328 -0.553068
v 0.226162 4.638328 -0.553068
v 0.417700 4.638328 -0.425086
v 0.417700 4.638328 -0.425086
v 0.545682 4.638328 -0.233548
v 0.545682 4.638328 -0.233548
v 0.545682 4.638328 -0.233548
v 0.590623 5.047797 -0.007613
v 0.590623 5.047797 -0.007613
v 0.545682 5.047797 0.218322
v 0.545682 5.047797 0.218322
v 0.417700 5.047797 0.409860
v 0.417700 5.047797 0.409860
v 0.226161 5.047797 0.537842
v 0.226161 5.047797 0.537842
v 0.226161 5.047797 0.537842
v 0.000227 5.047797 0.582783
v 0.000227 5.047797 0.582783
v -0.225708 5.047797 0.537842
v -0.225708 5.047797 0.537842
v -0.417247 5.047797 0.409860
v -0.417247 5.047797 0.409860
v -0.545228 5.047797 0.218322
v -0.545228 5.047797 0.218322
v -0.545228 5.047797 0.218322
v -0.590169 5.047797 -0.007613
v -0.590169 5.047797 -0.007613
v -0.545228 5.047797 -0.233548
v -0.545228 5.047797 -0.233548
v -0.417247 5.047797 -0.425086
v -0.417247 5.047797 -0.425086
v -0.225708 5.047797 -0.553068
v -0.225708 5.047797 -0.553068
v -0.225708 5.047797 -0.553068
v 0.000227 5.047797 -0.598009
v 0.000227 5.047797 -0.598009
v 0.226161 5.047797 -0.553068
v 0.226161 5.047797 -0.553068
v 0.417700 5.047797 -0.425086
v 0.417700 5.047797 -0.425086
v 0.545682 5.047797 -0.233548
v 0.545682 5.047797 -0.233548
v 0.545682 5.047797 -0.233548
v 0.490219 4.682877 0.195349
v 0.490219 4.682877 0.195349
v 0.375250 4.682877 0.367411
v 0.375250 4.682877 0.367411
v 0.203188 4.682877 0.482379
v 0.203188 4.682877 0.482379
v 0.203188 4.682877 0.482379
v 0.000227 4.682877 0.522751
v 0.000227 4.682877 0.522751
v -0.202735 4.682877 0.482379
v -0.202735 4.682877 0.482379
v -0.374797 4.682877 0.367411
v -0.374797 4.682877 0.367411
v -0.489765 4.682877 0.195349
v -0.489765 4.682877 0.195349
v -0.489765 4.682877 0.195349
v -0.530137 4.682877 -0.007613
v -0.530137 4.682877 -0.007613
v -0.489765 4.682877 -0.210574
v -0.489765 4.682877 -0.210574
v -0.374797 4.682877 -0.382636
v -0.374797 4.682877 -0.382636
v -0.202735 4.682877 -0.497605
v -0.202735 4.682877 -0.497605
v -0.202735 4.682877 -0.497605
v 0.000227 4.682877 -0.537976
v 0.000227 4.682877 -0.537976
v 0.203188 4.682877 -0.497605
v 0.203188 4.682877 -0.497605
v 0.375250 4.682877 -0.382636
v 0.375250 4.682877 -0.382636
v 0.490219 4.682877 -0.210574
v 0.490219 4.682877 -0.210574
v 0.490219 4.682877 -0.210574
v 0.530590 4.682877 -0.007613
v 0.530590 4.682877 -0.007613
v 0.488235 4.391148 0.194527
v 0.488235 4.391148 0.194527
v 0.373732 4.391148 0.365892
v 0.373732 4.391148 0.365892
v 0.202366 4.391148 0.480395
v 0.202366 4.391148 0.480395
v 0.202366 4.391148 0.480395
v 0.000227 4.391148 0.520603
v 0.000227 4.391148 0.520603
v -0.201913 4.391148 0.480395
v -0.201913 4.391148 0.480395
v -0.373279 4.391148 0.365892
v -0.373279 4.391148 0.365892
v -0.487781 4.391148 0.194527
v -0.487781 4.391148 0.194527
v -0.487781 4.391148 0.194527
v -0.527989 4.391148 -0.007613
v -0.527989 4.391148 -0.007613
v -0.487781 4.391148 -0.209752
v -0.487781 4.391148 -0.209752
v -0.373279 4.391148 -0.381118
v -0.373279 4.391148 -0.381118
v -0.201913 4.391148 -0.495621
v -0.201913 4.391148 -0.495621
v -0.201913 4.391148 -0.495621
v 0.000227 4.391148 -0.535829
v 0.000227 4.391148 -0.535829
v 0.202366 4.391148 -0.495621
v 0.202366 4.391148 -0.495621
v 0.373732 4.391148 -0.381118
v 0.373732 4.391148 -0.381118
v 0.488235 4.391148 -0.209752
v 0.488235 4.391148 -0.209752
v 0.488235 4.391148 -0.209752
v 0.528443 4.391148 -0.007613
v 0.528443 4.391148 -0.007613
v 0.530590 5.003248 -0.007613
v 0.530590 5.003248 -0.007613
v 0.490219 5.003248 0.195349
v 0.490219 5.003248 0.195349
v 0.375250 5.003248 0.367411
v 0.375250 5.003248 0.367411
v 0.203188 5.003248 0.482379
v 0.203188 5.003248 0.482379
v 0.203188 5.003248 0.482379
v 0.000227 5.003248 0.522751
v 0.000227 5.003248 0.522751
v -0.202735 5.003248 0.482379
v -0.202735 5.003248 0.482379
v -0.374797 5.003248 0.367411
v -0.374797 5.003248 0.367411
v -0.489765 5.003248 0.195349
v -0.489765 5.003248 0.195349
v -0.489765 5.003248 0.195349
v -0.530137 5.003248 -0.007613
v -0.530137 5.003248 -0.007613
v -0.489765 5.003248 -0.210574
v -0.489765 5.003248 -0.210574
v -0.374797 5.003248 -0.382636
v -0.374797 5.003248 -0.382636
v -0.202735 5.003248 -0.497605
v -0.202735 5.003248 -0.497605
v -0.202735 5.003248 -0.497605
v 0.000227 5.003248 -0.537976
v 0.000227 5.003248 -0.537976
v 0.203188 5.003248 -0.497605
v 0.203188 5.003248 -0.497605
v 0.375250 5.003248 -0.382636
v 0.375250 5.003248 -0.382636
v 0.490219 5.003248 -0.210574
v 0.490219 5.003248 -0.210574
v 0.490219 5.003248 -0.210574
v 0.488235 4.112257 0.194527
v 0.488235 4.112257 0.194527
v 0.373732 4.112257 0.365892
v 0.373732 4.112257 0.365892
v 0.202366 4.112257 0.480395
v 0.202366 4.112257 0.480395
v 0.202366 4.112257 0.480395
v 0.000227 4.112257 0.520603
v 0.000227 4.112257 0.520603
v -0.201913 4.112257 0.480395
v -0.201913 4.112257 0.480395
v -0.373278 4.112257 0.365892
v -0.373278 4.112257 0.365892
v -0.487781 4.112257 0.194527
v -0.487781 4.112257 0.194527
v -0.487781 4.112257 0.194527
v -0.527989 4.112257 -0.007613
v -0.527989 4.112257 -0.007613
v -0.487781 4.112257 -0.209752
v -0.487781 4.112257 -0.209752
v -0.373278 4.112257 -0.381118
v -0.373278 4.112257 -0.381118
v -0.201913 4.112257 -0.495621
v -0.201913 4.112257 -0.495621
v -0.201913 4.112257 -0.495621
v 0.000227 4.112257 -0.535829
v 0.000227 4.112257 -0.535829
v 0.202366 4.112257 -0.495621
v 0.202366 4.112257 -0.495621
v 0.373732 4.112257 -0.381118
v 0.373732 4.112257 -0.381118
v 0.488235 4.112257 -0.209752
v 0.488235 4.112257 -0.209752
v 0.488235 4.112257 -0.209752
v 0.528443 4.112257 -0.007613
v 0.528443 4.112257 -0.007613
v 0.239024 3.522074 -0.007613
v 0.220847 3.522074 0.083771
v 0.169082 3.522074 0.161242
v 0.091611 3.522074 0.213007
v 0.000227 3.522074 0.231184
v -0.091157 3.522074 0.213007
v -0.168628 3.522074 0.161242
v -0.220393 3.522074 0.083771
v -0.238570 3.522074 -0.007613
v -0.220393 3.522074 -0.098996
v -0.168628 3.522074 -0.176468
v -0.091157 3.522074 -0.228233
v 0.000227 3.522074 -0.246410
v 0.091611 3.522074 -0.228233
v 0.169082 3.522074 -0.176468
v 0.220847 3.522074 -0.098996
v 0.470823 5.387148 -0.007613
v 0.435001 5.387148 0.172477
v 0.332988 5.387148 0.325149
v 0.180316 5.387148 0.427161
v 0.000227 5.387148 0.462984
v -0.179863 5.387148 0.427161
v -0.332535 5.387148 0.325149
v -0.434548 5.387148 0.172477
v -0.470370 5.387148 -0.007613
v -0.434548 5.387148 -0.187702
v -0.332535 5.387148 -0.340375
v -0.179863 5.387148 -0.442387
v 0.000227 5.387148 -0.478209
v 0.180316 5.387148 -0.442387
v 0.332988 5.387148 -0.340375
v 0.435001 5.387148 -0.187702
v 0.000227 5.387148 -0.007613
vn -0.2931 0.9101 -0.2931
vn -0.3829 0.9101 -0.1586
vn -0.0000 1.0000 -0.0000
vn 0.1586 0.9101 0.3829
vn 0.2931 0.9101 0.2931
vn -0.1586 0.9101 -0.3829
vn -0.0000 0.9101 0.4144
vn -0.0000 0.9101 -0.4144
vn -0.1586 0.9101 0.3829
vn 0.1586 0.9101 -0.3829
vn -0.2931 0.9101 0.2931
vn 0.2931 0.9101 -0.2931
vn -0.3829 0.9101 0.1586
vn 0.3829 0.9101 -0.1586
vn -0.4144 0.9101 -0.0000
vn 0.3829 0.9101 0.1586
vn 0.4144 0.9101 -0.0000
vn 0.9142 -0.4053 -0.0000
vn 0.9307 0.3659 -0.0000
vn 0.8598 0.3659 0.3562
vn 0.8446 -0.4053 0.3498
vn 0.6581 0.3659 0.6581
vn 0.6464 -0.4053 0.6464
vn 0.3562 0.3659 0.8598
vn 0.3498 -0.4053 0.8446
vn 0.3562 0.3658 0.8598
vn -0.0000 0.3659 0.9307
vn -0.0000 -0.4053 0.9142
vn -0.3561 0.3659 0.8598
vn -0.3498 -0.4053 0.8446
vn -0.6581 0.3659 0.6581
vn -0.6464 -0.4053 0.6464
vn -0.8598 0.3659 0.3562
vn -0.8446 -0.4053 0.3498
vn -0.8598 0.3658 0.3562
vn -0.9307 0.3659 -0.0000
vn -0.9142 -0.4053 -0.0000
vn -0.8598 0.3659 -0.3562
vn -0.8446 -0.4053 -0.3498
vn -0.6581 0.3659 -0.6581
vn -0.6464 -0.4053 -0.6464
vn -0.3562 0.3659 -0.8598
vn -0.3498 -0.4053 -0.8446
vn -0.3562 0.3658 -0.8598
vn -0.0000 0.3659 -0.9307
vn -0.0000 -0.4053 -0.9142
vn 0.3561 0.3659 -0.8598
vn 0.3498 -0.4053 -0.8446
vn 0.6581 0.3659 -0.6581
vn 0.6464 -0.4053 -0.6464
vn -0.3562 0.3659 0.8598
vn 0.8598 0.3659 -0.3562
vn 0.8446 -0.4053 -0.3498
vn 0.8598 0.3658 -0.3562
vn 0.3619 -0.8591 0.3619
vn 0.1958 -0.8591 0.4728
vn 0.2097 -0.8366 0.5061
vn 0.3874 -0.8366 0.3874
vn 0.4728 -0.8591 -0.1958
vn 0.5890 -0.7704 -0.2440
vn 0.6375 -0.7704 -0.0000
vn 0.5118 -0.8591 -0.0000
vn 0.3619 -0.8591 -0.3619
vn 0.4508 -0.7704 -0.4508
vn 0.1958 -0.8591 -0.4728
vn 0.2440 -0.7704 -0.5890
vn -0.0000 -0.8591 -0.5118
vn -0.0000 -0.7704 -0.6375
vn -0.1958 -0.8591 -0.4728
vn -0.2440 -0.7704 -0.5890
vn -0.3619 -0.8591 -0.3619
vn -0.4508 -0.7704 -0.4508
vn -0.4728 -0.8591 -0.1958
vn -0.5890 -0.7704 -0.2440
vn -0.5118 -0.8591 -0.0000
vn -0.6375 -0.7704 -0.0000
vn -0.4728 -0.8591 0.1958
vn -0.5890 -0.7704 0.2440
vn -0.3619 -0.8591 0.3619
vn -0.4508 -0.7704 0.4508
vn -0.1958 -0.8591 0.4728
vn -0.2440 -0.7704 0.5890
vn -0.0000 -0.8591 0.5118
vn -0.0000 -0.7704 0.6375
vn 0.2440 -0.7704 0.5890
vn 0.4508 -0.7704 0.4508
vn 0.4728 -0.8591 0.1958
vn 0.5890 -0.7704 0.2440
vn 0.7793 -0.5371 -0.3228
vn 0.8435 -0.5371 -0.0000
vn 0.5965 -0.5371 -0.5964
vn 0.3228 -0.5371 -0.7793
vn -0.0000 -0.5371 -0.8435
vn -0.3228 -0.5371 -0.7793
vn -0.5964 -0.5371 -0.5965
vn -0.7793 -0.5371 -0.3228
vn -0.8435 -0.5371 -0.0000
vn -0.7793 -0.5371 0.3228
vn -0.5965 -0.5371 0.5964
vn -0.3228 -0.5371 0.7793
vn -0.0000 -0.5371 0.8435
vn 0.3228 -0.5371 0.7793
vn 0.5964 -0.5371 0.5965
vn 0.7793 -0.5371 0.3228
vn 0.9044 -0.2044 -0.3746
vn 0.9789 -0.2044 -0.0000
vn 0.5965 -0.5371 -0.5965
vn 0.6922 -0.2044 -0.6921
vn 0.3746 -0.2044 -0.9044
vn 0.6922 -0.2044 -0.6922
vn 0.5964 -0.5371 -0.5965
vn -0.0000 -0.2044 -0.9789
vn -0.3746 -0.2044 -0.9044
vn -0.5965 -0.5371 -0.5965
vn -0.6921 -0.2044 -0.6922
vn -0.9044 -0.2044 -0.3746
vn -0.6922 -0.2044 -0.6922
vn -0.5965 -0.5371 -0.5964
vn -0.9789 -0.2044 -0.0000
vn -0.9044 -0.2044 0.3746
vn -0.5965 -0.5371 0.5965
vn -0.6922 -0.2044 0.6921
vn -0.3746 -0.2044 0.9044
vn -0.6922 -0.2044 0.6922
vn -0.5964 -0.5371 0.5965
vn -0.0000 -0.2044 0.9789
vn 0.3746 -0.2044 0.9044
vn 0.5965 -0.5371 0.5965
vn 0.6921 -0.2044 0.6922
vn 0.9044 -0.2044 0.3746
vn 0.6922 -0.2044 0.6922
vn 0.5965 -0.5371 0.5964
vn 0.8431 0.4091 -0.3492
vn 0.9125 0.4091 -0.0000
vn 0.6452 0.4090 -0.6453
vn 0.3492 0.4091 -0.8430
vn -0.0000 0.4091 -0.9125
vn -0.3492 0.4091 -0.8431
vn -0.6453 0.4090 -0.6452
vn -0.8431 0.4091 -0.3492
vn -0.9125 0.4091 -0.0000
vn -0.8431 0.4091 0.3492
vn -0.6452 0.4090 0.6453
vn -0.3492 0.4091 0.8430
vn -0.0000 0.4091 0.9125
vn 0.3492 0.4091 0.8431
vn 0.6453 0.4090 0.6452
vn 0.8431 0.4091 0.3492
vn 0.8204 -0.4599 -0.3398
vn 0.8423 -0.4109 -0.3489
vn 0.9117 -0.4109 -0.0000
vn 0.8880 -0.4599 -0.0000
vn 0.6279 -0.4599 -0.6279
vn 0.6446 -0.4109 -0.6447
vn 0.3398 -0.4599 -0.8204
vn 0.3489 -0.4109 -0.8423
vn -0.0000 -0.4599 -0.8880
vn -0.0000 -0.4109 -0.9117
vn -0.3398 -0.4599 -0.8204
vn -0.3489 -0.4109 -0.8423
vn -0.6279 -0.4599 -0.6279
vn -0.6447 -0.4109 -0.6446
vn -0.8204 -0.4599 -0.3398
vn -0.8423 -0.4109 -0.3489
vn -0.8880 -0.4599 -0.0000
vn -0.9117 -0.4109 -0.0000
vn -0.8204 -0.4599 0.3398
vn -0.8423 -0.4109 0.3489
vn -0.6279 -0.4599 0.6279
vn -0.6446 -0.4109 0.6447
vn -0.3398 -0.4599 0.8204
vn -0.3489 -0.4109 0.8423
vn -0.0000 -0.4599 0.8880
vn -0.0000 -0.4109 0.9117
vn 0.3398 -0.4599 0.8204
vn 0.3489 -0.4109 0.8423
vn 0.6279 -0.4599 0.6279
vn 0.6447 -0.4109 0.6446
vn 0.8204 -0.4599 0.3398
vn 0.8423 -0.4109 0.3489
vn 0.8423 -0.4110 -0.3488
vn 0.8446 0.4053 -0.3499
vn 0.9142 0.4053 -0.0000
vn 0.6464 0.4053 -0.6464
vn 0.3498 0.4053 -0.8446
vn -0.0000 0.4053 -0.9142
vn -0.3488 -0.4110 -0.8423
vn -0.3499 0.4053 -0.8446
vn -0.6464 0.4053 -0.6464
vn -0.8446 0.4053 -0.3498
vn -0.9142 0.4053 -0.0000
vn -0.8423 -0.4110 0.3488
vn -0.8446 0.4053 0.3499
vn -0.6464 0.4053 0.6464
vn -0.3498 0.4053 0.8446
vn -0.0000 0.4053 0.9142
vn 0.3488 -0.4110 0.8423
vn 0.3499 0.4053 0.8446
vn 0.6464 0.4053 0.6464
vn 0.8446 0.4053 0.3498
vn 0.8236 -0.4530 -0.3411
vn 0.8915 -0.4530 -0.0000
vn 0.6304 -0.4530 -0.6304
vn 0.3412 -0.4530 -0.8236
vn -0.0000 -0.4530 -0.8915
vn -0.3411 -0.4530 -0.8236
vn -0.6304 -0.4530 -0.6304
vn -0.8236 -0.4530 -0.3412
vn -0.8915 -0.4530 -0.0000
vn -0.8236 -0.4530 0.3411
vn -0.6304 -0.4530 0.6304
vn -0.3412 -0.4530 0.8236
vn -0.0000 -0.4530 0.8915
vn 0.3411 -0.4530 0.8236
vn 0.6304 -0.4530 0.6304
vn 0.8236 -0.4530 0.3412
vn 0.8915 0.4530 -0.0000
vn 0.8236 0.4530 0.3412
vn 0.8446 0.4053 0.3499
vn 0.6304 0.4530 0.6304
vn 0.3412 0.4530 0.8236
vn 0.3498 0.4053 0.8446
vn -0.0000 0.4530 0.8915
vn -0.3411 0.4530 0.8236
vn -0.3499 0.4053 0.8446
vn -0.6304 0.4530 0.6304
vn -0.8236 0.4530 0.3412
vn -0.8446 0.4053 0.3498
vn -0.8915 0.4530 -0.0000
vn -0.8236 0.4530 -0.3412
vn -0.8446 0.4053 -0.3499
vn -0.6304 0.4530 -0.6304
vn -0.3412 0.4530 -0.8236
vn -0.3498 0.4053 -0.8446
vn -0.0000 0.4530 -0.8915
vn 0.3411 0.4530 -0.8236
vn 0.3499 0.4053 -0.8446
vn 0.6304 0.4530 -0.6304
vn 0.8236 0.4530 -0.3412
vn 0.8446 0.4053 -0.3498
vn 0.8892 0.4576 -0.0000
vn 0.8215 0.4576 0.3403
vn 0.6288 0.4576 0.6287
vn 0.3403 0.4576 0.8215
vn 0.3402 0.4576 0.8215
vn -0.0000 0.4576 0.8892
vn -0.3403 0.4576 0.8215
vn -0.6287 0.4576 0.6288
vn -0.8215 0.4576 0.3403
vn -0.8215 0.4576 0.3402
vn -0.8892 0.4576 -0.0000
vn -0.8215 0.4576 -0.3403
vn -0.6288 0.4576 -0.6287
vn -0.3403 0.4576 -0.8215
vn -0.3402 0.4576 -0.8215
vn -0.0000 0.4576 -0.8892
vn 0.3403 0.4576 -0.8215
vn 0.6287 0.4576 -0.6288
vn 0.8215 0.4576 -0.3403
vn 0.8215 0.4576 -0.3402
vn 0.8237 0.4530 0.3411
vn 0.3411 0.4530 0.8236
vn 0.3412 -0.4530 0.8236
vn -0.3411 0.4530 0.8237
vn -0.8236 0.4530 0.3411
vn -0.8236 -0.4530 0.3412
vn -0.8237 0.4530 -0.3411
vn -0.3411 0.4530 -0.8236
vn -0.3412 -0.4530 -0.8236
vn 0.3411 0.4530 -0.8237
vn 0.8236 0.4530 -0.3411
vn 0.8236 -0.4530 -0.3412
vn 0.6452 0.4091 -0.6452
vn 0.6287 0.4576 -0.6287
vn -0.6452 0.4091 -0.6452
vn -0.6287 0.4576 -0.6287
vn -0.8430 0.4091 -0.3492
vn -0.6452 0.4091 0.6452
vn -0.6287 0.4576 0.6287
vn 0.6452 0.4091 0.6452
vn 0.6287 0.4576 0.6287
vn 0.8430 0.4091 0.3492
vn -0.5478 -0.8366 -0.0000
vn -0.5061 -0.8366 0.2097
vn 0.5061 -0.8366 0.2097
vn 0.5478 -0.8366 -0.0000
vn 0.2097 -0.8366 -0.5061
vn -0.0000 -0.8366 -0.5478
vn -0.3874 -0.8366 0.3874
vn -0.2097 -0.8366 0.5061
vn -0.2097 -0.8366 -0.5061
vn -0.3874 -0.8366 -0.3874
vn 0.5061 -0.8366 -0.2097
vn -0.0000 -0.8366 0.5478
vn -0.5061 -0.8366 -0.2097
vn 0.3874 -0.8366 -0.3874
vn -0.8598 0.3659 -0.3561
vn 0.8598 0.3659 -0.3561
vn 0.3561 0.3659 0.8598
vn -0.8598 0.3659 0.3561
vn 0.8598 0.3659 0.3561
vn 0.3562 0.3659 -0.8598
vn -0.3561 0.3659 -0.8598
vt 0.064530 0.808673
vt 0.050880 0.841626
vt 0.140539 0.859461
vt 0.191327 0.935470
vt 0.216549 0.910249
vt 0.089751 0.783451
vt 0.158374 0.949120
vt 0.122705 0.769801
vt 0.122705 0.949120
vt 0.158374 0.769801
vt 0.089751 0.935470
vt 0.191327 0.783451
vt 0.064530 0.910249
vt 0.216549 0.808673
vt 0.050880 0.877295
vt 0.230199 0.877295
vt 0.230199 0.841626
vt 0.339723 0.292053
vt 0.309134 0.292053
vt 0.309134 0.336802
vt 0.339723 0.336802
vt 0.309134 0.378145
vt 0.339723 0.378145
vt 0.309134 0.409787
vt 0.339723 0.409787
vt 0.426422 0.250710
vt 0.395834 0.250710
vt 0.395834 0.292053
vt 0.426422 0.292053
vt 0.395834 0.336802
vt 0.426422 0.336802
vt 0.395834 0.378145
vt 0.426422 0.378145
vt 0.395834 0.409787
vt 0.426422 0.409787
vt 0.513122 0.250710
vt 0.482533 0.250710
vt 0.482533 0.292053
vt 0.513122 0.292053
vt 0.482533 0.336802
vt 0.513122 0.336802
vt 0.482533 0.378145
vt 0.513122 0.378145
vt 0.482533 0.409787
vt 0.513122 0.409787
vt 0.818321 0.551648
vt 0.787733 0.551648
vt 0.787733 0.592990
vt 0.818321 0.592990
vt 0.787733 0.637739
vt 0.818321 0.637739
vt 0.787733 0.679082
vt 0.818321 0.679082
vt 0.118165 0.971945
vt 0.162914 0.971945
vt 0.787733 0.710724
vt 0.818321 0.710724
vt 0.339723 0.250710
vt 0.309134 0.250710
vt 0.727621 0.817228
vt 0.705007 0.807861
vt 0.701818 0.823893
vt 0.718540 0.830820
vt 0.754296 0.881629
vt 0.777478 0.886240
vt 0.777478 0.852540
vt 0.754296 0.857151
vt 0.744929 0.904243
vt 0.764582 0.917374
vt 0.727621 0.921551
vt 0.740753 0.941204
vt 0.705007 0.930918
vt 0.709618 0.954100
vt 0.680529 0.930918
vt 0.675918 0.954100
vt 0.657915 0.921551
vt 0.644783 0.941204
vt 0.640607 0.904243
vt 0.620954 0.917374
vt 0.631240 0.881629
vt 0.608057 0.886240
vt 0.631240 0.857151
vt 0.608057 0.852540
vt 0.640607 0.834537
vt 0.620954 0.821405
vt 0.657915 0.817228
vt 0.644783 0.797576
vt 0.680529 0.807861
vt 0.675918 0.784679
vt 0.709618 0.784679
vt 0.740753 0.797576
vt 0.744929 0.834537
vt 0.764582 0.821405
vt 0.795323 0.889789
vt 0.795323 0.848990
vt 0.779710 0.927482
vt 0.750861 0.956332
vt 0.713167 0.971945
vt 0.672369 0.971945
vt 0.634675 0.956332
vt 0.605826 0.927482
vt 0.590213 0.889789
vt 0.590213 0.848990
vt 0.605826 0.811297
vt 0.634675 0.782448
vt 0.672369 0.766835
vt 0.713167 0.766835
vt 0.750861 0.782448
vt 0.779710 0.811297
vt 0.632862 0.588914
vt 0.617661 0.583290
vt 0.617661 0.624632
vt 0.632862 0.626608
vt 0.632862 0.560065
vt 0.617661 0.551648
vt 0.632862 0.452219
vt 0.617661 0.454194
vt 0.617661 0.495537
vt 0.632862 0.489912
vt 0.632862 0.411420
vt 0.617661 0.409445
vt 0.632862 0.373727
vt 0.617661 0.368103
vt 0.632862 0.344878
vt 0.617661 0.336460
vt 0.731622 0.667406
vt 0.716421 0.669381
vt 0.716421 0.710724
vt 0.731622 0.705100
vt 0.731622 0.626608
vt 0.716421 0.624632
vt 0.731622 0.588914
vt 0.716421 0.583290
vt 0.731622 0.560065
vt 0.716421 0.551648
vt 0.731622 0.452219
vt 0.716421 0.454194
vt 0.716421 0.495537
vt 0.731622 0.489912
vt 0.731622 0.411420
vt 0.716421 0.409445
vt 0.731622 0.373727
vt 0.716421 0.368103
vt 0.731622 0.344878
vt 0.716421 0.336460
vt 0.632862 0.667406
vt 0.617661 0.669381
vt 0.617661 0.710724
vt 0.632862 0.705100
vt 0.590213 0.583290
vt 0.590213 0.624632
vt 0.590213 0.551648
vt 0.590213 0.454194
vt 0.590213 0.495537
vt 0.590213 0.409445
vt 0.590213 0.368103
vt 0.590213 0.336460
vt 0.688973 0.669381
vt 0.688973 0.710724
vt 0.688973 0.624632
vt 0.688973 0.583290
vt 0.688973 0.551648
vt 0.688973 0.454194
vt 0.688973 0.495537
vt 0.688973 0.409445
vt 0.688973 0.368103
vt 0.688973 0.336460
vt 0.590213 0.669381
vt 0.590213 0.710724
vt 0.241177 0.598400
vt 0.253023 0.600756
vt 0.253023 0.556007
vt 0.241177 0.558364
vt 0.225856 0.635388
vt 0.235899 0.642099
vt 0.197546 0.663698
vt 0.204256 0.673741
vt 0.160557 0.679019
vt 0.162914 0.690866
vt 0.120521 0.679019
vt 0.118165 0.690866
vt 0.083533 0.663698
vt 0.076822 0.673741
vt 0.055223 0.635388
vt 0.045180 0.642099
vt 0.039902 0.598400
vt 0.028055 0.600756
vt 0.039902 0.558364
vt 0.028055 0.556007
vt 0.055223 0.521375
vt 0.045180 0.514665
vt 0.083533 0.493066
vt 0.076822 0.483022
vt 0.120521 0.477744
vt 0.118165 0.465898
vt 0.160557 0.477744
vt 0.162914 0.465898
vt 0.197546 0.493066
vt 0.204256 0.483022
vt 0.225856 0.521375
vt 0.235899 0.514665
vt 0.814825 0.336460
vt 0.787733 0.336460
vt 0.787733 0.377803
vt 0.814825 0.377803
vt 0.878527 0.940302
vt 0.851434 0.940302
vt 0.851434 0.971945
vt 0.878527 0.971945
vt 0.878527 0.898960
vt 0.851434 0.898960
vt 0.878527 0.854211
vt 0.851434 0.854211
vt 0.878527 0.812868
vt 0.851434 0.812868
vt 0.617306 0.248707
vt 0.590213 0.248707
vt 0.590213 0.280350
vt 0.617306 0.280350
vt 0.617306 0.207365
vt 0.590213 0.207365
vt 0.617306 0.162616
vt 0.590213 0.162616
vt 0.617306 0.121273
vt 0.590213 0.121273
vt 0.700510 0.248707
vt 0.673417 0.248707
vt 0.673417 0.280349
vt 0.700510 0.280349
vt 0.700510 0.207365
vt 0.673417 0.207365
vt 0.700510 0.162616
vt 0.673417 0.162616
vt 0.700510 0.121273
vt 0.673417 0.121273
vt 0.814825 0.463895
vt 0.787733 0.463895
vt 0.787733 0.495537
vt 0.814825 0.495537
vt 0.814825 0.422552
vt 0.787733 0.422552
vt 0.522665 0.879560
vt 0.534102 0.881835
vt 0.534102 0.837086
vt 0.522665 0.839361
vt 0.507281 0.916699
vt 0.516978 0.923178
vt 0.478857 0.945124
vt 0.485335 0.954820
vt 0.441718 0.960507
vt 0.443993 0.971945
vt 0.401519 0.960507
vt 0.399244 0.971945
vt 0.364380 0.945124
vt 0.357901 0.954820
vt 0.335955 0.916699
vt 0.326259 0.923178
vt 0.320572 0.879560
vt 0.309134 0.881835
vt 0.320572 0.839361
vt 0.309134 0.837086
vt 0.335955 0.802222
vt 0.326259 0.795744
vt 0.364380 0.773798
vt 0.357901 0.764101
vt 0.401519 0.758414
vt 0.399244 0.746977
vt 0.441718 0.758414
vt 0.443993 0.746977
vt 0.478857 0.773798
vt 0.485335 0.764101
vt 0.507281 0.802222
vt 0.516978 0.795743
vt 0.534102 0.556007
vt 0.522665 0.558282
vt 0.522665 0.598481
vt 0.534102 0.600756
vt 0.507281 0.635620
vt 0.516978 0.642099
vt 0.478857 0.664045
vt 0.485335 0.673741
vt 0.441718 0.679428
vt 0.443993 0.690866
vt 0.401519 0.679428
vt 0.399244 0.690866
vt 0.364380 0.664045
vt 0.357901 0.673741
vt 0.335955 0.635620
vt 0.326259 0.642099
vt 0.320572 0.598481
vt 0.309134 0.600756
vt 0.320572 0.558282
vt 0.309134 0.556007
vt 0.335955 0.521144
vt 0.326259 0.514665
vt 0.364380 0.492719
vt 0.357901 0.483022
vt 0.401519 0.477335
vt 0.399244 0.465898
vt 0.441718 0.477335
vt 0.443993 0.465898
vt 0.478857 0.492719
vt 0.485335 0.483022
vt 0.507281 0.521143
vt 0.516978 0.514665
vt 0.346442 0.089265
vt 0.309134 0.089265
vt 0.309134 0.129301
vt 0.346442 0.129301
vt 0.309134 0.166290
vt 0.346442 0.166290
vt 0.309134 0.194600
vt 0.346442 0.194600
vt 0.439860 0.052277
vt 0.402552 0.052277
vt 0.402552 0.089265
vt 0.439860 0.089265
vt 0.402552 0.129301
vt 0.439860 0.129301
vt 0.402552 0.166290
vt 0.439860 0.166290
vt 0.402552 0.194600
vt 0.439860 0.194600
vt 0.533278 0.052277
vt 0.495971 0.052277
vt 0.495971 0.089265
vt 0.533278 0.089265
vt 0.495971 0.129301
vt 0.533278 0.129301
vt 0.495971 0.166290
vt 0.533278 0.166290
vt 0.495971 0.194600
vt 0.533278 0.194600
vt 0.971945 0.829622
vt 0.934637 0.829622
vt 0.934637 0.866610
vt 0.971945 0.866610
vt 0.934637 0.906646
vt 0.971945 0.906646
vt 0.934637 0.943635
vt 0.971945 0.943635
vt 0.934637 0.971945
vt 0.971945 0.971945
vt 0.346442 0.052277
vt 0.309134 0.052277
vt 0.799477 0.174587
vt 0.756620 0.174587
vt 0.756620 0.214786
vt 0.799477 0.214786
vt 0.756620 0.251925
vt 0.799477 0.251925
vt 0.756620 0.280349
vt 0.799477 0.280349
vt 0.898444 0.137448
vt 0.855587 0.137448
vt 0.855587 0.174587
vt 0.898444 0.174587
vt 0.855587 0.214786
vt 0.898444 0.214786
vt 0.855587 0.251925
vt 0.898444 0.251925
vt 0.855587 0.280349
vt 0.898444 0.280349
vt 0.913792 0.352635
vt 0.870936 0.352635
vt 0.870936 0.389774
vt 0.913792 0.389774
vt 0.870936 0.429973
vt 0.913792 0.429973
vt 0.870936 0.467112
vt 0.913792 0.467112
vt 0.870936 0.495537
vt 0.913792 0.495537
vt 0.917288 0.567823
vt 0.874432 0.567823
vt 0.874432 0.604962
vt 0.917288 0.604962
vt 0.874432 0.645160
vt 0.917288 0.645160
vt 0.874432 0.682299
vt 0.917288 0.682299
vt 0.874432 0.710724
vt 0.917288 0.710724
vt 0.799477 0.137448
vt 0.756620 0.137448
vt 0.235899 0.233586
vt 0.225856 0.240296
vt 0.241177 0.277285
vt 0.253023 0.274928
vt 0.204256 0.201944
vt 0.197546 0.211987
vt 0.162914 0.184819
vt 0.160557 0.196666
vt 0.118165 0.184819
vt 0.120521 0.196666
vt 0.076822 0.201944
vt 0.083533 0.211987
vt 0.045180 0.233586
vt 0.055223 0.240296
vt 0.028055 0.274928
vt 0.039902 0.277285
vt 0.028055 0.319677
vt 0.039902 0.317321
vt 0.045180 0.361020
vt 0.055223 0.354309
vt 0.076822 0.392662
vt 0.083533 0.382619
vt 0.118165 0.409787
vt 0.120521 0.397940
vt 0.162914 0.409787
vt 0.160557 0.397940
vt 0.204256 0.392662
vt 0.197546 0.382619
vt 0.235899 0.361020
vt 0.225856 0.354309
vt 0.253023 0.319677
vt 0.241177 0.317321
vt 0.647272 0.878440
vt 0.647272 0.860340
vt 0.731338 0.843618
vt 0.738264 0.860340
vt 0.718540 0.907960
vt 0.701818 0.914886
vt 0.654198 0.843618
vt 0.666996 0.830820
vt 0.683718 0.914886
vt 0.666996 0.907960
vt 0.738264 0.878440
vt 0.683718 0.823893
vt 0.654198 0.895161
vt 0.731338 0.895161
vt 0.045180 0.795744
vt 0.028055 0.837086
vt 0.235899 0.795743
vt 0.204256 0.764101
vt 0.204257 0.954820
vt 0.235899 0.923178
vt 0.028055 0.881835
vt 0.045180 0.923178
vt 0.253023 0.881835
vt 0.253023 0.837086
vt 0.162914 0.746977
vt 0.118165 0.746977
vt 0.076822 0.954820
vt 0.076822 0.764101
s 1
usemtl Material.007
f 1007/440/382 1006/441/383 1013/442/384
f 1000/443/385 999/444/386 1013/442/384
f 1008/445/387 1007/440/382 1013/442/384
f 1001/446/388 1000/443/385 1013/442/384
f 1009/447/389 1008/445/387 1013/442/384
f 1002/448/390 1001/446/388 1013/442/384
f 1010/449/391 1009/447/389 1013/442/384
f 1003/450/392 1002/448/390 1013/442/384
f 1011/451/393 1010/449/391 1013/442/384
f 1004/452/394 1003/450/392 1013/442/384
f 1012/453/395 1011/451/393 1013/442/384
f 1005/454/396 1004/452/394 1013/442/384
f 998/455/397 997/456/398 1013/442/384
f 997/456/398 1012/453/395 1013/442/384
f 1006/441/383 1005/454/396 1013/442/384
f 999/444/386 998/455/397 1013/442/384
f 802/457/399 570/458/400 574/459/401
f 802/457/399 574/459/401 804/460/402
f 804/460/402 574/459/401 577/461/403
f 804/460/402 577/461/403 806/462/404
f 806/462/404 577/461/403 580/463/405
f 806/462/404 580/463/405 808/464/406
f 807/465/406 581/466/407 584/467/408
f 807/465/406 584/467/408 810/468/409
f 810/468/409 584/467/408 587/469/410
f 810/468/409 587/469/410 812/470/411
f 812/470/411 587/469/410 589/471/412
f 812/470/411 589/471/412 814/472/413
f 814/472/413 589/471/412 592/473/414
f 814/472/413 592/473/414 816/474/415
f 817/475/415 593/476/416 596/477/417
f 817/475/415 596/477/417 820/478/418
f 820/478/418 596/477/417 599/479/419
f 820/478/418 599/479/419 822/480/420
f 822/480/420 599/479/419 602/481/421
f 822/480/420 602/481/421 824/482/422
f 824/482/422 602/481/421 605/483/423
f 824/482/422 605/483/423 827/484/424
f 826/485/424 606/486/425 609/487/426
f 826/485/424 609/487/426 829/488/427
f 829/488/427 609/487/426 612/489/428
f 829/488/427 612/489/428 831/490/429
f 831/490/429 612/489/428 615/491/430
f 831/490/429 615/491/430 833/492/431
f 586/493/432 583/494/408 1001/446/388
f 586/493/432 1001/446/388 1002/448/390
f 833/492/431 615/491/430 618/495/433
f 833/492/431 618/495/433 836/496/434
f 835/497/434 619/498/435 570/458/400
f 835/497/434 570/458/400 802/457/399
f 575/499/436 578/500/437 984/501/438
f 575/499/436 984/501/438 983/502/439
f 617/503/440 636/504/441 621/505/442
f 617/503/440 621/505/442 569/506/443
f 614/507/444 635/508/445 636/504/441
f 614/507/444 636/504/441 617/503/440
f 611/509/446 634/510/447 635/508/445
f 611/509/446 635/508/445 614/507/444
f 608/511/448 633/512/449 634/510/447
f 608/511/448 634/510/447 611/509/446
f 604/513/450 632/514/451 633/512/449
f 604/513/450 633/512/449 608/511/448
f 601/515/452 631/516/453 632/514/451
f 601/515/452 632/514/451 604/513/450
f 598/517/454 630/518/455 631/516/453
f 598/517/454 631/516/453 601/515/452
f 595/519/456 629/520/457 630/518/455
f 595/519/456 630/518/455 598/517/454
f 591/521/458 628/522/459 629/520/457
f 591/521/458 629/520/457 595/519/456
f 588/523/460 627/524/461 628/522/459
f 588/523/460 628/522/459 591/521/458
f 585/525/462 626/526/463 627/524/461
f 585/525/462 627/524/461 588/523/460
f 582/527/464 625/528/465 626/526/463
f 582/527/464 626/526/463 585/525/462
f 578/500/437 624/529/466 625/528/465
f 578/500/437 625/528/465 582/527/464
f 575/499/436 623/530/467 624/529/466
f 575/499/436 624/529/466 578/500/437
f 572/531/468 622/532/469 623/530/467
f 572/531/468 623/530/467 575/499/436
f 569/506/443 621/505/442 622/532/469
f 569/506/443 622/532/469 572/531/468
f 636/504/441 671/533/470 637/534/471
f 636/504/441 637/534/471 621/505/442
f 635/508/445 668/535/472 671/533/470
f 635/508/445 671/533/470 636/504/441
f 634/510/447 666/536/473 668/535/472
f 634/510/447 668/535/472 635/508/445
f 633/512/449 664/537/474 666/536/473
f 633/512/449 666/536/473 634/510/447
f 632/514/451 662/538/475 664/537/474
f 632/514/451 664/537/474 633/512/449
f 631/516/453 659/539/476 662/538/475
f 631/516/453 662/538/475 632/514/451
f 630/518/455 657/540/477 659/539/476
f 630/518/455 659/539/476 631/516/453
f 629/520/457 655/541/478 657/540/477
f 629/520/457 657/540/477 630/518/455
f 628/522/459 653/542/479 655/541/478
f 628/522/459 655/541/478 629/520/457
f 627/524/461 651/543/480 653/542/479
f 627/524/461 653/542/479 628/522/459
f 626/526/463 649/544/481 651/543/480
f 626/526/463 651/543/480 627/524/461
f 625/528/465 647/545/482 649/544/481
f 625/528/465 649/544/481 626/526/463
f 624/529/466 645/546/483 647/545/482
f 624/529/466 647/545/482 625/528/465
f 623/530/467 642/547/484 645/546/483
f 623/530/467 645/546/483 624/529/466
f 622/532/469 639/548/485 642/547/484
f 622/532/469 642/547/484 623/530/467
f 621/505/442 637/534/471 639/548/485
f 621/505/442 639/548/485 622/532/469
f 672/549/470 692/550/486 673/551/487
f 672/549/470 673/551/487 638/552/471
f 669/553/488 690/554/489 692/550/486
f 669/553/488 692/550/486 672/549/470
f 667/555/473 689/556/490 691/557/491
f 667/555/473 691/557/491 670/558/492
f 665/559/474 688/560/493 689/556/490
f 665/559/474 689/556/490 667/555/473
f 663/561/475 687/562/494 688/560/493
f 663/561/475 688/560/493 665/559/474
f 661/563/495 686/564/496 687/562/494
f 661/563/495 687/562/494 663/561/475
f 658/565/477 684/566/497 685/567/498
f 658/565/477 685/567/498 660/568/499
f 656/569/478 683/570/500 684/566/497
f 656/569/478 684/566/497 658/565/477
f 654/571/479 682/572/501 683/570/500
f 654/571/479 683/570/500 656/569/478
f 652/573/502 681/574/503 682/572/501
f 652/573/502 682/572/501 654/571/479
f 648/575/481 679/576/504 680/577/505
f 648/575/481 680/577/505 650/578/506
f 646/579/482 678/580/507 679/576/504
f 646/579/482 679/576/504 648/575/481
f 644/581/483 677/582/508 678/580/507
f 644/581/483 678/580/507 646/579/482
f 641/583/509 675/584/510 677/582/508
f 641/583/509 677/582/508 644/581/483
f 640/585/485 674/586/511 676/587/512
f 640/585/485 676/587/512 643/588/513
f 638/552/471 673/551/487 674/586/511
f 638/552/471 674/586/511 640/585/485
f 692/550/486 727/589/514 693/590/515
f 692/550/486 693/590/515 673/551/487
f 690/554/489 724/591/516 727/589/514
f 690/554/489 727/589/514 692/550/486
f 689/556/490 722/592/517 725/593/516
f 689/556/490 725/593/516 691/557/491
f 688/560/493 720/594/518 722/592/517
f 688/560/493 722/592/517 689/556/490
f 687/562/494 718/595/519 720/594/518
f 687/562/494 720/594/518 688/560/493
f 686/564/496 715/596/520 718/595/519
f 686/564/496 718/595/519 687/562/494
f 684/566/497 713/597/521 716/598/520
f 684/566/497 716/598/520 685/567/498
f 683/570/500 711/599/522 713/597/521
f 683/570/500 713/597/521 684/566/497
f 682/572/501 709/600/523 711/599/522
f 682/572/501 711/599/522 683/570/500
f 681/574/503 706/601/524 709/600/523
f 681/574/503 709/600/523 682/572/501
f 679/576/504 705/602/525 707/603/524
f 679/576/504 707/603/524 680/577/505
f 678/580/507 703/604/526 705/602/525
f 678/580/507 705/602/525 679/576/504
f 677/582/508 701/605/527 703/604/526
f 677/582/508 703/604/526 678/580/507
f 675/584/510 698/606/528 701/605/527
f 675/584/510 701/605/527 677/582/508
f 674/586/511 696/607/529 699/608/528
f 674/586/511 699/608/528 676/587/512
f 673/551/487 693/590/515 696/607/529
f 673/551/487 696/607/529 674/586/511
f 904/609/530 762/610/531 729/611/532
f 904/609/530 729/611/532 907/612/533
f 902/613/534 760/614/535 762/610/531
f 902/613/534 762/610/531 904/609/530
f 900/615/536 758/616/537 760/614/535
f 900/615/536 760/614/535 902/613/534
f 898/617/538 756/618/539 758/616/537
f 898/617/538 758/616/537 900/615/536
f 895/619/540 753/620/541 756/618/539
f 895/619/540 756/618/539 898/617/538
f 893/621/542 751/622/543 753/620/541
f 893/621/542 753/620/541 895/619/540
f 891/623/544 749/624/545 751/622/543
f 891/623/544 751/622/543 893/621/542
f 889/625/546 747/626/547 749/624/545
f 889/625/546 749/624/545 891/623/544
f 888/627/548 746/628/549 747/626/547
f 888/627/548 747/626/547 889/625/546
f 885/629/550 743/630/551 746/628/549
f 885/629/550 746/628/549 888/627/548
f 883/631/552 741/632/553 743/630/551
f 883/631/552 743/630/551 885/629/550
f 881/633/554 739/634/555 741/632/553
f 881/633/554 741/632/553 883/631/552
f 879/635/556 737/636/557 739/634/555
f 879/635/556 739/634/555 881/633/554
f 875/637/558 733/638/559 737/636/557
f 875/637/558 737/636/557 879/635/556
f 873/639/560 731/640/561 733/638/559
f 873/639/560 733/638/559 875/637/558
f 907/612/533 729/611/532 731/640/561
f 907/612/533 731/640/561 873/639/560
f 764/641/562 799/642/563 765/643/564
f 764/641/562 765/643/564 730/644/532
f 761/645/535 796/646/565 798/647/563
f 761/645/535 798/647/563 763/648/531
f 759/649/537 794/650/566 796/646/565
f 759/649/537 796/646/565 761/645/535
f 757/651/539 792/652/567 794/650/566
f 757/651/539 794/650/566 759/649/537
f 755/653/568 790/654/569 792/652/567
f 755/653/568 792/652/567 757/651/539
f 752/655/543 787/656/570 789/657/569
f 752/655/543 789/657/569 754/658/541
f 750/659/545 785/660/571 787/656/570
f 750/659/545 787/656/570 752/655/543
f 748/661/547 783/662/572 785/660/571
f 748/661/547 785/660/571 750/659/545
f 744/663/573 780/664/574 783/662/572
f 744/663/573 783/662/572 748/661/547
f 742/665/551 778/666/575 781/667/574
f 742/665/551 781/667/574 745/668/549
f 740/669/553 777/670/576 778/666/575
f 740/669/553 778/666/575 742/665/551
f 738/671/555 775/672/577 777/670/576
f 738/671/555 777/670/576 740/669/553
f 735/673/578 772/674/579 775/672/577
f 735/673/578 775/672/577 738/671/555
f 734/675/559 770/676/580 773/677/579
f 734/675/559 773/677/579 736/678/557
f 732/679/561 768/680/581 770/676/580
f 732/679/561 770/676/580 734/675/559
f 730/644/532 765/643/564 768/680/581
f 730/644/532 768/680/581 732/679/561
f 942/681/582 834/682/434 801/683/399
f 942/681/582 801/683/399 909/684/583
f 940/685/584 832/686/431 834/682/434
f 940/685/584 834/682/434 942/681/582
f 938/687/585 830/688/429 832/686/431
f 938/687/585 832/686/431 940/685/584
f 936/689/586 828/690/427 830/688/429
f 936/689/586 830/688/429 938/687/585
f 933/691/587 825/692/424 828/690/427
f 933/691/587 828/690/427 936/689/586
f 931/693/588 823/694/422 825/692/424
f 931/693/588 825/692/424 933/691/587
f 929/695/589 821/696/420 823/694/422
f 929/695/589 823/694/422 931/693/588
f 927/697/590 819/698/418 821/696/420
f 927/697/590 821/696/420 929/695/589
f 926/699/591 818/700/415 819/698/418
f 926/699/591 819/698/418 927/697/590
f 923/701/592 815/702/413 818/700/415
f 923/701/592 818/700/415 926/699/591
f 921/703/593 813/704/411 815/702/413
f 921/703/593 815/702/413 923/701/592
f 919/705/594 811/706/409 813/704/411
f 919/705/594 813/704/411 921/703/593
f 917/707/595 809/708/406 811/706/409
f 917/707/595 811/706/409 919/705/594
f 913/709/596 805/710/404 809/708/406
f 913/709/596 809/708/406 917/707/595
f 911/711/597 803/712/402 805/710/404
f 911/711/597 805/710/404 913/709/596
f 909/684/583 801/683/399 803/712/402
f 909/684/583 803/712/402 911/711/597
f 766/713/564 872/714/598 837/715/599
f 766/713/564 837/715/599 767/716/600
f 767/716/600 837/715/599 839/717/601
f 767/716/600 839/717/601 769/718/580
f 769/718/580 839/717/601 841/719/602
f 769/718/580 841/719/602 771/720/603
f 771/720/603 841/719/602 844/721/604
f 771/720/603 844/721/604 774/722/577
f 774/722/577 844/721/604 846/723/605
f 774/722/577 846/723/605 776/724/606
f 776/724/606 846/723/605 849/725/607
f 776/724/606 849/725/607 779/726/575
f 779/726/575 849/725/607 852/727/608
f 779/726/575 852/727/608 782/728/609
f 782/728/609 852/727/608 854/729/610
f 782/728/609 854/729/610 784/730/572
f 784/730/572 854/729/610 856/731/611
f 784/730/572 856/731/611 786/732/612
f 786/732/612 856/731/611 858/733/613
f 786/732/612 858/733/613 788/734/570
f 788/734/570 858/733/613 861/735/614
f 788/734/570 861/735/614 791/736/615
f 791/736/615 861/735/614 863/737/616
f 791/736/615 863/737/616 793/738/567
f 793/738/567 863/737/616 865/739/617
f 793/738/567 865/739/617 795/740/618
f 795/740/618 865/739/617 867/741/619
f 795/740/618 867/741/619 797/742/565
f 797/742/565 867/741/619 870/743/620
f 797/742/565 870/743/620 800/744/621
f 800/744/621 870/743/620 872/714/598
f 800/744/621 872/714/598 766/713/564
f 979/745/622 908/746/533 874/747/560
f 979/745/622 874/747/560 946/748/623
f 946/748/623 874/747/560 876/749/558
f 946/748/623 876/749/558 948/750/624
f 948/750/624 876/749/558 877/751/556
f 948/750/624 877/751/556 950/752/625
f 951/753/626 878/754/556 880/755/554
f 951/753/626 880/755/554 953/756/627
f 953/756/627 880/755/554 882/757/552
f 953/756/627 882/757/552 955/758/628
f 955/758/628 882/757/552 884/759/550
f 955/758/628 884/759/550 956/760/629
f 956/760/629 884/759/550 886/761/548
f 956/760/629 886/761/548 959/762/630
f 958/763/631 887/764/548 890/765/546
f 958/763/631 890/765/546 961/766/632
f 961/766/632 890/765/546 892/767/544
f 961/766/632 892/767/544 963/768/633
f 963/768/633 892/767/544 894/769/542
f 963/768/633 894/769/542 965/770/634
f 965/770/634 894/769/542 896/771/540
f 965/770/634 896/771/540 968/772/635
f 967/773/636 897/774/540 899/775/538
f 967/773/636 899/775/538 970/776/637
f 970/776/637 899/775/538 901/777/536
f 970/776/637 901/777/536 972/778/638
f 972/778/638 901/777/536 903/779/534
f 972/778/638 903/779/534 974/780/639
f 974/780/639 903/779/534 905/781/530
f 974/780/639 905/781/530 976/782/640
f 977/783/641 906/784/530 908/746/533
f 977/783/641 908/746/533 979/745/622
f 871/785/598 910/786/583 912/787/597
f 871/785/598 912/787/597 838/788/642
f 838/788/642 912/787/597 914/789/596
f 838/788/642 914/789/596 840/790/601
f 840/790/601 914/789/596 916/791/595
f 840/790/601 916/791/595 842/792/643
f 843/793/602 915/794/644 918/795/594
f 843/793/602 918/795/594 845/796/604
f 845/796/604 918/795/594 920/797/593
f 845/796/604 920/797/593 847/798/645
f 847/798/645 920/797/593 922/799/592
f 847/798/645 922/799/592 848/800/607
f 848/800/607 922/799/592 924/801/591
f 848/800/607 924/801/591 851/802/646
f 850/803/608 925/804/647 928/805/590
f 850/803/608 928/805/590 853/806/610
f 853/806/610 928/805/590 930/807/589
f 853/806/610 930/807/589 855/808/648
f 855/808/648 930/807/589 932/809/588
f 855/808/648 932/809/588 857/810/613
f 857/810/613 932/809/588 934/811/587
f 857/810/613 934/811/587 860/812/649
f 859/813/614 935/814/650 937/815/586
f 859/813/614 937/815/586 862/816/616
f 862/816/616 937/815/586 939/817/585
f 862/816/616 939/817/585 864/818/651
f 864/818/651 939/817/585 941/819/584
f 864/818/651 941/819/584 866/820/619
f 866/820/619 941/819/584 943/821/582
f 866/820/619 943/821/582 868/822/652
f 869/823/620 944/824/653 910/786/583
f 869/823/620 910/786/583 871/785/598
f 728/825/514 978/826/640 980/827/622
f 728/825/514 980/827/622 694/828/515
f 726/829/654 975/830/655 978/826/640
f 726/829/654 978/826/640 728/825/514
f 723/831/517 973/832/638 975/830/655
f 723/831/517 975/830/655 726/829/654
f 721/833/518 971/834/637 973/832/638
f 721/833/518 973/832/638 723/831/517
f 719/835/519 969/836/635 971/834/637
f 719/835/519 971/834/637 721/833/518
f 717/837/656 966/838/657 969/836/635
f 717/837/656 969/836/635 719/835/519
f 714/839/658 964/840/633 966/838/657
f 714/839/658 966/838/657 717/837/656
f 712/841/522 962/842/632 964/840/633
f 712/841/522 964/840/633 714/839/658
f 710/843/523 960/844/630 962/842/632
f 710/843/523 962/842/632 712/841/522
f 708/845/659 957/846/660 960/844/630
f 708/845/659 960/844/630 710/843/523
f 704/847/525 954/848/628 957/846/660
f 704/847/525 957/846/660 708/845/659
f 702/849/526 952/850/627 954/848/628
f 702/849/526 954/848/628 704/847/525
f 700/851/527 949/852/625 952/850/627
f 700/851/527 952/850/627 702/849/526
f 697/853/661 947/854/662 949/852/625
f 697/853/661 949/852/625 700/851/527
f 695/855/663 945/856/623 947/854/662
f 695/855/663 947/854/662 697/853/661
f 694/828/515 980/827/622 945/856/623
f 694/828/515 945/856/623 695/855/663
f 591/521/458 595/519/456 989/857/664
f 591/521/458 989/857/664 988/858/665
f 569/506/443 572/531/468 982/859/666
f 569/506/443 982/859/666 981/860/667
f 608/511/448 611/509/446 994/861/668
f 608/511/448 994/861/668 993/862/669
f 585/525/462 588/523/460 987/863/670
f 585/525/462 987/863/670 986/864/671
f 601/515/452 604/513/450 992/865/672
f 601/515/452 992/865/672 991/866/673
f 617/503/440 569/506/443 981/860/667
f 617/503/440 981/860/667 996/867/674
f 578/500/437 582/527/464 985/868/675
f 578/500/437 985/868/675 984/501/438
f 595/519/456 598/517/454 990/869/676
f 595/519/456 990/869/676 989/857/664
f 611/509/446 614/507/444 995/870/677
f 611/509/446 995/870/677 994/861/668
f 572/531/468 575/499/436 983/502/439
f 572/531/468 983/502/439 982/859/666
f 588/523/460 591/521/458 988/858/665
f 588/523/460 988/858/665 987/863/670
f 604/513/450 608/511/448 993/862/669
f 604/513/450 993/862/669 992/865/672
f 582/527/464 585/525/462 986/864/671
f 582/527/464 986/864/671 985/868/675
f 598/517/454 601/515/452 991/866/673
f 598/517/454 991/866/673 990/869/676
f 614/507/444 617/503/440 996/867/674
f 614/507/444 996/867/674 995/870/677
f 603/871/421 600/872/678 1006/441/383
f 603/871/421 1006/441/383 1007/440/382
f 620/873/679 616/874/430 1011/451/393
f 620/873/679 1011/451/393 1012/453/395
f 579/875/680 576/876/403 999/444/386
f 579/875/680 999/444/386 1000/443/385
f 597/877/417 594/878/681 1004/452/394
f 597/877/417 1004/452/394 1005/454/396
f 573/879/682 571/880/400 997/456/398
f 573/879/682 997/456/398 998/455/397
f 613/881/683 610/882/426 1009/447/389
f 613/881/683 1009/447/389 1010/449/391
f 590/883/412 586/493/432 1002/448/390
f 590/883/412 1002/448/390 1003/450/392
f 607/884/684 603/871/421 1007/440/382
f 607/884/684 1007/440/382 1008/445/387
f 571/880/400 620/873/679 1012/453/395
f 571/880/400 1012/453/395 997/456/398
f 583/494/408 579/875/680 1000/443/385
f 583/494/408 1000/443/385 1001/446/388
f 600/872/678 597/877/417 1005/454/396
f 600/872/678 1005/454/396 1006/441/383
f 616/874/430 613/881/683 1010/449/391
f 616/874/430 1010/449/391 1011/451/393
f 576/876/403 573/879/682 998/455/397
f 576/876/403 998/455/397 999/444/386
f 594/878/681 590/883/412 1003/450/392
f 594/878/681 1003/450/392 1004/452/394
f 610/882/426 607/884/684 1008/445/387
f 610/882/426 1008/445/387 1009/447/389
