# Blender 4.5.3 LTS
# www.blender.org
mtllib mesascompus_vendedores.mtl
o desk
v 1.238654 0.935327 -0.568021
v 1.362700 0.935327 -0.491832
v 1.362700 0.935327 0.517387
v 1.238654 0.935327 0.593576
v -1.372781 0.935327 -0.491832
v -1.248735 0.935327 -0.568021
v -1.248735 0.935327 0.593576
v -1.372781 0.935327 0.517387
v 1.362700 0.980327 -0.491832
v 1.238654 0.980327 -0.568021
v 1.238654 0.980327 0.593576
v 1.362700 0.980327 0.517387
v -1.248735 0.980327 -0.568021
v -1.372781 0.980327 -0.491832
v -1.372781 0.980327 0.517387
v -1.248735 0.980327 0.593576
v 1.101024 0.946010 -0.457133
v 1.101024 0.946010 0.496654
v -1.111105 0.946010 -0.457133
v -1.111105 0.946010 0.496654
v 1.063810 0.946010 -0.457133
v 1.063810 0.946010 0.450941
v -1.073892 0.946010 -0.457133
v -1.073892 0.946010 0.450941
v -1.165987 0.924550 -0.309056
v -1.106445 0.900550 -0.309056
v -1.165987 0.924550 0.341639
v -1.225529 0.900550 0.341639
v 1.156641 0.924550 0.341639
v 1.216183 0.900550 0.341639
v 1.156641 0.924550 -0.309056
v 1.216183 0.900550 -0.309056
v 1.097099 0.900550 -0.309056
v -1.165987 0.045152 -0.424863
v -1.106445 0.045152 -0.461433
v -1.165987 0.045152 -0.498004
v -1.225529 0.045152 -0.461433
v -1.165987 0.900550 -0.345626
v -1.225529 0.900550 -0.309056
v 1.156641 0.900550 -0.345626
v 1.156641 0.045152 -0.498004
v 1.216183 0.045152 -0.461433
v 1.156641 0.045152 -0.424863
v 1.097099 0.045152 -0.461433
v -1.106445 0.900550 0.341639
v -1.165987 0.900550 0.378209
v -1.165987 0.045152 0.457446
v -1.106445 0.045152 0.494017
v -1.165987 0.045152 0.530587
v -1.225529 0.045152 0.494017
v 1.156641 0.900550 0.378209
v 1.097099 0.900550 0.341639
v 1.156641 0.045152 0.457446
v 1.216183 0.045152 0.494017
v 1.156641 0.045152 0.530587
v 1.097099 0.045152 0.494017
v 1.156641 0.876550 -0.272485
v 1.156641 0.876550 0.305068
v -1.165987 0.876550 0.305068
v -1.165987 0.876550 -0.272485
v -1.165987 0.000152 -0.406577
v -1.076674 0.000152 -0.461433
v -1.165987 0.000152 -0.516289
v -1.255300 0.000152 -0.461433
v 1.156641 0.000152 -0.516289
v 1.245954 0.000152 -0.461433
v 1.156641 0.000152 -0.406577
v 1.067328 0.000152 -0.461433
v -1.165987 0.000152 0.439161
v -1.076674 0.000152 0.494017
v -1.165987 0.000152 0.548873
v -1.255300 0.000152 0.494017
v 1.156641 0.000152 0.439161
v 1.245954 0.000152 0.494017
v 1.156641 0.000152 0.548873
v 1.067328 0.000152 0.494017
v 1.158072 0.164824 -0.441672
v 1.112486 0.146824 -0.441672
v 1.158072 0.128824 -0.441672
v 1.203658 0.146824 -0.441672
v 1.203658 0.146824 0.474902
v -1.165545 0.164824 -0.441672
v -1.211131 0.146824 -0.441672
v -1.165545 0.128824 -0.441672
v -1.119959 0.146824 -0.441672
v -1.211131 0.146824 0.474902
v -1.119959 0.146824 0.447485
v 1.158064 0.128824 0.474913
v 1.158064 0.146824 0.502340
v -1.167024 0.146824 0.502340
v 1.112486 0.146824 0.447485
v 1.158061 0.164820 0.474902
v -1.165545 0.128824 0.474902
v -1.165545 0.164824 0.474902
v -1.109904 0.919932 -0.014374
v -1.109904 0.919932 0.041475
v -1.134695 0.896175 -0.014026
v -1.134695 0.896175 0.041127
v 1.097701 0.919932 -0.014374
v 1.097701 0.919932 0.041475
v 1.122492 0.896175 -0.014026
v 1.122492 0.896175 0.041127
v 1.014192 0.834153 -0.457133
v 1.063810 0.854153 -0.457133
v 1.063810 0.854153 0.450941
v 1.014192 0.834153 0.450941
v -1.073892 0.854153 -0.457133
v -1.024273 0.834153 -0.457133
v -1.024273 0.834153 0.450941
v -1.073892 0.854153 0.450941
v 1.101024 0.849153 -0.457133
v 1.026597 0.819153 -0.457133
v 1.026597 0.819153 0.496654
v 1.101024 0.849153 0.496654
v -1.036678 0.819153 -0.457133
v -1.111105 0.849153 -0.457133
v -1.111105 0.849153 0.496654
v -1.036678 0.819153 0.496654
vn 0.1505 -0.7921 -0.5916
vn -0.1505 -0.7921 -0.5916
vn -0.1505 0.7921 -0.5916
vn 0.1505 0.7921 -0.5916
vn -0.4014 -0.8750 -0.2707
vn -0.4014 -0.8750 0.2707
vn -0.4014 0.8750 0.2707
vn -0.4014 0.8750 -0.2707
vn 0.1505 -0.7921 0.5916
vn 0.4014 -0.8750 -0.2707
vn 0.4014 -0.8750 0.2707
vn -0.1505 -0.7921 0.5916
vn 0.1505 0.7921 0.5916
vn -0.1505 0.7921 0.5916
vn 0.4014 0.8750 -0.2707
vn 0.4014 0.8750 0.2707
vn 0.1431 -0.8574 0.4944
vn 0.4937 -0.5073 0.7063
vn 0.3194 0.7923 0.5199
vn -0.3194 0.7923 0.5199
vn -0.4937 -0.5073 0.7063
vn -0.1431 -0.8574 0.4944
vn -0.4937 -0.5074 -0.7063
vn -0.3193 0.7923 -0.5199
vn 0.3193 0.7923 -0.5199
vn 0.3594 0.3693 -0.8570
vn 0.1431 -0.8574 -0.4944
vn -0.1431 -0.8574 -0.4944
vn 0.1195 0.7158 -0.6880
vn -0.1195 0.7158 -0.6880
vn -0.1301 0.9686 -0.2119
vn 0.1301 0.9686 -0.2119
vn 0.1431 0.8574 -0.4944
vn -0.1431 0.8574 -0.4944
vn -0.4937 0.5073 -0.7063
vn 0.4937 0.5073 -0.7063
vn -0.0000 0.9743 -0.2254
vn -0.0000 0.9743 0.2254
vn 0.8057 0.5139 0.2947
vn 0.8057 0.5139 -0.2947
vn -0.8057 0.5139 -0.2947
vn -0.8057 0.5139 0.2947
vn -0.0000 0.1227 0.9924
vn -0.0000 -0.8765 0.4814
vn -0.9420 0.3322 -0.0479
vn 0.9420 0.3322 -0.0479
vn -0.0000 0.2880 -0.9576
vn -0.0000 0.5378 -0.8431
vn 0.9420 0.3322 0.0479
vn -0.0000 0.1227 -0.9924
vn -0.0000 -0.8765 -0.4814
vn -0.0000 0.5378 0.8431
vn -0.0000 0.2880 0.9576
vn -0.9420 0.3322 0.0479
vn 0.8340 0.5518 -0.0000
vn -0.0000 0.3764 -0.9264
vn -0.8340 0.5518 -0.0000
vn -0.0000 0.3764 0.9264
vn -0.0000 -1.0000 -0.0000
vn -0.0000 0.9066 -0.4219
vn 0.0968 0.9821 0.1617
vn 0.8650 0.0002 0.5017
vn 0.3672 0.9301 -0.0000
vn -0.6568 -0.0000 -0.7541
vn -0.5168 -0.0000 -0.8561
vn -0.0000 -0.9066 -0.4219
vn 0.0968 -0.9821 0.1618
vn 0.3672 -0.9301 -0.0000
vn -0.0961 0.9824 0.1601
vn 0.5168 -0.0000 -0.8561
vn 0.6568 -0.0000 -0.7541
vn -0.2808 0.7110 -0.6447
vn -0.8693 -0.0000 0.4943
vn -0.0961 -0.9824 0.1602
vn -0.3673 -0.9301 -0.0000
vn -0.2160 0.0001 0.9764
vn 0.2091 0.0002 0.9779
vn -0.0000 -0.0000 -1.0000
vn -0.5478 0.2693 -0.7921
vn -0.5478 0.2693 0.7921
vn -0.6630 0.6875 0.2963
vn -0.6630 0.6875 -0.2963
vn 0.5477 0.2692 -0.7922
vn 0.6630 0.6875 -0.2962
vn 0.6630 0.6875 0.2962
vn 0.5477 0.2692 0.7922
vn 0.4937 -0.5074 -0.7063
vn -0.3594 0.3693 -0.8570
vt 0.013338 0.421467
vt 0.367469 0.421468
vt 0.367469 0.405573
vt 0.013338 0.405573
vt 0.303968 0.401859
vt 0.537902 0.401859
vt 0.537902 0.385965
vt 0.303968 0.385965
vt 0.385129 0.444790
vt 0.385129 0.714045
vt 0.402789 0.696385
vt 0.402789 0.462450
vt 0.013338 0.441076
vt 0.367469 0.441076
vt 0.367469 0.425182
vt 0.013338 0.425181
vt 0.385129 0.714028
vt 0.402789 0.696367
vt 0.402789 0.462433
vt 0.385129 0.444773
vt 0.013338 0.385965
vt 0.013338 0.401859
vt 0.030999 0.401859
vt 0.030999 0.385965
vt 0.264933 0.385965
vt 0.264933 0.401859
vt 0.282594 0.401859
vt 0.282594 0.385965
vt 0.286308 0.385965
vt 0.286308 0.401859
vt 0.555562 0.401859
vt 0.555562 0.385965
vt 0.032785 0.188017
vt 0.027721 0.182384
vt 0.011372 0.182384
vt 0.011372 0.349781
vt 0.027721 0.349781
vt 0.032785 0.344149
vt 0.321999 0.339205
vt 0.339359 0.339205
vt 0.339359 0.336413
vt 0.322895 0.336413
vt 0.316622 0.178792
vt 0.316622 0.333620
vt 0.319311 0.332689
vt 0.319311 0.179723
vt 0.095117 0.288045
vt 0.111441 0.288045
vt 0.111441 0.182384
vt 0.095117 0.182384
vt 0.229208 0.170237
vt 0.229208 0.014105
vt 0.123548 0.014105
vt 0.123548 0.170237
vt 0.011372 0.008473
vt 0.011372 0.175869
vt 0.016436 0.170805
vt 0.016436 0.013537
vt 0.117032 0.175869
vt 0.117032 0.170805
vt 0.336320 0.012123
vt 0.235723 0.012123
vt 0.235723 0.162091
vt 0.336320 0.162091
vt 0.052727 0.339653
vt 0.055650 0.336002
vt 0.055650 0.186035
vt 0.052727 0.182384
vt 0.039300 0.182384
vt 0.039300 0.339653
vt 0.132755 0.282981
vt 0.132755 0.182384
vt 0.119349 0.182384
vt 0.119349 0.282981
vt 0.117032 0.008473
vt 0.117032 0.013537
vt 0.077223 0.370696
vt 0.077223 0.298612
vt 0.072952 0.298612
vt 0.072952 0.370696
vt 0.376342 0.084608
vt 0.376342 0.012524
vt 0.372070 0.012524
vt 0.372070 0.084608
vt 0.062165 0.298612
vt 0.062165 0.370696
vt 0.066437 0.370696
vt 0.066437 0.298612
vt 0.147192 0.293547
vt 0.147192 0.365631
vt 0.151463 0.365631
vt 0.151463 0.293547
vt 0.182304 0.182384
vt 0.182304 0.322726
vt 0.186355 0.326801
vt 0.186355 0.182408
vt 0.178253 0.182408
vt 0.178253 0.326801
vt 0.361504 0.008473
vt 0.361504 0.152867
vt 0.365555 0.152881
vt 0.365555 0.008487
vt 0.357453 0.008487
vt 0.357453 0.152881
vt 0.346886 0.152867
vt 0.346886 0.008473
vt 0.342835 0.008487
vt 0.342835 0.152881
vt 0.350938 0.152881
vt 0.350938 0.008487
vt 0.367925 0.316664
vt 0.367925 0.172270
vt 0.363873 0.172256
vt 0.363873 0.312599
vt 0.211539 0.326777
vt 0.211539 0.182384
vt 0.207488 0.182408
vt 0.207488 0.326801
vt 0.215591 0.326801
vt 0.215591 0.182408
vt 0.353307 0.316664
vt 0.353307 0.172270
vt 0.349256 0.172256
vt 0.349256 0.312599
vt 0.196922 0.326777
vt 0.196922 0.182384
vt 0.192870 0.182408
vt 0.192870 0.326801
vt 0.200973 0.326801
vt 0.200973 0.182408
vt 0.136625 0.357529
vt 0.140676 0.361580
vt 0.140676 0.289496
vt 0.136625 0.293547
vt 0.359822 0.316664
vt 0.359822 0.172270
vt 0.167686 0.322726
vt 0.171738 0.326801
vt 0.171738 0.182408
vt 0.167686 0.182384
vt 0.132574 0.361580
vt 0.132574 0.289496
vt 0.126059 0.289496
vt 0.122008 0.293547
vt 0.122008 0.357529
vt 0.126059 0.361580
vt 0.163635 0.326801
vt 0.163635 0.182408
vt 0.345204 0.316664
vt 0.345204 0.172270
vt 0.117956 0.289496
vt 0.117956 0.361580
vt 0.376115 0.008473
vt 0.073178 0.294560
vt 0.376115 0.088660
vt 0.073178 0.374747
vt 0.147418 0.369683
vt 0.066210 0.374747
vt 0.066210 0.294560
vt 0.147418 0.289496
vt 0.069041 0.834220
vt 0.069041 0.846811
vt 0.086028 0.849958
vt 0.086028 0.831073
vt 0.086028 0.867145
vt 0.086028 0.854555
vt 0.069041 0.851407
vt 0.069041 0.870293
vt 0.085578 0.895223
vt 0.085578 0.907814
vt 0.102565 0.910961
vt 0.102565 0.892076
vt 0.030271 0.874889
vt 0.030271 0.887479
vt 0.047258 0.890627
vt 0.047258 0.871741
vt 0.028823 0.907814
vt 0.028823 0.895223
vt 0.011836 0.892076
vt 0.011836 0.910961
vt 0.030271 0.895223
vt 0.030271 0.907814
vt 0.047258 0.910961
vt 0.047258 0.892076
vt 0.102565 0.887479
vt 0.102565 0.874889
vt 0.085578 0.871741
vt 0.085578 0.890627
vt 0.067142 0.874889
vt 0.067142 0.887479
vt 0.084129 0.890627
vt 0.084129 0.871741
vt 0.104464 0.846811
vt 0.104464 0.834220
vt 0.087476 0.831073
vt 0.087476 0.849958
vt 0.048707 0.895223
vt 0.048707 0.907814
vt 0.065694 0.910961
vt 0.065694 0.892076
vt 0.048707 0.874889
vt 0.048707 0.887479
vt 0.065694 0.890627
vt 0.065694 0.871741
vt 0.026924 0.887479
vt 0.026924 0.874889
vt 0.009937 0.871741
vt 0.009937 0.890627
vt 0.067142 0.895223
vt 0.067142 0.907814
vt 0.084129 0.910961
vt 0.084129 0.892076
vt 0.050605 0.834220
vt 0.050605 0.846811
vt 0.067592 0.849958
vt 0.067592 0.831073
vt 0.087476 0.854555
vt 0.087476 0.867145
vt 0.104464 0.870293
vt 0.104464 0.851407
vt 0.067592 0.867145
vt 0.067592 0.854555
vt 0.050605 0.851407
vt 0.050605 0.870293
vt 0.049157 0.851407
vt 0.030271 0.851407
vt 0.030271 0.870293
vt 0.049157 0.870293
vt 0.030271 0.831073
vt 0.030271 0.849958
vt 0.049157 0.849958
vt 0.049157 0.831073
vt 0.009937 0.849958
vt 0.028823 0.849958
vt 0.028823 0.831073
vt 0.009937 0.831073
vt 0.028823 0.851407
vt 0.009937 0.851407
vt 0.009937 0.870293
vt 0.028823 0.870293
vt 0.083739 0.294560
vt 0.083739 0.366558
vt 0.086946 0.366558
vt 0.086946 0.294560
vt 0.103183 0.294560
vt 0.103184 0.363520
vt 0.106390 0.366558
vt 0.106390 0.294560
vt 0.235723 0.350340
vt 0.307722 0.350340
vt 0.304683 0.347239
vt 0.235723 0.347239
vt 0.235723 0.353442
vt 0.307721 0.353442
vt 0.386064 0.080470
vt 0.386064 0.008473
vt 0.382857 0.011510
vt 0.382857 0.080470
vt 0.096668 0.369597
vt 0.096668 0.297600
vt 0.093461 0.297600
vt 0.093461 0.369597
vt 0.235723 0.175358
vt 0.307721 0.175358
vt 0.307721 0.172256
vt 0.235723 0.172256
vt 0.235723 0.178460
vt 0.304683 0.178460
vt 0.222106 0.182385
vt 0.222106 0.357366
vt 0.225162 0.357467
vt 0.225162 0.182384
vt 0.310760 0.350340
vt 0.310760 0.175257
vt 0.136915 0.372527
vt 0.136915 0.368185
vt 0.132574 0.368095
vt 0.132574 0.372437
vt 0.377489 0.172256
vt 0.374440 0.175357
vt 0.374440 0.344136
vt 0.377489 0.347238
vt 0.121718 0.368095
vt 0.121718 0.372437
vt 0.126059 0.372527
vt 0.126059 0.368185
vt 0.086772 0.369597
vt 0.096500 0.294560
vt 0.323424 0.360045
vt 0.317314 0.360045
vt 0.317275 0.364143
vt 0.323462 0.364143
vt 0.039339 0.360045
vt 0.039300 0.364143
vt 0.045487 0.364143
vt 0.045449 0.360045
vt 0.030999 0.714028
vt 0.030999 0.444773
vt 0.013338 0.696367
vt 0.013338 0.462433
vt 0.030999 0.714045
vt 0.030999 0.444790
vt 0.013338 0.696385
vt 0.013338 0.462450
vt 0.339359 0.173207
vt 0.321999 0.173207
vt 0.322895 0.176000
vt 0.339359 0.176000
vt 0.235723 0.165741
vt 0.336320 0.165741
vt 0.336320 0.009200
vt 0.235723 0.009200
vt 0.235723 0.012850
vt 0.336320 0.012850
vt 0.143714 0.182384
vt 0.143714 0.282981
vt 0.157120 0.282981
vt 0.157120 0.182384
vt 0.123548 0.015078
vt 0.229208 0.015078
vt 0.229208 0.009446
vt 0.123548 0.009446
vt 0.229208 0.169264
vt 0.123548 0.169264
vt 0.123548 0.174896
vt 0.229208 0.174896
vt 0.078489 0.182384
vt 0.062165 0.182384
vt 0.062165 0.288045
vt 0.078489 0.288045
s 1
f 1/1/1 6/2/2 13/3/3 10/4/4
f 5/5/5 8/6/6 15/7/7 14/8/8
f 4/9/9 1/10/1 2/11/10 3/12/11
f 7/13/12 4/14/9 11/15/13 16/16/14
f 13/17/3 14/18/8 15/19/7 16/20/14
f 1/21/1 10/22/4 9/23/15 2/24/10
f 3/25/11 12/26/16 11/27/13 4/28/9
f 5/5/5 14/8/8 13/29/3 6/30/2
f 7/31/12 16/32/14 15/7/7 8/6/6
f 3/25/11 2/24/10 9/23/15 12/26/16
f 113/33/17 114/34/18 18/35/19 20/36/20 117/37/21 118/38/22
f 116/39/23 19/40/24 23/41/25 107/42/26
f 112/43/27 115/44/28 108/45/29 103/46/30
f 117/47/21 20/48/20 19/49/24 116/50/23
f 115/51/28 112/52/27 113/53/17 118/54/22
f 20/55/20 18/56/19 22/57/31 24/58/32
f 18/56/19 17/59/25 21/60/24 22/57/31
f 108/61/29 109/62/33 106/63/34 103/64/30
f 105/65/35 106/66/34 109/67/33 110/68/36 24/69/32 22/70/31
f 110/71/36 107/72/26 23/73/25 24/74/32
f 19/75/24 20/55/20 24/58/32 23/76/25
f 25/77/37 27/78/38 45/79/39 26/80/40
f 39/81/41 28/82/42 27/83/38 25/84/37
f 29/85/38 31/86/37 33/87/41 52/88/42
f 30/89/39 32/90/40 31/91/37 29/92/38
f 34/93/43 60/94/44 39/95/41 37/96/45
f 35/97/46 26/98/40 60/94/44 34/93/43
f 36/99/47 38/100/48 26/101/40 35/102/46
f 37/103/45 39/104/41 38/100/48 36/99/47
f 40/105/48 41/106/47 44/107/45 33/108/41
f 32/109/40 42/110/46 41/106/47 40/105/48
f 45/111/39 48/112/49 47/113/50 59/114/51
f 46/115/52 49/116/53 48/117/49 45/118/39
f 28/119/42 50/120/54 49/116/53 46/115/52
f 30/121/39 54/122/49 53/123/50 58/124/51
f 51/125/52 55/126/53 54/127/49 30/128/39
f 52/129/42 56/130/54 55/126/53 51/125/52
f 58/131/51 52/132/42 33/133/41 57/134/44
f 28/135/42 59/114/51 47/113/50 50/136/54
f 57/137/44 33/138/41 44/139/45 43/140/43
f 30/141/39 58/131/51 57/134/44 32/142/40
f 39/143/41 60/144/44 59/145/51 28/146/42
f 32/147/40 57/137/44 43/140/43 42/148/46
f 52/149/42 58/124/51 53/123/50 56/150/54
f 60/144/44 26/151/40 45/152/39 59/145/51
f 28/82/42 46/153/52 27/83/38
f 27/78/38 46/154/52 45/79/39
f 39/81/41 25/84/37 38/155/48
f 25/77/37 26/80/40 38/156/48
f 32/90/40 40/157/48 31/91/37
f 33/87/41 31/86/37 40/158/48
f 52/88/42 51/159/52 29/85/38
f 29/92/38 51/160/52 30/89/39
f 53/161/50 54/162/49 74/163/55 73/164/56
f 34/165/43 37/166/45 64/167/57 61/168/58
f 47/169/50 48/170/49 70/171/55 69/172/56
f 44/173/45 41/174/47 65/175/56 68/176/57
f 41/177/47 42/178/46 66/179/55 65/180/56
f 54/181/49 55/182/53 75/183/58 74/184/55
f 35/185/46 34/186/43 61/187/58 62/188/55
f 36/189/47 35/190/46 62/191/55 63/192/56
f 48/193/49 49/194/53 71/195/58 70/196/55
f 42/197/46 43/198/43 67/199/58 66/200/55
f 55/201/53 56/202/54 76/203/57 75/204/58
f 49/205/53 50/206/54 72/207/57 71/208/58
f 43/209/43 44/210/45 68/211/57 67/212/58
f 37/213/45 36/214/47 63/215/56 64/216/57
f 56/217/54 53/218/50 73/219/56 76/220/57
f 50/221/54 47/222/50 69/223/56 72/224/57
f 64/225/59 63/226/59 62/227/59 61/228/59
f 68/229/59 65/230/59 66/231/59 67/232/59
f 72/233/59 69/234/59 70/235/59 71/236/59
f 76/237/59 73/238/59 74/239/59 75/240/59
f 77/241/60 92/242/61 81/243/62 80/244/63
f 78/245/64 91/246/65 92/247/61 77/248/60
f 79/249/66 88/250/67 91/251/65 78/252/64
f 80/253/68 81/254/62 88/250/67 79/249/66
f 82/255/60 94/256/69 87/257/70 85/258/71
f 83/259/72 86/260/73 94/261/69 82/262/60
f 84/263/66 93/264/74 86/265/73 83/266/75
f 85/267/71 87/268/70 93/264/74 84/263/66
f 92/269/61 94/270/69 90/271/76 89/272/77
f 88/250/67 93/264/74 87/268/70 91/251/65
f 89/273/77 90/274/76 93/264/74 88/250/67
f 85/275/71 84/276/66 83/277/72 82/278/60
f 92/279/61 91/280/65 87/281/70 94/282/69
f 80/283/78 79/284/66 78/285/64 77/286/60
f 81/243/62 92/242/61 89/287/77
f 81/254/62 89/273/77 88/250/67
f 90/288/76 94/261/69 86/260/73
f 93/264/74 90/274/76 86/265/73
f 97/289/79 98/290/80 96/291/81 95/292/82
f 101/293/83 99/294/84 100/295/85 102/296/86
f 10/297/4 13/17/3 16/20/14 11/298/13
f 9/299/15 10/297/4 11/298/13 12/300/16
f 6/301/2 1/10/1 4/9/9 7/302/12
f 5/303/5 6/301/2 7/302/12 8/304/6
f 17/305/25 111/306/87 104/307/88 21/308/24
f 103/46/30 104/307/88 111/306/87 112/43/27
f 105/309/35 104/310/88 103/64/30 106/63/34
f 107/311/26 110/312/36 109/313/33 108/314/29
f 104/315/88 105/316/35 22/317/31 21/318/24
f 107/42/26 108/45/29 115/44/28 116/39/23
f 113/319/17 112/320/27 111/321/87 114/322/18
f 115/323/28 118/324/22 117/325/21 116/326/23
f 111/327/87 17/328/25 18/329/19 114/330/18
