# Blender 4.5.3 LTS
# www.blender.org
mtllib silla.mtl
o Chair.002
v 0.312641 0.554097 -0.210796
v 0.312641 0.584015 -0.224313
v -0.297686 0.554097 -0.210796
v -0.297686 0.584015 -0.224313
v 0.312641 0.554097 0.216881
v 0.262641 0.554097 0.266881
v 0.262641 0.584015 0.266881
v 0.312641 0.584015 0.216881
v -0.247686 0.554097 0.266881
v -0.297686 0.554097 0.216881
v -0.297686 0.584015 0.216881
v -0.247686 0.584015 0.266881
v 0.312975 0.793108 -0.222275
v 0.277975 0.758107 -0.222275
v 0.277975 0.758107 -0.192637
v 0.312975 0.793108 -0.192637
v -0.262710 0.758107 -0.222275
v -0.297710 0.793108 -0.222275
v -0.297710 0.793108 -0.192638
v -0.262710 0.758107 -0.192638
v -0.297710 1.029938 -0.222275
v -0.262710 1.064938 -0.222275
v -0.262710 1.064938 -0.192638
v -0.297710 1.029938 -0.192638
v 0.277975 1.064938 -0.222275
v 0.312975 1.029938 -0.222275
v 0.312975 1.029938 -0.192638
v 0.277975 1.064938 -0.192638
v 0.239658 -0.000277 -0.281682
v 0.271158 -0.000277 -0.250182
v 0.302658 -0.000277 -0.281682
v 0.271158 -0.000277 -0.313182
v 0.250561 1.009519 -0.231683
v 0.271158 1.029988 -0.210683
v 0.291754 1.050456 -0.231683
v 0.271158 1.029988 -0.252683
v -0.238760 1.009519 -0.231683
v -0.259356 1.029988 -0.210683
v -0.279953 1.050456 -0.231683
v -0.259356 1.029988 -0.252683
v -0.227857 -0.000277 -0.281682
v -0.259356 -0.000277 -0.250182
v -0.290857 -0.000277 -0.281682
v -0.259356 -0.000277 -0.313182
v 0.250177 0.042269 -0.281682
v 0.271158 0.042463 -0.302682
v 0.271158 0.042463 -0.260682
v 0.292138 0.042658 -0.281682
v -0.238376 0.042269 -0.281682
v -0.259356 0.042463 -0.302682
v -0.259356 0.042463 -0.260682
v -0.280337 0.042658 -0.281682
v -0.253639 0.796845 -0.231649
v -0.233042 0.780440 -0.252649
v -0.212446 0.764035 -0.231649
v -0.233042 0.780440 -0.210649
v -0.254026 0.544704 -0.230978
v -0.233865 0.524654 -0.250921
v -0.212058 0.543629 -0.232052
v -0.232220 0.563662 -0.212109
v -0.254026 0.544631 0.202611
v -0.233865 0.524485 0.194266
v -0.212058 0.543111 0.201982
v -0.232220 0.563258 0.210327
v -0.254026 0.514186 0.233056
v -0.233865 0.505841 0.212910
v -0.212058 0.513556 0.231536
v -0.232220 0.521901 0.251683
v -0.264518 0.000112 0.283530
v -0.234276 0.000112 0.250821
v -0.201566 0.000112 0.281063
v -0.231808 0.000112 0.313772
v 0.270440 0.796845 -0.231649
v 0.249843 0.780440 -0.210649
v 0.229247 0.764035 -0.231649
v 0.249843 0.780440 -0.252649
v 0.270827 0.544704 -0.230978
v 0.249021 0.563662 -0.212109
v 0.228859 0.543629 -0.232052
v 0.250666 0.524654 -0.250921
v 0.270827 0.544631 0.202611
v 0.249021 0.563258 0.210327
v 0.228859 0.543111 0.201982
v 0.250666 0.524485 0.194266
v 0.270827 0.514186 0.233056
v 0.249021 0.521901 0.251683
v 0.228859 0.513556 0.231536
v 0.250666 0.505841 0.212910
v 0.281319 0.000112 0.283530
v 0.248610 0.000112 0.313772
v 0.218367 0.000112 0.281063
v 0.251077 0.000112 0.250821
v 0.270827 0.042245 0.283113
v 0.250666 0.041445 0.261466
v 0.249021 0.042986 0.303127
v 0.228859 0.042185 0.281480
v -0.254026 0.042245 0.283113
v -0.232220 0.042986 0.303127
v -0.233865 0.041445 0.261466
v -0.212058 0.042185 0.281480
v 0.250343 0.544568 -0.231682
v 0.271158 0.544568 -0.252682
v 0.271158 0.544568 -0.210682
v 0.291972 0.544568 -0.231682
v -0.238542 0.544568 -0.231683
v -0.259356 0.544568 -0.252682
v -0.259356 0.544568 -0.210683
v -0.280171 0.544568 -0.231683
vn 0.2971 -0.6303 0.7173
vn 0.2971 0.6303 0.7173
vn -0.2971 0.6303 0.7173
vn -0.2971 -0.6303 0.7173
vn -0.0000 -0.8402 -0.5423
vn -0.0000 -0.4117 -0.9113
vn 0.5582 0.4500 -0.6971
vn 0.6030 -0.6702 -0.4326
vn 0.7173 0.6303 0.2971
vn 0.7173 -0.6303 0.2971
vn -0.7173 -0.6303 0.2971
vn -0.7173 0.6303 0.2971
vn -0.5895 0.8078 -0.0000
vn -1.0000 -0.0000 -0.0000
vn -0.7173 -0.2971 0.6303
vn -0.7173 0.2971 0.6303
vn -0.7173 0.2971 -0.6303
vn -0.7173 -0.2971 -0.6303
vn 0.2971 0.7173 0.6303
vn 0.3827 0.9239 -0.0000
vn -0.2971 0.7173 -0.6303
vn -0.2971 0.7173 0.6303
vn 0.2971 -0.7173 -0.6303
vn -0.2971 -0.7173 -0.6303
vn -0.0000 -0.0000 -1.0000
vn 0.3827 -0.9239 -0.0000
vn -0.2971 -0.7173 0.6303
vn 0.9239 -0.3827 -0.0000
vn 0.9239 0.3827 -0.0000
vn -0.4120 0.4153 -0.8110
vn 0.0001 0.0510 -0.9987
vn 0.0004 0.1751 -0.9846
vn -0.9915 0.1287 -0.0212
vn -0.9998 -0.0020 0.0221
vn -0.7067 0.7076 -0.0000
vn 0.4135 -0.4138 0.8111
vn -0.0001 -0.0485 0.9988
vn 0.0001 0.0773 0.9970
vn 0.9913 0.1301 -0.0209
vn 0.9997 -0.0020 0.0223
vn 0.7046 -0.7096 -0.0000
vn -0.4120 0.4153 0.8110
vn 0.4135 -0.4138 -0.8111
vn -0.4135 -0.4138 -0.8111
vn -0.7046 -0.7096 -0.0000
vn -0.4135 -0.4138 0.8111
vn 0.4120 0.4153 0.8110
vn 0.7068 0.7075 -0.0000
vn 0.4120 0.4153 -0.8110
vn 0.9710 0.2391 -0.0000
vn 0.0004 0.2388 -0.9711
vn 0.0004 0.2388 0.9711
vn -0.9712 0.2383 -0.0000
vn -0.0004 0.2388 -0.9711
vn -0.0004 0.1751 -0.9846
vn 0.9915 0.1287 -0.0212
vn 0.9712 0.2383 -0.0000
vn -0.0002 0.0773 0.9970
vn -0.0004 0.2388 0.9711
vn -0.9913 0.1301 -0.0209
vn -0.9710 0.2391 -0.0000
vn -0.0001 0.0510 -0.9987
vn 0.9998 -0.0020 0.0221
vn 0.0001 -0.0484 0.9988
vn -0.9997 -0.0020 0.0223
vn -0.7185 0.6955 0.0110
vn -0.7867 0.4448 0.4281
vn 0.0485 0.7114 0.7011
vn -0.1547 0.2362 0.9593
vn -0.1709 0.2366 -0.9564
vn -0.0164 -0.7156 -0.6984
vn -0.8166 -0.4094 -0.4068
vn 0.6357 -0.7719 -0.0099
vn 0.7859 -0.4458 -0.4286
vn 0.8166 0.4096 0.4066
vn -0.6805 0.6766 0.2812
vn 0.0322 0.9232 0.3831
vn -0.0466 -0.9226 -0.3828
vn -0.7339 -0.6276 -0.2599
vn 0.6806 -0.6766 -0.2811
vn 0.7338 0.6275 0.2602
vn -0.6811 0.3230 0.6571
vn 0.0343 0.4263 0.9039
vn -0.0468 -0.4404 -0.8966
vn -0.7368 -0.2880 -0.6117
vn 0.6816 -0.3118 -0.6620
vn 0.7363 0.2992 0.6069
vn -0.9891 0.1347 0.0602
vn -0.9691 0.2439 0.0365
vn 0.0380 0.2416 0.9696
vn 0.0378 0.1784 0.9832
vn -0.0400 0.0799 -0.9960
vn -0.0379 0.2450 -0.9688
vn 0.9913 0.1309 -0.0172
vn 0.9690 0.2441 -0.0396
vn 0.7185 0.6955 0.0110
vn 0.8166 -0.4094 -0.4068
vn 0.0164 -0.7156 -0.6984
vn 0.1709 0.2366 -0.9564
vn 0.1547 0.2362 0.9593
vn -0.0485 0.7114 0.7011
vn 0.7867 0.4448 0.4281
vn -0.6357 -0.7719 -0.0099
vn -0.8166 0.4096 0.4066
vn -0.7859 -0.4458 -0.4286
vn 0.7339 -0.6276 -0.2599
vn 0.0466 -0.9226 -0.3828
vn -0.0322 0.9232 0.3831
vn 0.6805 0.6766 0.2812
vn -0.7338 0.6275 0.2602
vn -0.6806 -0.6766 -0.2811
vn 0.7368 -0.2880 -0.6117
vn 0.0468 -0.4404 -0.8966
vn -0.0343 0.4263 0.9039
vn 0.6811 0.3230 0.6571
vn -0.7363 0.2992 0.6069
vn -0.6816 -0.3118 -0.6620
vn 0.9891 0.1347 0.0602
vn 0.9691 0.2439 0.0365
vn 0.0379 0.2450 -0.9688
vn 0.0400 0.0799 -0.9960
vn -0.0378 0.1784 0.9832
vn -0.0380 0.2416 0.9696
vn -0.9913 0.1309 -0.0172
vn -0.9690 0.2441 -0.0396
vn -0.0000 -0.0000 1.0000
vt 0.223458 0.960279
vt 0.223458 0.946606
vt 0.058537 0.946606
vt 0.058537 0.960279
vt 0.398353 0.985427
vt 0.398353 0.979250
vt 0.119418 0.979250
vt 0.119418 0.985427
vt 0.393985 0.960279
vt 0.398353 0.946606
vt 0.255774 0.946606
vt 0.255774 0.960279
vt 0.196716 0.962928
vt 0.196716 0.976601
vt 0.398353 0.976601
vt 0.392176 0.962928
vt 0.142269 0.943596
vt 0.375502 0.943596
vt 0.398353 0.920745
vt 0.398353 0.719108
vt 0.119418 0.719108
vt 0.119418 0.920745
vt 0.173865 0.962928
vt 0.173865 0.976601
vt 0.647365 0.941798
vt 0.809213 0.941798
vt 0.809213 0.921544
vt 0.647365 0.921544
vt 0.571856 0.874339
vt 0.571856 0.894593
vt 0.833131 0.894593
vt 0.833131 0.874339
vt 0.439714 0.657957
vt 0.809213 0.657957
vt 0.833131 0.634038
vt 0.833131 0.472191
vt 0.809213 0.448272
vt 0.439714 0.448272
vt 0.415795 0.472191
vt 0.415795 0.634038
vt 0.463632 0.918196
vt 0.833131 0.918196
vt 0.833131 0.897942
vt 0.463632 0.897942
vt 0.439714 0.897942
vt 0.439714 0.918196
vt 0.630813 0.942619
vt 0.642840 0.942619
vt 0.642840 0.922539
vt 0.630813 0.922539
vt 0.538030 0.874339
vt 0.538030 0.894593
vt 0.613048 0.942534
vt 0.625075 0.942534
vt 0.625075 0.922454
vt 0.613048 0.922454
vt 0.423586 0.894593
vt 0.423586 0.874339
vt 0.458102 0.011938
vt 0.458054 0.189946
vt 0.458017 0.325608
vt 0.467446 0.325549
vt 0.467446 0.186603
vt 0.467446 0.004287
vt 0.532284 0.318018
vt 0.532284 0.140011
vt 0.532284 0.004348
vt 0.522855 0.004287
vt 0.522893 0.136665
vt 0.522943 0.310364
vt 0.451236 0.325608
vt 0.451236 0.143292
vt 0.451236 0.004346
vt 0.441808 0.004287
vt 0.441844 0.139949
vt 0.441893 0.317957
vt 0.599975 0.010829
vt 0.589833 0.004287
vt 0.589833 0.172795
vt 0.599975 0.166253
vt 0.583052 0.004287
vt 0.572910 0.010829
vt 0.572910 0.166253
vt 0.583052 0.172795
vt 0.539065 0.185879
vt 0.549206 0.179337
vt 0.549206 0.010829
vt 0.539065 0.004287
vt 0.555988 0.179337
vt 0.566129 0.185879
vt 0.566129 0.004287
vt 0.555988 0.010829
vt 0.059826 0.880252
vt 0.056326 0.899297
vt 0.056358 0.902931
vt 0.059841 0.882584
vt 0.082174 0.882363
vt 0.078692 0.902710
vt 0.099587 0.902710
vt 0.096098 0.882452
vt 0.082184 0.879873
vt 0.078698 0.899108
vt 0.077253 0.902931
vt 0.073764 0.882493
vt 0.034734 0.880303
vt 0.038217 0.859956
vt 0.038202 0.857444
vt 0.034702 0.876669
vt 0.099166 0.835492
vt 0.078727 0.838981
vt 0.078818 0.852904
vt 0.099166 0.856387
vt 0.055597 0.876669
vt 0.052125 0.857533
vt 0.052140 0.860045
vt 0.055629 0.880303
vt 0.409389 0.004287
vt 0.409425 0.139949
vt 0.409474 0.317957
vt 0.418817 0.325608
vt 0.418817 0.143292
vt 0.418817 0.004346
vt 0.435026 0.325549
vt 0.435026 0.186603
vt 0.435026 0.004287
vt 0.425683 0.011938
vt 0.425635 0.189946
vt 0.425598 0.325608
vt 0.516074 0.317957
vt 0.516074 0.182294
vt 0.516074 0.004287
vt 0.506733 0.011941
vt 0.506684 0.185640
vt 0.506646 0.318018
vt 0.490436 0.004287
vt 0.490474 0.136665
vt 0.490523 0.310364
vt 0.499865 0.318018
vt 0.499865 0.140011
vt 0.499865 0.004349
vt 0.760083 0.109340
vt 0.760083 0.004287
vt 0.750937 0.010303
vt 0.750745 0.102981
vt 0.750656 0.161254
vt 0.750990 0.266323
vt 0.760012 0.259975
vt 0.760012 0.154922
vt 0.766793 0.273126
vt 0.766969 0.365815
vt 0.776122 0.371825
vt 0.776122 0.266756
vt 0.743875 0.386933
vt 0.743875 0.294253
vt 0.734903 0.287840
vt 0.734569 0.380528
vt 0.663873 0.304620
vt 0.663873 0.166898
vt 0.654777 0.164448
vt 0.654704 0.298627
vt 0.686666 0.154922
vt 0.686646 0.296328
vt 0.695697 0.298978
vt 0.695697 0.161256
vt 0.670686 0.010278
vt 0.670762 0.148141
vt 0.679865 0.145693
vt 0.679865 0.004287
vt 0.711650 0.138466
vt 0.711650 0.004287
vt 0.702601 0.006931
vt 0.702623 0.144795
vt 0.702478 0.304662
vt 0.702478 0.318338
vt 0.711580 0.320789
vt 0.711580 0.302212
vt 0.663750 0.322426
vt 0.663750 0.314052
vt 0.654704 0.311401
vt 0.654704 0.325077
vt 0.531958 0.338076
vt 0.531958 0.324799
vt 0.522855 0.327250
vt 0.522855 0.335625
vt 0.670817 0.305759
vt 0.670817 0.324336
vt 0.679864 0.321686
vt 0.679864 0.308410
vt 0.060070 0.857084
vt 0.056326 0.875950
vt 0.057115 0.879554
vt 0.060647 0.859137
vt 0.060680 0.836681
vt 0.057152 0.856387
vt 0.078030 0.856387
vt 0.074549 0.836320
vt 0.060083 0.833922
vt 0.056326 0.852749
vt 0.077994 0.879554
vt 0.074511 0.859516
vt 0.743964 0.115688
vt 0.743964 0.010635
vt 0.734942 0.004287
vt 0.734608 0.109356
vt 0.766793 0.161280
vt 0.766985 0.253958
vt 0.776130 0.259975
vt 0.776130 0.154922
vt 0.750656 0.279509
vt 0.750990 0.372197
vt 0.759962 0.365784
vt 0.759962 0.273105
vt 0.776193 0.109355
vt 0.776193 0.004287
vt 0.767040 0.010297
vt 0.766864 0.102985
vt 0.679865 0.292644
vt 0.679865 0.154922
vt 0.670817 0.157572
vt 0.670838 0.298978
vt 0.638721 0.170440
vt 0.638793 0.304620
vt 0.647895 0.302170
vt 0.647895 0.164448
vt 0.702500 0.154922
vt 0.702478 0.292786
vt 0.711530 0.295430
vt 0.711530 0.161251
vt 0.695820 0.148141
vt 0.695820 0.006735
vt 0.686723 0.004287
vt 0.686646 0.142150
vt 0.581957 0.328542
vt 0.581957 0.314866
vt 0.572910 0.317517
vt 0.572910 0.325892
vt 0.718361 0.302212
vt 0.718361 0.320789
vt 0.727463 0.318338
vt 0.727463 0.304662
vt 0.686646 0.308410
vt 0.686646 0.321686
vt 0.695692 0.324336
vt 0.695692 0.305759
vt 0.589373 0.317336
vt 0.589373 0.325711
vt 0.598475 0.328162
vt 0.598475 0.314886
vt 0.096094 0.859108
vt 0.099571 0.879175
vt 0.100371 0.875570
vt 0.096577 0.857084
vt 0.082221 0.858757
vt 0.078692 0.879175
vt 0.051389 0.836707
vt 0.054867 0.856747
vt 0.055629 0.853109
vt 0.051841 0.833922
vt 0.037519 0.837040
vt 0.033987 0.856747
vt 0.734787 0.157374
vt 0.734478 0.281059
vt 0.743875 0.280823
vt 0.743875 0.154922
vt 0.557070 0.195289
vt 0.556742 0.321189
vt 0.566129 0.320958
vt 0.566129 0.192661
vt 0.582307 0.308085
vt 0.582308 0.179788
vt 0.572910 0.179576
vt 0.573213 0.305657
vt 0.727697 0.281257
vt 0.727697 0.155176
vt 0.718311 0.154922
vt 0.718644 0.278607
vt 0.598475 0.308104
vt 0.598475 0.179807
vt 0.589088 0.179576
vt 0.589416 0.305477
vt 0.727827 0.130423
vt 0.727827 0.004523
vt 0.718431 0.004287
vt 0.718740 0.127972
vt 0.540908 0.195310
vt 0.540575 0.318995
vt 0.549961 0.318742
vt 0.549961 0.192661
vt 0.607059 0.179960
vt 0.606756 0.306041
vt 0.616153 0.305830
vt 0.616153 0.177532
vt 0.615957 0.004287
vt 0.606756 0.010829
vt 0.606756 0.164209
vt 0.615957 0.170751
vt 0.654704 0.157667
vt 0.663905 0.151125
vt 0.663905 0.010829
vt 0.654704 0.004287
vt 0.638721 0.151125
vt 0.647922 0.157667
vt 0.647922 0.004287
vt 0.638721 0.010829
vt 0.631940 0.010829
vt 0.622739 0.004287
vt 0.622739 0.170751
vt 0.631940 0.164209
vt 0.142269 0.943958
vt 0.375502 0.943958
vt 0.398353 0.921106
vt 0.398353 0.725647
vt 0.119418 0.725647
vt 0.119418 0.921106
vt 0.439714 0.870990
vt 0.809213 0.870990
vt 0.833131 0.847072
vt 0.833131 0.685224
vt 0.809213 0.661306
vt 0.439714 0.661306
vt 0.415795 0.685224
vt 0.415795 0.847072
vt 0.474314 0.011941
vt 0.474264 0.185640
vt 0.474227 0.318018
vt 0.483655 0.317957
vt 0.483655 0.182294
vt 0.483655 0.004287
s 1
f 6/1/1 7/2/2 12/3/3 9/4/4
f 3/5/5 4/6/6 2/7/7 1/8/8
f 1/9/8 2/10/7 8/11/9 5/12/10
f 10/13/11 11/14/12 4/15/13 3/16/14
f 12/17/3 7/18/2 8/19/9 2/20/7 4/21/13 11/22/12
f 7/2/2 6/1/1 5/12/10 8/11/9
f 11/14/12 10/13/11 9/23/4 12/24/3
f 19/25/15 24/26/16 21/27/17 18/28/18
f 28/29/19 25/30/20 22/31/21 23/32/22
f 14/33/23 17/34/24 18/35/18 21/36/17 22/37/21 25/38/25 26/39/25 13/40/25
f 15/41/26 20/42/27 17/43/24 14/44/23
f 15/41/26 14/44/23 13/45/28 16/46/28
f 17/47/24 20/48/27 19/49/15 18/50/18
f 27/51/29 26/52/29 25/30/20 28/29/19
f 21/53/17 24/54/16 23/55/22 22/56/21
f 13/57/28 26/52/29 27/51/29 16/58/28
f 40/59/30 106/60/31 50/61/32 52/62/33 108/63/34 39/64/35
f 38/65/36 107/66/37 51/67/38 49/68/39 105/69/40 37/70/41
f 39/71/35 108/72/34 52/73/33 51/74/38 107/75/37 38/76/42
f 37/77/41 40/78/43 36/79/44 33/80/45
f 38/81/36 37/82/41 33/83/45 34/84/46
f 39/85/35 38/86/42 34/87/47 35/88/48
f 40/89/30 39/90/35 35/91/48 36/92/49
f 49/93/39 41/94/50 44/95/51 50/96/32
f 51/97/38 42/98/52 41/99/50 49/100/39
f 52/101/33 43/102/53 42/98/52 51/97/38
f 50/96/32 44/95/51 43/103/53 52/104/33
f 32/105/54 46/106/55 48/107/56 31/108/57
f 31/109/57 48/110/56 47/111/58 30/112/59
f 30/113/59 47/114/58 45/115/60 29/116/61
f 29/116/61 45/115/60 46/106/55 32/105/54
f 46/117/55 102/118/62 36/119/49 35/120/48 104/121/63 48/122/56
f 48/123/56 104/124/63 35/125/48 34/126/47 103/127/64 47/128/58
f 47/129/58 103/130/64 34/131/46 33/132/45 101/133/65 45/134/60
f 45/135/60 101/136/65 33/137/45 36/138/44 102/139/62 46/140/55
f 53/141/66 57/142/67 60/143/68 56/144/69
f 54/145/70 58/146/71 57/147/72 53/148/66
f 55/149/73 59/150/74 58/151/71 54/152/70
f 56/153/69 60/154/68 59/155/75 55/156/73
f 57/157/67 61/158/76 64/159/77 60/160/68
f 58/161/71 62/162/78 61/163/79 57/164/72
f 59/165/74 63/166/80 62/167/78 58/168/71
f 60/169/68 64/170/77 63/171/81 59/172/75
f 61/173/76 65/174/82 68/175/83 64/176/77
f 62/177/78 66/178/84 65/179/85 61/180/79
f 63/181/80 67/182/86 66/183/84 62/184/78
f 64/185/77 68/186/83 67/187/87 63/188/81
f 97/189/88 69/190/89 72/191/90 98/192/91
f 99/193/92 70/194/93 69/195/89 97/196/88
f 100/197/94 71/198/95 70/194/93 99/193/92
f 98/192/91 72/191/90 71/199/95 100/200/94
f 73/201/96 77/202/97 80/203/98 76/204/99
f 74/205/100 78/206/101 77/207/102 73/208/96
f 75/209/103 79/210/104 78/211/101 74/212/100
f 76/213/99 80/214/98 79/215/105 75/216/103
f 77/217/97 81/218/106 84/219/107 80/220/98
f 78/221/101 82/222/108 81/223/109 77/224/102
f 79/225/104 83/226/110 82/227/108 78/228/101
f 80/229/98 84/230/107 83/231/111 79/232/105
f 81/233/106 85/234/112 88/235/113 84/236/107
f 82/237/108 86/238/114 85/239/115 81/240/109
f 83/241/110 87/242/116 86/243/114 82/244/108
f 84/245/107 88/246/113 87/247/117 83/248/111
f 93/249/118 89/250/119 92/251/120 94/252/121
f 95/253/122 90/254/123 89/250/119 93/249/118
f 96/255/124 91/256/125 90/257/123 95/258/122
f 94/259/121 92/260/120 91/256/125 96/255/124
f 88/261/113 94/262/121 96/263/124 87/264/117
f 87/265/116 96/266/124 95/267/122 86/268/114
f 86/269/114 95/270/122 93/271/118 85/272/115
f 85/273/112 93/274/118 94/275/121 88/276/113
f 68/277/83 98/278/91 100/279/94 67/280/87
f 67/281/86 100/282/94 99/283/92 66/284/84
f 66/285/84 99/286/92 97/287/88 65/288/85
f 65/289/82 97/290/88 98/291/91 68/292/83
f 73/293/96 76/294/99 54/295/70 53/296/66
f 76/297/99 75/298/103 55/299/73 54/300/70
f 75/301/103 74/302/100 56/303/69 55/304/73
f 74/305/100 73/306/96 53/307/66 56/308/69
f 6/309/1 9/310/4 10/311/11 3/312/5 1/313/8 5/314/10
f 20/315/27 15/316/126 16/317/126 27/318/126 28/319/19 23/320/22 24/321/16 19/322/15
f 37/323/41 105/324/40 49/325/39 50/326/32 106/327/31 40/328/43
