# Blender 4.5.3 LTS
# www.blender.org
mtllib TESTESCALERA.mtl
o Cube
v 1.000000 -1.000000 -1.000000
v 1.000000 -1.000000 1.000000
v -1.000000 1.000000 -1.000000
v -1.000000 -1.000000 -1.000000
v -1.000000 1.000000 1.000000
v -1.000000 -1.000000 1.000000
v -0.871486 1.000000 -1.000000
v 1.000000 -0.871486 -1.000000
v -0.871486 0.625703 -1.000000
v -0.497189 0.625703 -1.000000
v -0.497189 0.251406 -1.000000
v -0.122892 0.251406 -1.000000
v -0.122892 -0.122891 -1.000000
v 0.251406 -0.122891 -1.000000
v 0.251406 -0.497189 -1.000000
v 0.625703 -0.497189 -1.000000
v 0.625703 -0.871486 -1.000000
v 1.000000 -0.871486 1.000000
v -0.871486 1.000000 1.000000
v 0.625703 -0.871486 1.000000
v 0.625703 -0.497189 1.000000
v 0.251406 -0.497189 1.000000
v 0.251406 -0.122891 1.000000
v -0.122892 -0.122891 1.000000
v -0.122892 0.251406 1.000000
v -0.497189 0.251406 1.000000
v -0.497189 0.625703 1.000000
v -0.871486 0.625703 1.000000
vn -1.0000 -0.0000 -0.0000
vn -0.0000 -1.0000 -0.0000
vn 1.0000 -0.0000 -0.0000
vn -0.0000 1.0000 -0.0000
vn -0.0000 -0.0000 -1.0000
vn -0.0000 -0.0000 1.0000
vt 0.375000 0.000000
vt 0.625000 0.000000
vt 0.625000 0.250000
vt 0.375000 0.250000
vt 0.125000 0.500000
vt 0.375000 0.500000
vt 0.375000 0.750000
vt 0.125000 0.750000
vt 0.706005 0.347070
vt 0.706005 0.902931
vt 0.701985 0.880792
vt 0.701985 0.369208
vt 0.681356 0.854634
vt 0.681356 0.395366
vt 0.655198 0.854634
vt 0.655198 0.395366
vt 0.634569 0.828475
vt 0.634569 0.421525
vt 0.546525 0.828475
vt 0.546525 0.421525
vt 0.484639 0.802317
vt 0.484639 0.447683
vt 0.437851 0.802317
vt 0.437851 0.447683
vt 0.437851 0.776158
vt 0.437851 0.473842
vt 0.391064 0.776159
vt 0.391064 0.473842
vt 0.391064 0.750000
vt 0.391064 0.500000
vt 0.875000 0.500000
vt 0.875000 0.750000
vt 0.625000 1.000000
vt 0.375000 1.000000
s 0
usemtl Material
f 6/1/1 5/2/1 3/3/1 4/4/1
f 4/5/2 1/6/2 2/7/2 6/8/2
f 7/9/3 19/10/3 28/11/3 9/12/3
f 9/12/4 28/11/4 27/13/4 10/14/4
f 10/14/3 27/13/3 26/15/3 11/16/3
f 11/16/4 26/15/4 25/17/4 12/18/4
f 12/18/3 25/17/3 24/19/3 13/20/3
f 13/20/4 24/19/4 23/21/4 14/22/4
f 14/22/3 23/21/3 22/23/3 15/24/3
f 15/24/4 22/23/4 21/25/4 16/26/4
f 16/26/3 21/25/3 20/27/3 17/28/3
f 17/28/4 20/27/4 18/29/4 8/30/4
f 4/4/5 3/3/5 7/9/5 9/12/5 10/14/5 11/16/5 12/18/5 13/20/5 14/22/5 15/24/5 16/26/5 17/28/5 8/30/5 1/6/5
f 1/6/3 8/30/3 18/29/3 2/7/3
f 7/9/4 3/31/4 5/32/4 19/10/4
f 2/7/6 18/29/6 20/27/6 21/25/6 22/23/6 23/21/6 24/19/6 25/17/6 26/15/6 27/13/6 28/11/6 19/10/6 5/33/6 6/34/6
