# Blender 4.5.3 LTS
# www.blender.org
mtllib unpazbase2.mtl
o Cube
v -4.201268 -0.078256 4.201268
v -4.201268 0.016913 4.131042
v 2.510106 0.061551 3.157900
v -4.201268 -0.078256 -4.201268
v -4.201268 0.078256 -4.201268
v 4.201268 -0.078256 4.201268
v 4.201268 0.078256 4.201268
v 4.201268 -0.078256 -4.201268
v 3.838475 0.061551 3.157900
v 4.201268 0.078256 -4.201268
v -4.201268 5.587543 4.201268
v 4.201268 5.587543 4.201268
v -4.201268 5.434727 4.201268
v -4.201268 5.591238 4.201268
v -4.201268 5.434726 -4.201269
v -4.201268 5.591237 -4.201269
v 4.201268 5.592988 -4.201269
v -4.201268 5.592988 -4.201269
v 4.201268 5.593703 4.201268
v 4.201268 5.593702 -4.201269
v 4.210343 5.591238 4.201268
v 4.210343 5.591237 -4.201269
v -4.201268 3.323589 4.201268
v -4.201268 3.480100 4.201268
v -3.215630 -0.078256 -4.201268
v -3.215630 0.078256 -4.201268
v -3.215630 -0.078256 4.201268
v -3.215630 5.592988 -4.201269
v 3.209474 -0.078256 -4.201268
v 3.209474 0.078256 -4.201268
v 3.209474 -0.078256 4.201268
v 3.209474 5.592988 -4.201269
v 1.924453 0.078256 -4.201268
v 0.639432 0.078256 -4.201268
v -0.645588 0.078256 -4.201268
v -1.930609 0.078256 -4.201268
v 1.924453 -0.078256 4.201268
v 0.639432 -0.078256 4.201268
v -0.645588 -0.078256 4.201268
v -1.930609 -0.078256 4.201268
v 1.924453 5.592988 -4.201269
v 0.639432 5.592988 -4.201269
v -0.645588 5.592988 -4.201269
v -1.930609 5.592988 -4.201269
v -1.930609 -0.078256 -4.201268
v -0.645588 -0.078256 -4.201268
v 0.639432 -0.078256 -4.201268
v 1.924453 -0.078256 -4.201268
v 4.201268 5.591238 4.201268
v 4.201268 5.591237 -4.201269
v 3.209474 5.591237 -4.201269
v 1.924453 5.591237 -4.201269
v 0.639432 5.591237 -4.201269
v -0.645588 5.591237 -4.201269
v -1.930609 5.591237 -4.201269
v -3.215630 5.591237 -4.201269
v -3.253199 5.235987 -4.201269
v -3.253199 3.467970 -4.201269
v -2.100505 5.235987 -4.201269
v -2.100505 3.467970 -4.201269
v -3.215630 3.467970 -4.201269
v -3.215630 5.235987 -4.201269
v 1.922389 5.235987 -4.201269
v 1.922389 3.467970 -4.201269
v 3.075083 5.235987 -4.201269
v 3.075083 3.467970 -4.201269
v 1.924453 3.467970 -4.201269
v 1.924453 5.235987 -4.201269
v 0.240378 5.235987 -4.201269
v 0.240378 3.467970 -4.201269
v 1.393072 5.235987 -4.201269
v 1.393072 3.467970 -4.201269
v 0.639432 3.467970 -4.201269
v 0.639432 5.235987 -4.201269
v -1.529585 5.235987 -4.201269
v -1.529585 3.467970 -4.201269
v -0.376890 5.235987 -4.201269
v -0.376890 3.467970 -4.201269
v -0.645588 3.467970 -4.201269
v -0.645588 5.235987 -4.201269
v 3.236845 0.078256 -4.201268
v 3.838475 0.078256 4.201268
v 2.510106 0.078256 3.157900
v 2.510106 0.078256 4.201268
v 3.838475 0.078256 3.157900
v 3.838475 0.061551 4.201268
v 2.510106 0.061551 4.201268
v 2.220300 5.223660 4.201268
v 0.891931 5.223660 4.201268
v -3.779092 3.585986 4.201268
v -3.779092 5.223660 4.201268
v -2.252669 5.223660 4.201268
v -2.450722 5.223660 4.201268
v -0.924299 5.223660 4.201268
v 0.643830 5.223660 4.201268
v -0.684540 5.223660 4.201268
v 3.838475 2.970812 4.201268
v 2.220300 3.180378 4.201268
v 2.510106 2.970812 4.201268
v 0.891931 3.180378 4.201268
v 2.220300 2.962370 4.201268
v 2.510106 1.579266 4.201268
v 2.220300 1.437933 4.201268
v 0.643830 3.180378 4.201268
v -0.924299 1.437933 4.201268
v 0.643830 2.962370 4.201268
v 0.891931 2.962370 4.201268
v 0.891931 1.437933 4.201268
v 0.643830 1.437933 4.201268
v -0.684540 1.437933 4.201268
v -3.779092 3.437338 4.201268
v -0.684540 3.180378 4.201268
v -0.684540 2.962370 4.201268
v -0.924299 3.180378 4.201268
v -0.924299 2.962370 4.201268
v -2.450722 3.180378 4.201268
v -2.450722 2.962370 4.201268
v -2.252669 3.180378 4.201268
v -2.252669 2.962370 4.201268
v -2.450722 1.437934 4.201268
v -3.779092 1.437934 4.201268
v -3.779092 2.962370 4.201268
v -3.779092 3.180378 4.201268
v -2.252669 1.437933 4.201268
v 3.830420 0.069795 4.203906
v 2.502050 0.069795 4.203906
v 2.502050 0.069795 3.160537
v 3.830420 0.069795 3.160537
v 2.502371 0.076198 3.159148
v 3.830740 0.076198 3.159148
v -4.201268 -0.143181 10.407234
v -4.201268 0.078257 10.337008
v 21.943592 -0.207179 4.105334
v 21.943592 0.078256 4.201268
v 21.943592 -0.207179 10.481190
v 21.943592 0.078257 10.337008
v -4.201268 5.411627 10.337008
v -4.201268 5.568139 10.337008
v 21.943592 5.497543 10.481190
v 21.943592 5.568139 10.337008
v 4.201268 5.414113 4.201268
v 4.201268 5.570623 4.201268
v 21.943592 5.500126 4.105334
v 21.943592 5.570623 4.201268
v -4.201268 5.659370 4.131042
v -4.201268 5.499276 10.407234
v -4.201268 5.594445 10.337008
v -4.201268 5.411626 4.186968
v -4.201268 5.568139 4.186968
v 21.943592 5.497543 4.090475
v 21.943592 5.568139 4.186968
v -4.288859 5.434727 4.201268
v -4.288859 5.434726 -4.201269
v -4.288859 -0.078256 4.201268
v -4.288859 0.016913 4.131042
v -4.288859 -0.078256 -4.201268
v -4.288859 3.323589 4.201268
v -4.288859 3.480100 4.201268
v 4.269807 5.591238 4.201268
v 4.269807 5.591237 -4.201269
v 4.260732 5.591237 -4.201269
v 4.260732 0.078256 -4.201268
v 4.260732 0.078256 4.201268
v 4.201268 5.592988 -4.278260
v 4.201268 5.591237 -4.278260
v -4.201268 5.434726 -4.278260
v -4.201268 5.591237 -4.278260
v -3.215630 5.591237 -4.278260
v -3.215630 5.235987 -4.278260
v -2.100505 5.235987 -4.278260
v -2.100505 3.467970 -4.278260
v -3.215630 3.467970 -4.278260
v -3.215630 0.078256 -4.278259
v -1.930609 0.078256 -4.278259
v -1.930609 5.591237 -4.278260
v -0.645588 5.591237 -4.278260
v 0.639432 5.591237 -4.278260
v -0.376890 5.235987 -4.278260
v -0.645588 5.235987 -4.278260
v -0.376890 3.467970 -4.278260
v -0.645588 3.467970 -4.278260
v -0.645588 0.078256 -4.278259
v 0.639432 0.078256 -4.278259
v 0.639432 3.467970 -4.278260
v 0.240378 3.467970 -4.278260
v 0.240378 5.235987 -4.278260
v 0.639432 5.235987 -4.278260
v -3.253199 3.467970 -4.278260
v -3.253199 5.235987 -4.278260
v -4.201268 0.078256 -4.278259
v 3.209474 5.592988 -4.278260
v 3.209474 5.591237 -4.278260
v 1.924453 5.591237 -4.278260
v 1.924453 5.235987 -4.278260
v 1.922389 5.235987 -4.278260
v 1.393072 5.235987 -4.278260
v 1.393072 3.467970 -4.278260
v 1.922389 3.467970 -4.278260
v 3.209474 0.078256 -4.278259
v 1.924453 0.078256 -4.278259
v 3.075083 3.467970 -4.278260
v 1.924453 3.467970 -4.278260
v 3.075083 5.235987 -4.278260
v 4.201268 0.078256 -4.278259
v -1.529585 3.467970 -4.278260
v -1.529585 5.235987 -4.278260
v 4.328438 5.591238 4.201268
v 4.328438 5.591237 -4.201269
v 4.319363 5.591237 -4.201269
v 4.319363 0.078256 -4.201268
v 4.319363 0.078256 4.201268
vn -0.0019 -1.0000 -0.0042
vn -0.0000 -1.0000 -0.0000
vn -0.0025 -1.0000 -0.0056
vn -1.0000 -0.0000 -0.0000
vn -0.7071 0.7071 -0.0000
vn -0.5774 0.5774 0.5774
vn -0.0000 -0.0106 0.9999
vn -0.0000 -0.0000 1.0000
vn -0.7071 -0.0000 0.7071
vn -0.7047 -0.0075 0.7094
vn -0.0000 1.0000 -0.0000
vn -0.0000 -0.0000 -1.0000
vn 1.0000 -0.0000 -0.0000
vn -0.0037 1.0000 0.0030
vn -0.0000 0.0849 -0.9964
vn -0.0000 0.7071 0.7071
vn -0.0000 0.7075 -0.7067
vn -0.0000 0.7067 -0.7075
vn 0.7071 -0.7071 -0.0000
vn 0.5774 -0.5774 0.5774
vn -0.0000 -0.7071 0.7071
vn 0.0037 0.0076 -1.0000
vn 0.0023 0.0048 -1.0000
vn 0.0032 0.0066 -1.0000
vn 0.0023 0.0047 -1.0000
vn 0.0019 0.0040 -1.0000
vn 0.0039 0.0080 -1.0000
vn 0.0036 0.0075 -1.0000
vn 0.0055 0.0113 -0.9999
vn -0.7152 -0.6989 -0.0000
vn 0.7153 0.6989 -0.0000
vn -0.0000 -0.9999 -0.0160
vn -0.0000 0.9999 0.0141
vn -0.0037 -1.0000 -0.0085
vn -0.0054 -0.0000 -1.0000
vn -0.0045 0.1980 -0.9802
vn -0.0045 0.1988 -0.9800
vn -0.0012 1.0000 -0.0014
vn -0.0000 -0.0000 -0.0000
vn 0.5790 -0.0000 -0.8153
vn -0.0983 -0.0000 -0.9952
vn -0.0042 0.0062 1.0000
vn -0.0000 -0.5292 -0.8485
vn -0.0000 0.9932 -0.1167
vn -0.0000 -0.9999 0.0125
vn -0.0000 -0.9999 0.0126
vn -0.0034 0.3893 -0.9211
vn 0.0001 -1.0000 -0.0000
vn -0.0000 -0.8046 0.5938
vn 0.0023 -0.3910 0.9204
vn -0.0033 1.0000 -0.0000
vn -0.7071 -0.7071 -0.0000
vn -0.5511 -0.3761 0.7449
vn -0.6412 0.2321 0.7314
vn -0.0000 -0.4507 0.8927
vn -0.0000 0.3024 0.9532
vn -0.0000 -0.7067 -0.7075
vn -0.0000 -0.7075 -0.7067
vn -0.0000 -0.4472 -0.8944
vn -0.0000 -0.5450 0.8385
vn 0.4472 -0.0000 0.8944
vn -0.0000 0.7071 -0.7071
vn -0.5774 -0.5774 0.5774
vn -0.0000 -0.7071 -0.7071
vn -0.0000 0.9080 -0.4191
vn -1.0000 0.0016 0.0005
vt 0.845491 0.500000
vt 0.845491 0.750000
vt 0.875000 0.750000
vt 0.875000 0.500000
vt 0.125000 0.500000
vt 0.125000 0.750000
vt 0.375000 0.750000
vt 0.625000 0.750000
vt 0.625000 0.500000
vt 0.380903 0.500000
vt 0.375000 0.500000
vt 0.000000 0.000000
vt 0.345674 0.750000
vt 0.307441 0.750000
vt 0.269208 0.750000
vt 0.230975 0.750000
vt 0.833299 0.756108
vt 0.861201 0.756899
vt 0.832507 0.756085
vt 0.795329 0.755030
vt 0.807258 0.750000
vt 0.375145 0.970423
vt 0.375134 0.932202
vt 0.375000 0.932258
vt 0.375000 0.970491
vt 0.654326 0.750000
vt 0.654326 0.500000
vt 0.154509 0.750000
vt 0.807258 0.500000
vt 0.692559 0.750000
vt 0.692559 0.500000
vt 0.730792 0.750000
vt 0.730792 0.500000
vt 0.769025 0.750000
vt 0.769025 0.500000
vt 0.683795 0.751864
vt 0.720973 0.752920
vt 0.758151 0.753975
vt 0.175317 0.500000
vt 0.175317 0.531043
vt 0.135794 0.531043
vt 0.135794 0.500000
vt 0.153694 0.750000
vt 0.192742 0.750000
vt 0.375000 0.250000
vt 0.861203 0.729305
vt 0.861203 0.493102
vt 0.376435 0.250000
vt 0.376435 0.119579
vt 0.375000 0.119579
vt 0.376435 0.500000
vt 0.375000 0.630421
vt 0.376435 0.630421
vt 0.824683 0.500000
vt 0.864206 0.500000
vt 0.312496 0.750000
vt 0.261214 0.750000
vt 0.242848 0.750000
vt 0.346792 0.750000
vt 0.375122 0.893981
vt 0.399804 0.884959
vt 0.549795 0.885373
vt 0.404365 0.952865
vt 0.402210 0.920785
vt 0.536967 0.863966
vt 0.522641 0.840059
s 1
usemtl Material.001
f 31/1/1 29/2/2 8/3/2 6/4/3
f 49/5/4 19/5/4 20/6/4 17/6/4 50/6/4
f 16/7/4 15/8/5 13/9/6 11/10/4 14/11/4
f 2/9/4 5/8/4 4/8/4 1/9/4
f 23/12/7 24/12/8 158/12/9 157/12/10
s 0
f 65/12/2 68/12/2 194/12/2 203/12/2
s 1
f 28/13/8 56/13/8 55/14/8 44/14/8
f 55/14/8 54/15/8 43/15/8 44/14/8
f 43/15/8 54/15/8 53/16/8 42/16/8
f 5/7/11 26/13/11 173/13/11 190/7/11
s 0
f 63/12/2 71/12/2 196/12/2 195/12/2
s 1
f 18/7/8 16/7/8 56/13/8 28/13/8
f 81/17/12 10/18/12 8/3/12 29/2/12 30/19/12
s 0
f 78/12/2 79/12/2 181/12/2 180/12/2
s 1
f 36/14/11 35/15/11 182/15/11 174/14/11
f 21/11/2 49/11/2 50/7/2 22/7/2
f 56/7/2 55/7/2 54/7/2 53/7/2 52/7/2 51/7/2 50/7/2 49/11/2 14/11/2 16/7/2
f 33/20/12 30/19/12 29/2/12 48/21/12
s 0
f 66/12/4 65/12/4 203/12/4 201/12/4
s 1
f 51/22/12 52/23/12 41/24/12 32/25/12
f 1/9/1 4/8/2 25/26/2 27/27/1
f 51/28/8 50/6/8 17/6/8 32/28/8
s 0
f 15/12/13 5/12/13 190/12/13 166/12/13
s 1
f 26/13/11 36/14/11 174/14/11 173/13/11
f 37/29/1 48/21/2 29/2/2 31/1/1
f 27/27/1 25/26/2 45/30/2 40/31/1
f 40/31/1 45/30/2 46/32/2 39/33/1
f 39/33/1 46/32/2 47/34/2 38/35/1
f 38/35/1 47/34/2 48/21/2 37/29/1
f 36/36/12 35/37/12 46/32/12 45/30/12
f 35/37/12 34/38/12 47/34/12 46/32/12
f 34/38/12 33/20/12 48/21/12 47/34/12
f 2/11/14 84/39/14 83/40/14 85/41/14 82/42/14 7/5/14 10/6/14 81/43/14 30/28/14 33/44/14 34/16/14 35/15/14 36/14/14 26/13/14 5/7/14
f 3/45/15 127/45/15 129/45/15 130/11/15 128/11/15 9/11/15
f 10/6/16 7/5/17 163/5/18 162/6/16
f 10/46/13 7/47/13 6/4/13 8/3/13
f 53/16/8 52/44/8 41/44/8 42/16/8
s 0
f 77/12/13 78/12/13 180/12/13 178/12/13
f 67/12/11 66/12/11 201/12/11 202/12/11
s 1
f 56/13/2 16/7/19 167/7/20 168/13/21
f 119/12/22 124/12/22 120/12/22 117/12/22
f 92/12/22 118/12/22 116/12/22 93/12/22
f 24/12/23 90/12/24 111/12/25 23/12/24
f 102/12/26 103/12/27 101/12/28 99/12/22
f 105/12/22 115/12/22 113/12/22 110/12/22
f 114/12/22 94/12/22 96/12/22 112/12/22
f 107/12/22 108/12/22 109/12/22 106/12/22
f 104/12/22 95/12/22 89/12/22 100/12/22
f 21/12/29 7/12/29 82/12/29 97/12/29 99/12/22 101/12/28 107/12/22 106/12/22 113/12/22 115/12/22 119/12/22 117/12/22 122/12/29 121/12/29 120/12/22 124/12/22 105/12/22 110/12/22 109/12/22 108/12/22 103/12/27 102/12/26 84/12/29 2/12/29 23/12/24 111/12/25 123/12/29 116/12/22 118/12/22 114/12/22 112/12/22 104/12/22 100/12/22 98/12/29 88/12/29 89/12/22 95/12/22 96/12/22 94/12/22 92/12/22 93/12/22 91/12/29 90/12/24 24/12/23 13/12/29 11/12/29 12/12/29 49/12/29
f 3/45/13 83/48/13 84/49/13 87/50/13
f 85/51/8 83/48/8 3/45/8 9/11/8
f 9/11/4 86/52/4 82/53/4 85/51/4
f 87/50/30 126/50/30 127/45/30 3/45/30
f 9/11/31 128/11/31 125/52/31 86/52/31
f 86/12/32 87/12/32 84/12/32 83/12/32 85/12/32 82/12/32
f 129/5/33 127/45/33 126/50/33 87/54/33 86/55/33 125/55/33 128/11/33 130/11/33
f 38/35/1 37/29/1 31/1/1 6/4/3 133/4/34 135/4/34 131/9/34 1/9/1 27/27/1 40/31/1 39/33/1
f 134/47/13 136/47/13 135/4/13 133/4/13
f 6/4/35 141/4/36 143/4/37 133/4/35
f 7/5/38 82/42/39 86/52/39 87/12/39 84/49/39 2/11/38 132/11/38 136/5/38 134/5/38
f 132/11/12 138/11/12 140/5/40 136/5/41
f 131/9/42 135/4/42 139/4/42 137/9/42
f 136/47/41 140/47/40 139/4/43 135/4/44
f 131/12/45 137/12/46 138/12/2 132/12/2
f 142/47/47 144/47/47 143/4/37 141/4/36
s 0
f 7/47/2 142/47/2 141/4/2 6/4/48
s 1
f 134/5/8 144/5/8 142/5/8 7/5/8
s 0
f 133/4/13 143/4/13 144/47/13 134/47/13
s 1
f 145/12/4 146/12/4 147/12/4
f 132/12/2 147/12/49 146/12/2 131/12/45
f 2/11/13 145/11/13 147/11/13 132/11/13
f 149/9/50 148/9/50 150/4/50 151/4/50
f 140/47/4 151/47/4 150/4/4 139/4/4
f 138/11/2 149/11/2 151/5/2 140/5/2
f 137/12/13 148/12/13 149/12/13 138/12/13
f 137/9/51 139/4/51 150/4/51 148/9/51
f 131/9/4 146/9/4 145/12/4 2/12/4 1/12/4
f 153/12/5 156/12/52 154/12/53 155/12/54 157/12/10 158/12/9 152/12/6
s 0
f 15/12/12 4/12/12 156/12/12 153/12/12
s 1
f 1/9/55 2/9/56 155/9/54 154/9/53
f 24/12/8 13/12/6 152/12/6 158/12/9
f 2/12/56 23/12/7 157/12/10 155/12/54
f 4/8/2 1/9/55 154/9/53 156/8/52
f 13/9/6 15/8/5 153/8/5 152/9/6
f 162/6/16 163/5/17 211/5/18 210/6/16
f 7/12/17 21/12/57 159/12/58 163/12/18
f 50/12/8 10/12/16 162/12/16 161/12/12
f 22/7/59 50/7/8 161/7/12 160/7/2
f 21/11/57 22/7/59 160/7/2 159/11/58
f 169/13/8 170/56/8 171/56/8 172/13/8 173/13/8 174/14/8 175/14/60 168/13/21
f 178/57/8 180/57/8 181/15/8 182/15/16 183/16/16 184/16/8 185/58/8 186/58/8 187/16/8 177/16/21 176/15/21 179/15/8
f 172/13/8 188/59/8 189/59/8 169/13/8 168/13/21 167/7/20 166/7/61 190/7/8 173/13/8
f 177/60/21 187/61/8 194/44/8 193/23/21
f 196/12/8 197/12/8 198/12/8 195/12/8
f 201/62/12 203/63/12 194/64/12 193/23/62 192/22/62 199/19/12 200/20/12 202/65/12
f 192/12/8 199/12/8 204/12/8 165/12/8 164/12/63 191/12/20
f 183/16/64 184/66/12 202/44/12 200/44/64
f 174/14/8 205/12/8 206/12/8 175/14/60
f 182/37/8 181/15/8 205/12/8 174/36/8
f 176/15/62 179/15/12 206/12/12 175/14/65
s 0
f 71/12/13 72/12/13 197/12/13 196/12/13
s 1
f 55/14/2 56/13/2 168/13/21 175/14/60
f 35/37/11 34/38/11 183/38/16 182/37/16
s 0
f 72/12/11 64/12/11 198/12/11 197/12/11
f 64/12/4 63/12/4 195/12/4 198/12/4
f 73/12/2 70/12/2 185/12/2 184/12/2
f 70/12/4 69/12/4 186/12/4 185/12/4
s 1
f 55/7/11 54/7/11 176/7/62 175/7/65
s 0
f 76/12/4 75/12/4 206/12/4 205/12/4
f 69/12/11 74/12/11 187/12/11 186/12/11
s 1
f 52/7/11 51/7/11 192/7/62 193/7/62
f 50/6/4 17/6/52 164/6/63 165/6/4
s 0
f 79/12/2 76/12/2 205/12/2 181/12/2
f 80/12/2 75/12/2 206/12/2 179/12/2
s 1
f 32/28/19 51/28/13 192/28/13 191/28/20
s 0
f 30/12/11 10/12/11 204/12/11 199/12/11
f 62/12/11 59/12/11 170/12/11 169/12/11
f 61/12/2 58/12/2 188/12/2 172/12/2
s 1
f 16/7/19 15/8/13 166/8/61 167/7/20
f 53/16/2 54/15/2 176/15/21 177/16/21
f 17/6/52 32/28/19 191/28/20 164/6/63
f 10/12/4 50/12/4 165/12/4 204/12/4
s 0
f 59/12/13 60/12/13 171/12/13 170/12/13
f 58/12/4 57/12/4 189/12/4 188/12/4
s 1
f 30/19/2 33/20/2 200/20/2 199/19/2
f 52/7/2 53/7/2 177/7/21 193/7/21
f 33/20/2 34/38/2 183/38/64 200/20/64
s 0
f 60/12/2 61/12/2 172/12/2 171/12/2
f 57/12/11 62/12/11 169/12/11 189/12/11
f 80/12/11 77/12/11 178/12/11 179/12/11
f 74/12/11 68/12/11 194/12/11 187/12/11
f 73/12/11 67/12/11 202/12/11 184/12/11
s 1
f 208/12/39 209/12/39 210/12/66 211/12/66 207/12/66
f 160/7/59 161/7/8 209/7/12 208/7/2
f 163/12/17 159/12/57 207/12/58 211/12/18
f 161/12/8 162/12/16 210/12/16 209/12/12
f 159/11/57 160/7/59 208/7/2 207/11/58
